{"glyphs":{"0":{"ha":741,"x_min":0,"x_max":0,"o":"m 660 810 b 602 868 625 810 602 833 l 602 1042 l 544 1042 b 486 1100 509 1042 486 1065 l 486 1157 l 255 1157 l 255 1100 b 197 1042 255 1065 231 1042 l 139 1042 l 139 868 b 81 810 139 833 116 810 l 23 810 l 23 347 l 81 347 b 139 289 116 347 139 324 l 139 116 l 197 116 b 255 58 231 116 255 93 l 255 0 l 486 0 l 486 58 b 544 116 486 93 509 116 l 602 116 l 602 289 b 660 347 602 324 625 347 l 718 347 l 718 810 z m 602 752 l 602 405 b 544 347 602 370 579 347 l 486 347 l 486 174 b 428 116 486 139 463 116 l 313 116 b 255 174 278 116 255 139 l 255 347 l 197 347 b 139 405 162 347 139 370 l 139 752 b 197 810 139 787 162 810 l 255 810 l 255 984 b 313 1042 255 1019 278 1042 l 428 1042 b 486 984 463 1042 486 1019 l 486 810 l 544 810 b 602 752 579 810 602 787 z "},"1":{"ha":394,"x_min":0,"x_max":0,"o":"m 313 116 b 255 174 278 116 255 139 l 255 1157 l 139 1157 l 139 1100 b 81 1042 139 1065 116 1042 l 23 1042 l 23 926 l 81 926 b 139 868 116 926 139 903 l 139 174 b 81 116 139 139 116 116 l 23 116 l 23 0 l 370 0 l 370 116 z "},"2":{"ha":625,"x_min":0,"x_max":0,"o":"m 544 1042 b 486 1100 509 1042 486 1065 l 486 1157 l 139 1157 l 139 1100 b 81 1042 139 1065 116 1042 l 23 1042 l 23 926 l 139 926 l 139 984 b 197 1042 139 1019 162 1042 l 428 1042 b 486 984 463 1042 486 1019 l 486 752 b 428 694 486 718 463 694 l 370 694 l 370 521 b 313 463 370 486 347 463 l 255 463 l 255 405 b 197 347 255 370 231 347 l 139 347 l 139 289 b 81 231 139 255 116 231 l 23 231 l 23 0 l 602 0 l 602 231 l 486 231 l 486 174 b 428 116 486 139 463 116 l 197 116 b 139 174 162 116 139 139 b 197 231 139 208 162 231 l 255 231 l 255 289 b 313 347 255 324 278 347 l 370 347 l 370 405 b 428 463 370 440 394 463 l 486 463 l 486 637 b 544 694 486 671 509 694 l 602 694 l 602 1042 z "},"3":{"ha":625,"x_min":0,"x_max":0,"o":"m 544 1042 b 486 1100 509 1042 486 1065 l 486 1157 l 139 1157 l 139 1100 b 81 1042 139 1065 116 1042 l 23 1042 l 23 926 l 139 926 l 139 984 b 197 1042 139 1019 162 1042 l 428 1042 b 486 984 463 1042 486 1019 l 486 752 b 428 694 486 718 463 694 l 255 694 l 255 579 l 428 579 b 486 521 463 579 486 556 l 486 289 b 428 231 486 255 463 231 l 370 231 l 370 174 b 313 116 370 139 347 116 l 23 116 l 23 0 l 370 0 l 370 58 b 428 116 370 93 394 116 l 486 116 l 486 174 b 544 231 486 208 509 231 l 602 231 l 602 579 l 544 579 b 486 637 509 579 486 602 b 544 694 486 671 509 694 l 602 694 l 602 1042 z "},"4":{"ha":856,"x_min":0,"x_max":0,"o":"m 718 521 b 660 463 718 486 694 463 b 602 521 625 463 602 486 l 602 1157 l 370 1157 l 370 1100 b 313 1042 370 1065 347 1042 l 255 1042 l 255 868 b 197 810 255 833 231 810 l 139 810 l 139 637 b 81 579 139 602 116 579 l 23 579 l 23 347 l 428 347 b 486 289 463 347 486 324 l 486 0 l 602 0 l 602 289 b 660 347 602 324 625 347 l 718 347 l 718 405 b 775 463 718 440 741 463 l 833 463 l 833 579 l 718 579 z m 428 463 l 197 463 b 139 521 162 463 139 486 b 197 579 139 556 162 579 l 255 579 l 255 752 b 313 810 255 787 278 810 l 370 810 l 370 984 b 428 1042 370 1019 394 1042 b 486 984 463 1042 486 1019 l 486 521 b 428 463 486 486 463 463 z "},"5":{"ha":625,"x_min":0,"x_max":0,"o":"m 255 926 l 255 984 b 313 1042 255 1019 278 1042 l 602 1042 l 602 1157 l 139 1157 l 139 984 b 81 926 139 949 116 926 l 23 926 l 23 694 l 313 694 b 370 637 347 694 370 671 l 370 579 l 428 579 b 486 521 463 579 486 556 l 486 289 b 428 231 486 255 463 231 l 370 231 l 370 174 b 313 116 370 139 347 116 l 23 116 l 23 0 l 370 0 l 370 58 b 428 116 370 93 394 116 l 486 116 l 486 174 b 544 231 486 208 509 231 l 602 231 l 602 579 l 544 579 b 486 637 509 579 486 602 l 486 694 l 428 694 b 370 752 394 694 370 718 l 370 810 l 197 810 b 139 868 162 810 139 833 b 197 926 139 903 162 926 z "},"6":{"ha":625,"x_min":0,"x_max":0,"o":"m 139 868 b 197 926 139 903 162 926 l 255 926 l 255 984 b 313 1042 255 1019 278 1042 l 602 1042 l 602 1157 l 255 1157 l 255 1100 b 197 1042 255 1065 231 1042 l 139 1042 l 139 984 b 81 926 139 949 116 926 l 23 926 l 23 116 l 81 116 b 139 58 116 116 139 93 l 139 0 l 486 0 l 486 58 b 544 116 486 93 509 116 l 602 116 l 602 579 l 544 579 b 486 637 509 579 486 602 l 486 694 l 255 694 l 255 637 b 197 579 255 602 231 579 b 139 637 162 579 139 602 z m 255 521 b 313 579 255 556 278 579 l 428 579 b 486 521 463 579 486 556 l 486 174 b 428 116 486 139 463 116 l 197 116 b 139 174 162 116 139 139 l 139 405 b 197 463 139 440 162 463 l 255 463 z "},"7":{"ha":741,"x_min":0,"x_max":0,"o":"m 718 1157 l 139 1157 l 139 1100 b 81 1042 139 1065 116 1042 l 23 1042 l 23 926 l 139 926 l 139 984 b 197 1042 139 1019 162 1042 l 544 1042 b 602 984 579 1042 602 1019 b 544 926 602 949 579 926 l 486 926 l 486 752 b 428 694 486 718 463 694 l 370 694 l 370 405 b 313 347 370 370 347 347 l 255 347 l 255 0 l 370 0 l 370 289 b 428 347 370 324 394 347 l 486 347 l 486 637 b 544 694 486 671 509 694 l 602 694 l 602 868 b 660 926 602 903 625 926 l 718 926 z "},"8":{"ha":625,"x_min":0,"x_max":0,"o":"m 544 1042 b 486 1100 509 1042 486 1065 l 486 1157 l 139 1157 l 139 1100 b 81 1042 139 1065 116 1042 l 23 1042 l 23 694 l 81 694 b 139 637 116 694 139 671 b 81 579 139 602 116 579 l 23 579 l 23 116 l 81 116 b 139 58 116 116 139 93 l 139 0 l 486 0 l 486 58 b 544 116 486 93 509 116 l 602 116 l 602 579 l 544 579 b 486 637 509 579 486 602 b 544 694 486 671 509 694 l 602 694 l 602 1042 z m 486 752 b 428 694 486 718 463 694 l 197 694 b 139 752 162 694 139 718 l 139 984 b 197 1042 139 1019 162 1042 l 428 1042 b 486 984 463 1042 486 1019 z m 486 521 l 486 174 b 428 116 486 139 463 116 l 197 116 b 139 174 162 116 139 139 l 139 521 b 197 579 139 556 162 579 l 428 579 b 486 521 463 579 486 556 z "},"9":{"ha":625,"x_min":0,"x_max":0,"o":"m 544 1042 b 486 1100 509 1042 486 1065 l 486 1157 l 139 1157 l 139 1100 b 81 1042 139 1065 116 1042 l 23 1042 l 23 579 l 81 579 b 139 521 116 579 139 556 l 139 463 l 370 463 l 370 521 b 428 579 370 556 394 579 b 486 521 463 579 486 556 l 486 289 b 428 231 486 255 463 231 l 370 231 l 370 174 b 313 116 370 139 347 116 l 23 116 l 23 0 l 370 0 l 370 58 b 428 116 370 93 394 116 l 486 116 l 486 174 b 544 231 486 208 509 231 l 602 231 l 602 1042 z m 486 752 b 428 694 486 718 463 694 l 370 694 l 370 637 b 313 579 370 602 347 579 l 197 579 b 139 637 162 579 139 602 l 139 984 b 197 1042 139 1019 162 1042 l 428 1042 b 486 984 463 1042 486 1019 z "},"\r":{"ha":741,"x_min":0,"x_max":0,"o":""}," ":{"ha":289,"x_min":0,"x_max":0,"o":""},"A":{"ha":1088,"x_min":0,"x_max":0,"o":"m 1007 116 b 949 174 972 116 949 139 l 949 347 l 891 347 b 833 405 856 347 833 370 l 833 694 l 775 694 b 718 752 741 694 718 718 l 718 926 l 660 926 b 602 984 625 926 602 949 l 602 1157 l 486 1157 l 486 984 b 428 926 486 949 463 926 l 370 926 l 370 752 b 313 694 370 718 347 694 l 255 694 l 255 405 b 197 347 255 370 231 347 l 139 347 l 139 174 b 81 116 139 139 116 116 l 23 116 l 23 0 l 370 0 l 370 116 l 313 116 b 255 174 278 116 255 139 l 255 289 b 313 347 255 324 278 347 l 775 347 b 833 289 810 347 833 324 l 833 174 b 775 116 833 139 810 116 l 718 116 l 718 0 l 1065 0 l 1065 116 z m 660 463 l 428 463 b 370 521 394 463 370 486 l 370 637 b 428 694 370 671 394 694 l 486 694 l 486 868 b 544 926 486 903 509 926 b 602 868 579 926 602 903 l 602 694 l 660 694 b 718 637 694 694 718 671 l 718 521 b 660 463 718 486 694 463 z "},"Á":{"ha":1088,"x_min":0,"x_max":0,"o":"m 1007 116 b 949 174 972 116 949 139 l 949 347 l 891 347 b 833 405 856 347 833 370 l 833 694 l 775 694 b 718 752 741 694 718 718 l 718 926 l 660 926 b 602 984 625 926 602 949 l 602 1157 l 486 1157 l 486 984 b 428 926 486 949 463 926 l 370 926 l 370 752 b 313 694 370 718 347 694 l 255 694 l 255 405 b 197 347 255 370 231 347 l 139 347 l 139 174 b 81 116 139 139 116 116 l 23 116 l 23 0 l 370 0 l 370 116 l 313 116 b 255 174 278 116 255 139 l 255 289 b 313 347 255 324 278 347 l 775 347 b 833 289 810 347 833 324 l 833 174 b 775 116 833 139 810 116 l 718 116 l 718 0 l 1065 0 l 1065 116 z m 660 463 l 428 463 b 370 521 394 463 370 486 l 370 637 b 428 694 370 671 394 694 l 486 694 l 486 868 b 544 926 486 903 509 926 b 602 868 579 926 602 903 l 602 694 l 660 694 b 718 637 694 694 718 671 l 718 521 b 660 463 718 486 694 463 z "},"Ă":{"ha":1088,"x_min":0,"x_max":0,"o":"m 1007 116 b 949 174 972 116 949 139 l 949 347 l 891 347 b 833 405 856 347 833 370 l 833 694 l 775 694 b 718 752 741 694 718 718 l 718 926 l 660 926 b 602 984 625 926 602 949 l 602 1157 l 486 1157 l 486 984 b 428 926 486 949 463 926 l 370 926 l 370 752 b 313 694 370 718 347 694 l 255 694 l 255 405 b 197 347 255 370 231 347 l 139 347 l 139 174 b 81 116 139 139 116 116 l 23 116 l 23 0 l 370 0 l 370 116 l 313 116 b 255 174 278 116 255 139 l 255 289 b 313 347 255 324 278 347 l 775 347 b 833 289 810 347 833 324 l 833 174 b 775 116 833 139 810 116 l 718 116 l 718 0 l 1065 0 l 1065 116 z m 660 463 l 428 463 b 370 521 394 463 370 486 l 370 637 b 428 694 370 671 394 694 l 486 694 l 486 868 b 544 926 486 903 509 926 b 602 868 579 926 602 903 l 602 694 l 660 694 b 718 637 694 694 718 671 l 718 521 b 660 463 718 486 694 463 z "},"Â":{"ha":1088,"x_min":0,"x_max":0,"o":"m 1007 116 b 949 174 972 116 949 139 l 949 347 l 891 347 b 833 405 856 347 833 370 l 833 694 l 775 694 b 718 752 741 694 718 718 l 718 926 l 660 926 b 602 984 625 926 602 949 l 602 1157 l 486 1157 l 486 984 b 428 926 486 949 463 926 l 370 926 l 370 752 b 313 694 370 718 347 694 l 255 694 l 255 405 b 197 347 255 370 231 347 l 139 347 l 139 174 b 81 116 139 139 116 116 l 23 116 l 23 0 l 370 0 l 370 116 l 313 116 b 255 174 278 116 255 139 l 255 289 b 313 347 255 324 278 347 l 775 347 b 833 289 810 347 833 324 l 833 174 b 775 116 833 139 810 116 l 718 116 l 718 0 l 1065 0 l 1065 116 z m 660 463 l 428 463 b 370 521 394 463 370 486 l 370 637 b 428 694 370 671 394 694 l 486 694 l 486 868 b 544 926 486 903 509 926 b 602 868 579 926 602 903 l 602 694 l 660 694 b 718 637 694 694 718 671 l 718 521 b 660 463 718 486 694 463 z "},"Ä":{"ha":1088,"x_min":0,"x_max":0,"o":"m 1007 116 b 949 174 972 116 949 139 l 949 347 l 891 347 b 833 405 856 347 833 370 l 833 694 l 775 694 b 718 752 741 694 718 718 l 718 926 l 660 926 b 602 984 625 926 602 949 l 602 1157 l 486 1157 l 486 984 b 428 926 486 949 463 926 l 370 926 l 370 752 b 313 694 370 718 347 694 l 255 694 l 255 405 b 197 347 255 370 231 347 l 139 347 l 139 174 b 81 116 139 139 116 116 l 23 116 l 23 0 l 370 0 l 370 116 l 313 116 b 255 174 278 116 255 139 l 255 289 b 313 347 255 324 278 347 l 775 347 b 833 289 810 347 833 324 l 833 174 b 775 116 833 139 810 116 l 718 116 l 718 0 l 1065 0 l 1065 116 z m 660 463 l 428 463 b 370 521 394 463 370 486 l 370 637 b 428 694 370 671 394 694 l 486 694 l 486 868 b 544 926 486 903 509 926 b 602 868 579 926 602 903 l 602 694 l 660 694 b 718 637 694 694 718 671 l 718 521 b 660 463 718 486 694 463 z "},"À":{"ha":1088,"x_min":0,"x_max":0,"o":"m 1007 116 b 949 174 972 116 949 139 l 949 347 l 891 347 b 833 405 856 347 833 370 l 833 694 l 775 694 b 718 752 741 694 718 718 l 718 926 l 660 926 b 602 984 625 926 602 949 l 602 1157 l 486 1157 l 486 984 b 428 926 486 949 463 926 l 370 926 l 370 752 b 313 694 370 718 347 694 l 255 694 l 255 405 b 197 347 255 370 231 347 l 139 347 l 139 174 b 81 116 139 139 116 116 l 23 116 l 23 0 l 370 0 l 370 116 l 313 116 b 255 174 278 116 255 139 l 255 289 b 313 347 255 324 278 347 l 775 347 b 833 289 810 347 833 324 l 833 174 b 775 116 833 139 810 116 l 718 116 l 718 0 l 1065 0 l 1065 116 z m 660 463 l 428 463 b 370 521 394 463 370 486 l 370 637 b 428 694 370 671 394 694 l 486 694 l 486 868 b 544 926 486 903 509 926 b 602 868 579 926 602 903 l 602 694 l 660 694 b 718 637 694 694 718 671 l 718 521 b 660 463 718 486 694 463 z "},"Ā":{"ha":1088,"x_min":0,"x_max":0,"o":"m 1007 116 b 949 174 972 116 949 139 l 949 347 l 891 347 b 833 405 856 347 833 370 l 833 694 l 775 694 b 718 752 741 694 718 718 l 718 926 l 660 926 b 602 984 625 926 602 949 l 602 1157 l 486 1157 l 486 984 b 428 926 486 949 463 926 l 370 926 l 370 752 b 313 694 370 718 347 694 l 255 694 l 255 405 b 197 347 255 370 231 347 l 139 347 l 139 174 b 81 116 139 139 116 116 l 23 116 l 23 0 l 370 0 l 370 116 l 313 116 b 255 174 278 116 255 139 l 255 289 b 313 347 255 324 278 347 l 775 347 b 833 289 810 347 833 324 l 833 174 b 775 116 833 139 810 116 l 718 116 l 718 0 l 1065 0 l 1065 116 z m 660 463 l 428 463 b 370 521 394 463 370 486 l 370 637 b 428 694 370 671 394 694 l 486 694 l 486 868 b 544 926 486 903 509 926 b 602 868 579 926 602 903 l 602 694 l 660 694 b 718 637 694 694 718 671 l 718 521 b 660 463 718 486 694 463 z "},"Ą":{"ha":1088,"x_min":0,"x_max":0,"o":"m 1007 116 b 949 174 972 116 949 139 l 949 347 l 891 347 b 833 405 856 347 833 370 l 833 694 l 775 694 b 718 752 741 694 718 718 l 718 926 l 660 926 b 602 984 625 926 602 949 l 602 1157 l 486 1157 l 486 984 b 428 926 486 949 463 926 l 370 926 l 370 752 b 313 694 370 718 347 694 l 255 694 l 255 405 b 197 347 255 370 231 347 l 139 347 l 139 174 b 81 116 139 139 116 116 l 23 116 l 23 0 l 370 0 l 370 116 l 313 116 b 255 174 278 116 255 139 l 255 289 b 313 347 255 324 278 347 l 775 347 b 833 289 810 347 833 324 l 833 174 b 775 116 833 139 810 116 l 718 116 l 718 0 l 1065 0 l 1065 116 z m 660 463 l 428 463 b 370 521 394 463 370 486 l 370 637 b 428 694 370 671 394 694 l 486 694 l 486 868 b 544 926 486 903 509 926 b 602 868 579 926 602 903 l 602 694 l 660 694 b 718 637 694 694 718 671 l 718 521 b 660 463 718 486 694 463 z "},"Å":{"ha":1088,"x_min":0,"x_max":0,"o":"m 1007 116 b 949 174 972 116 949 139 l 949 347 l 891 347 b 833 405 856 347 833 370 l 833 694 l 775 694 b 718 752 741 694 718 718 l 718 926 l 660 926 b 602 984 625 926 602 949 l 602 1157 l 486 1157 l 486 984 b 428 926 486 949 463 926 l 370 926 l 370 752 b 313 694 370 718 347 694 l 255 694 l 255 405 b 197 347 255 370 231 347 l 139 347 l 139 174 b 81 116 139 139 116 116 l 23 116 l 23 0 l 370 0 l 370 116 l 313 116 b 255 174 278 116 255 139 l 255 289 b 313 347 255 324 278 347 l 775 347 b 833 289 810 347 833 324 l 833 174 b 775 116 833 139 810 116 l 718 116 l 718 0 l 1065 0 l 1065 116 z m 660 463 l 428 463 b 370 521 394 463 370 486 l 370 637 b 428 694 370 671 394 694 l 486 694 l 486 868 b 544 926 486 903 509 926 b 602 868 579 926 602 903 l 602 694 l 660 694 b 718 637 694 694 718 671 l 718 521 b 660 463 718 486 694 463 z "},"Ã":{"ha":1088,"x_min":0,"x_max":0,"o":"m 1007 116 b 949 174 972 116 949 139 l 949 347 l 891 347 b 833 405 856 347 833 370 l 833 694 l 775 694 b 718 752 741 694 718 718 l 718 926 l 660 926 b 602 984 625 926 602 949 l 602 1157 l 486 1157 l 486 984 b 428 926 486 949 463 926 l 370 926 l 370 752 b 313 694 370 718 347 694 l 255 694 l 255 405 b 197 347 255 370 231 347 l 139 347 l 139 174 b 81 116 139 139 116 116 l 23 116 l 23 0 l 370 0 l 370 116 l 313 116 b 255 174 278 116 255 139 l 255 289 b 313 347 255 324 278 347 l 775 347 b 833 289 810 347 833 324 l 833 174 b 775 116 833 139 810 116 l 718 116 l 718 0 l 1065 0 l 1065 116 z m 660 463 l 428 463 b 370 521 394 463 370 486 l 370 637 b 428 694 370 671 394 694 l 486 694 l 486 868 b 544 926 486 903 509 926 b 602 868 579 926 602 903 l 602 694 l 660 694 b 718 637 694 694 718 671 l 718 521 b 660 463 718 486 694 463 z "},"Æ":{"ha":1088,"x_min":0,"x_max":0,"o":"m 1007 116 b 949 174 972 116 949 139 l 949 347 l 891 347 b 833 405 856 347 833 370 l 833 694 l 775 694 b 718 752 741 694 718 718 l 718 926 l 660 926 b 602 984 625 926 602 949 l 602 1157 l 486 1157 l 486 984 b 428 926 486 949 463 926 l 370 926 l 370 752 b 313 694 370 718 347 694 l 255 694 l 255 405 b 197 347 255 370 231 347 l 139 347 l 139 174 b 81 116 139 139 116 116 l 23 116 l 23 0 l 370 0 l 370 116 l 313 116 b 255 174 278 116 255 139 l 255 289 b 313 347 255 324 278 347 l 775 347 b 833 289 810 347 833 324 l 833 174 b 775 116 833 139 810 116 l 718 116 l 718 0 l 1065 0 l 1065 116 z m 660 463 l 428 463 b 370 521 394 463 370 486 l 370 637 b 428 694 370 671 394 694 l 486 694 l 486 868 b 544 926 486 903 509 926 b 602 868 579 926 602 903 l 602 694 l 660 694 b 718 637 694 694 718 671 l 718 521 b 660 463 718 486 694 463 z "},"B":{"ha":972,"x_min":0,"x_max":0,"o":"m 891 463 b 833 521 856 463 833 486 l 833 579 l 775 579 b 718 637 741 579 718 602 b 775 694 718 671 741 694 l 833 694 l 833 1042 l 775 1042 b 718 1100 741 1042 718 1065 l 718 1157 l 23 1157 l 23 1042 l 81 1042 b 139 984 116 1042 139 1019 l 139 174 b 81 116 139 139 116 116 l 23 116 l 23 0 l 718 0 l 718 58 b 775 116 718 93 741 116 l 833 116 l 833 174 b 891 231 833 208 856 231 l 949 231 l 949 463 z m 255 984 b 313 1042 255 1019 278 1042 l 660 1042 b 718 984 694 1042 718 1019 l 718 752 b 660 694 718 718 694 694 l 313 694 b 255 752 278 694 255 718 z m 833 289 b 775 231 833 255 810 231 l 718 231 l 718 174 b 660 116 718 139 694 116 l 313 116 b 255 174 278 116 255 139 l 255 521 b 313 579 255 556 278 579 l 660 579 b 718 521 694 579 718 556 l 718 463 l 775 463 b 833 405 810 463 833 440 z "},"C":{"ha":972,"x_min":0,"x_max":0,"o":"m 833 1100 b 775 1042 833 1065 810 1042 b 718 1100 741 1042 718 1065 l 718 1157 l 255 1157 l 255 1100 b 197 1042 255 1065 231 1042 l 139 1042 l 139 984 b 81 926 139 949 116 926 l 23 926 l 23 231 l 81 231 b 139 174 116 231 139 208 l 139 116 l 197 116 b 255 58 231 116 255 93 l 255 0 l 718 0 l 718 58 b 775 116 718 93 741 116 l 833 116 l 833 174 b 891 231 833 208 856 231 l 949 231 l 949 347 l 833 347 l 833 289 b 775 231 833 255 810 231 l 718 231 l 718 174 b 660 116 718 139 694 116 l 313 116 b 255 174 278 116 255 139 l 255 231 l 197 231 b 139 289 162 231 139 255 l 139 868 b 197 926 139 903 162 926 l 255 926 l 255 984 b 313 1042 255 1019 278 1042 l 660 1042 b 718 984 694 1042 718 1019 l 718 926 l 775 926 b 833 868 810 926 833 903 l 833 810 l 949 810 l 949 1157 l 833 1157 z "},"Ć":{"ha":972,"x_min":0,"x_max":0,"o":"m 833 1100 b 775 1042 833 1065 810 1042 b 718 1100 741 1042 718 1065 l 718 1157 l 255 1157 l 255 1100 b 197 1042 255 1065 231 1042 l 139 1042 l 139 984 b 81 926 139 949 116 926 l 23 926 l 23 231 l 81 231 b 139 174 116 231 139 208 l 139 116 l 197 116 b 255 58 231 116 255 93 l 255 0 l 718 0 l 718 58 b 775 116 718 93 741 116 l 833 116 l 833 174 b 891 231 833 208 856 231 l 949 231 l 949 347 l 833 347 l 833 289 b 775 231 833 255 810 231 l 718 231 l 718 174 b 660 116 718 139 694 116 l 313 116 b 255 174 278 116 255 139 l 255 231 l 197 231 b 139 289 162 231 139 255 l 139 868 b 197 926 139 903 162 926 l 255 926 l 255 984 b 313 1042 255 1019 278 1042 l 660 1042 b 718 984 694 1042 718 1019 l 718 926 l 775 926 b 833 868 810 926 833 903 l 833 810 l 949 810 l 949 1157 l 833 1157 z "},"Č":{"ha":972,"x_min":0,"x_max":0,"o":"m 833 1100 b 775 1042 833 1065 810 1042 b 718 1100 741 1042 718 1065 l 718 1157 l 255 1157 l 255 1100 b 197 1042 255 1065 231 1042 l 139 1042 l 139 984 b 81 926 139 949 116 926 l 23 926 l 23 231 l 81 231 b 139 174 116 231 139 208 l 139 116 l 197 116 b 255 58 231 116 255 93 l 255 0 l 718 0 l 718 58 b 775 116 718 93 741 116 l 833 116 l 833 174 b 891 231 833 208 856 231 l 949 231 l 949 347 l 833 347 l 833 289 b 775 231 833 255 810 231 l 718 231 l 718 174 b 660 116 718 139 694 116 l 313 116 b 255 174 278 116 255 139 l 255 231 l 197 231 b 139 289 162 231 139 255 l 139 868 b 197 926 139 903 162 926 l 255 926 l 255 984 b 313 1042 255 1019 278 1042 l 660 1042 b 718 984 694 1042 718 1019 l 718 926 l 775 926 b 833 868 810 926 833 903 l 833 810 l 949 810 l 949 1157 l 833 1157 z "},"Ç":{"ha":972,"x_min":0,"x_max":0,"o":"m 833 1100 b 775 1042 833 1065 810 1042 b 718 1100 741 1042 718 1065 l 718 1157 l 255 1157 l 255 1100 b 197 1042 255 1065 231 1042 l 139 1042 l 139 984 b 81 926 139 949 116 926 l 23 926 l 23 231 l 81 231 b 139 174 116 231 139 208 l 139 116 l 197 116 b 255 58 231 116 255 93 l 255 0 l 718 0 l 718 58 b 775 116 718 93 741 116 l 833 116 l 833 174 b 891 231 833 208 856 231 l 949 231 l 949 347 l 833 347 l 833 289 b 775 231 833 255 810 231 l 718 231 l 718 174 b 660 116 718 139 694 116 l 313 116 b 255 174 278 116 255 139 l 255 231 l 197 231 b 139 289 162 231 139 255 l 139 868 b 197 926 139 903 162 926 l 255 926 l 255 984 b 313 1042 255 1019 278 1042 l 660 1042 b 718 984 694 1042 718 1019 l 718 926 l 775 926 b 833 868 810 926 833 903 l 833 810 l 949 810 l 949 1157 l 833 1157 z "},"Ċ":{"ha":972,"x_min":0,"x_max":0,"o":"m 833 1100 b 775 1042 833 1065 810 1042 b 718 1100 741 1042 718 1065 l 718 1157 l 255 1157 l 255 1100 b 197 1042 255 1065 231 1042 l 139 1042 l 139 984 b 81 926 139 949 116 926 l 23 926 l 23 231 l 81 231 b 139 174 116 231 139 208 l 139 116 l 197 116 b 255 58 231 116 255 93 l 255 0 l 718 0 l 718 58 b 775 116 718 93 741 116 l 833 116 l 833 174 b 891 231 833 208 856 231 l 949 231 l 949 347 l 833 347 l 833 289 b 775 231 833 255 810 231 l 718 231 l 718 174 b 660 116 718 139 694 116 l 313 116 b 255 174 278 116 255 139 l 255 231 l 197 231 b 139 289 162 231 139 255 l 139 868 b 197 926 139 903 162 926 l 255 926 l 255 984 b 313 1042 255 1019 278 1042 l 660 1042 b 718 984 694 1042 718 1019 l 718 926 l 775 926 b 833 868 810 926 833 903 l 833 810 l 949 810 l 949 1157 l 833 1157 z "},"D":{"ha":1088,"x_min":0,"x_max":0,"o":"m 1007 810 b 949 868 972 810 949 833 l 949 926 l 891 926 b 833 984 856 926 833 949 l 833 1042 l 775 1042 b 718 1100 741 1042 718 1065 l 718 1157 l 23 1157 l 23 1042 l 81 1042 b 139 984 116 1042 139 1019 l 139 174 b 81 116 139 139 116 116 l 23 116 l 23 0 l 718 0 l 718 58 b 775 116 718 93 741 116 l 833 116 l 833 174 b 891 231 833 208 856 231 l 949 231 l 949 289 b 1007 347 949 324 972 347 l 1065 347 l 1065 810 z m 949 752 l 949 405 b 891 347 949 370 926 347 l 833 347 l 833 289 b 775 231 833 255 810 231 l 718 231 l 718 174 b 660 116 718 139 694 116 l 313 116 b 255 174 278 116 255 139 l 255 984 b 313 1042 255 1019 278 1042 l 660 1042 b 718 984 694 1042 718 1019 l 718 926 l 775 926 b 833 868 810 926 833 903 l 833 810 l 891 810 b 949 752 926 810 949 787 z "},"Ð":{"ha":1088,"x_min":0,"x_max":0,"o":"m 1007 810 b 949 868 972 810 949 833 l 949 926 l 891 926 b 833 984 856 926 833 949 l 833 1042 l 775 1042 b 718 1100 741 1042 718 1065 l 718 1157 l 23 1157 l 23 1042 l 81 1042 b 139 984 116 1042 139 1019 l 139 174 b 81 116 139 139 116 116 l 23 116 l 23 0 l 718 0 l 718 58 b 775 116 718 93 741 116 l 833 116 l 833 174 b 891 231 833 208 856 231 l 949 231 l 949 289 b 1007 347 949 324 972 347 l 1065 347 l 1065 810 z m 949 752 l 949 405 b 891 347 949 370 926 347 l 833 347 l 833 289 b 775 231 833 255 810 231 l 718 231 l 718 174 b 660 116 718 139 694 116 l 313 116 b 255 174 278 116 255 139 l 255 984 b 313 1042 255 1019 278 1042 l 660 1042 b 718 984 694 1042 718 1019 l 718 926 l 775 926 b 833 868 810 926 833 903 l 833 810 l 891 810 b 949 752 926 810 949 787 z "},"Ď":{"ha":1088,"x_min":0,"x_max":0,"o":"m 1007 810 b 949 868 972 810 949 833 l 949 926 l 891 926 b 833 984 856 926 833 949 l 833 1042 l 775 1042 b 718 1100 741 1042 718 1065 l 718 1157 l 23 1157 l 23 1042 l 81 1042 b 139 984 116 1042 139 1019 l 139 174 b 81 116 139 139 116 116 l 23 116 l 23 0 l 718 0 l 718 58 b 775 116 718 93 741 116 l 833 116 l 833 174 b 891 231 833 208 856 231 l 949 231 l 949 289 b 1007 347 949 324 972 347 l 1065 347 l 1065 810 z m 949 752 l 949 405 b 891 347 949 370 926 347 l 833 347 l 833 289 b 775 231 833 255 810 231 l 718 231 l 718 174 b 660 116 718 139 694 116 l 313 116 b 255 174 278 116 255 139 l 255 984 b 313 1042 255 1019 278 1042 l 660 1042 b 718 984 694 1042 718 1019 l 718 926 l 775 926 b 833 868 810 926 833 903 l 833 810 l 891 810 b 949 752 926 810 949 787 z "},"Đ":{"ha":1088,"x_min":0,"x_max":0,"o":"m 1007 810 b 949 868 972 810 949 833 l 949 926 l 891 926 b 833 984 856 926 833 949 l 833 1042 l 775 1042 b 718 1100 741 1042 718 1065 l 718 1157 l 23 1157 l 23 1042 l 81 1042 b 139 984 116 1042 139 1019 l 139 174 b 81 116 139 139 116 116 l 23 116 l 23 0 l 718 0 l 718 58 b 775 116 718 93 741 116 l 833 116 l 833 174 b 891 231 833 208 856 231 l 949 231 l 949 289 b 1007 347 949 324 972 347 l 1065 347 l 1065 810 z m 949 752 l 949 405 b 891 347 949 370 926 347 l 833 347 l 833 289 b 775 231 833 255 810 231 l 718 231 l 718 174 b 660 116 718 139 694 116 l 313 116 b 255 174 278 116 255 139 l 255 984 b 313 1042 255 1019 278 1042 l 660 1042 b 718 984 694 1042 718 1019 l 718 926 l 775 926 b 833 868 810 926 833 903 l 833 810 l 891 810 b 949 752 926 810 949 787 z "},"E":{"ha":972,"x_min":0,"x_max":0,"o":"m 833 289 b 775 231 833 255 810 231 l 718 231 l 718 174 b 660 116 718 139 694 116 l 313 116 b 255 174 278 116 255 139 l 255 521 b 313 579 255 556 278 579 l 428 579 b 486 521 463 579 486 556 l 486 463 l 602 463 l 602 810 l 486 810 l 486 752 b 428 694 486 718 463 694 l 313 694 b 255 752 278 694 255 718 l 255 984 b 313 1042 255 1019 278 1042 l 660 1042 b 718 984 694 1042 718 1019 l 718 926 l 833 926 l 833 1157 l 23 1157 l 23 1042 l 81 1042 b 139 984 116 1042 139 1019 l 139 174 b 81 116 139 139 116 116 l 23 116 l 23 0 l 833 0 l 833 174 b 891 231 833 208 856 231 l 949 231 l 949 347 l 833 347 z "},"É":{"ha":972,"x_min":0,"x_max":0,"o":"m 833 289 b 775 231 833 255 810 231 l 718 231 l 718 174 b 660 116 718 139 694 116 l 313 116 b 255 174 278 116 255 139 l 255 521 b 313 579 255 556 278 579 l 428 579 b 486 521 463 579 486 556 l 486 463 l 602 463 l 602 810 l 486 810 l 486 752 b 428 694 486 718 463 694 l 313 694 b 255 752 278 694 255 718 l 255 984 b 313 1042 255 1019 278 1042 l 660 1042 b 718 984 694 1042 718 1019 l 718 926 l 833 926 l 833 1157 l 23 1157 l 23 1042 l 81 1042 b 139 984 116 1042 139 1019 l 139 174 b 81 116 139 139 116 116 l 23 116 l 23 0 l 833 0 l 833 174 b 891 231 833 208 856 231 l 949 231 l 949 347 l 833 347 z "},"Ě":{"ha":972,"x_min":0,"x_max":0,"o":"m 833 289 b 775 231 833 255 810 231 l 718 231 l 718 174 b 660 116 718 139 694 116 l 313 116 b 255 174 278 116 255 139 l 255 521 b 313 579 255 556 278 579 l 428 579 b 486 521 463 579 486 556 l 486 463 l 602 463 l 602 810 l 486 810 l 486 752 b 428 694 486 718 463 694 l 313 694 b 255 752 278 694 255 718 l 255 984 b 313 1042 255 1019 278 1042 l 660 1042 b 718 984 694 1042 718 1019 l 718 926 l 833 926 l 833 1157 l 23 1157 l 23 1042 l 81 1042 b 139 984 116 1042 139 1019 l 139 174 b 81 116 139 139 116 116 l 23 116 l 23 0 l 833 0 l 833 174 b 891 231 833 208 856 231 l 949 231 l 949 347 l 833 347 z "},"Ê":{"ha":972,"x_min":0,"x_max":0,"o":"m 833 289 b 775 231 833 255 810 231 l 718 231 l 718 174 b 660 116 718 139 694 116 l 313 116 b 255 174 278 116 255 139 l 255 521 b 313 579 255 556 278 579 l 428 579 b 486 521 463 579 486 556 l 486 463 l 602 463 l 602 810 l 486 810 l 486 752 b 428 694 486 718 463 694 l 313 694 b 255 752 278 694 255 718 l 255 984 b 313 1042 255 1019 278 1042 l 660 1042 b 718 984 694 1042 718 1019 l 718 926 l 833 926 l 833 1157 l 23 1157 l 23 1042 l 81 1042 b 139 984 116 1042 139 1019 l 139 174 b 81 116 139 139 116 116 l 23 116 l 23 0 l 833 0 l 833 174 b 891 231 833 208 856 231 l 949 231 l 949 347 l 833 347 z "},"Ë":{"ha":972,"x_min":0,"x_max":0,"o":"m 833 289 b 775 231 833 255 810 231 l 718 231 l 718 174 b 660 116 718 139 694 116 l 313 116 b 255 174 278 116 255 139 l 255 521 b 313 579 255 556 278 579 l 428 579 b 486 521 463 579 486 556 l 486 463 l 602 463 l 602 810 l 486 810 l 486 752 b 428 694 486 718 463 694 l 313 694 b 255 752 278 694 255 718 l 255 984 b 313 1042 255 1019 278 1042 l 660 1042 b 718 984 694 1042 718 1019 l 718 926 l 833 926 l 833 1157 l 23 1157 l 23 1042 l 81 1042 b 139 984 116 1042 139 1019 l 139 174 b 81 116 139 139 116 116 l 23 116 l 23 0 l 833 0 l 833 174 b 891 231 833 208 856 231 l 949 231 l 949 347 l 833 347 z "},"Ė":{"ha":972,"x_min":0,"x_max":0,"o":"m 833 289 b 775 231 833 255 810 231 l 718 231 l 718 174 b 660 116 718 139 694 116 l 313 116 b 255 174 278 116 255 139 l 255 521 b 313 579 255 556 278 579 l 428 579 b 486 521 463 579 486 556 l 486 463 l 602 463 l 602 810 l 486 810 l 486 752 b 428 694 486 718 463 694 l 313 694 b 255 752 278 694 255 718 l 255 984 b 313 1042 255 1019 278 1042 l 660 1042 b 718 984 694 1042 718 1019 l 718 926 l 833 926 l 833 1157 l 23 1157 l 23 1042 l 81 1042 b 139 984 116 1042 139 1019 l 139 174 b 81 116 139 139 116 116 l 23 116 l 23 0 l 833 0 l 833 174 b 891 231 833 208 856 231 l 949 231 l 949 347 l 833 347 z "},"È":{"ha":972,"x_min":0,"x_max":0,"o":"m 833 289 b 775 231 833 255 810 231 l 718 231 l 718 174 b 660 116 718 139 694 116 l 313 116 b 255 174 278 116 255 139 l 255 521 b 313 579 255 556 278 579 l 428 579 b 486 521 463 579 486 556 l 486 463 l 602 463 l 602 810 l 486 810 l 486 752 b 428 694 486 718 463 694 l 313 694 b 255 752 278 694 255 718 l 255 984 b 313 1042 255 1019 278 1042 l 660 1042 b 718 984 694 1042 718 1019 l 718 926 l 833 926 l 833 1157 l 23 1157 l 23 1042 l 81 1042 b 139 984 116 1042 139 1019 l 139 174 b 81 116 139 139 116 116 l 23 116 l 23 0 l 833 0 l 833 174 b 891 231 833 208 856 231 l 949 231 l 949 347 l 833 347 z "},"Ē":{"ha":972,"x_min":0,"x_max":0,"o":"m 833 289 b 775 231 833 255 810 231 l 718 231 l 718 174 b 660 116 718 139 694 116 l 313 116 b 255 174 278 116 255 139 l 255 521 b 313 579 255 556 278 579 l 428 579 b 486 521 463 579 486 556 l 486 463 l 602 463 l 602 810 l 486 810 l 486 752 b 428 694 486 718 463 694 l 313 694 b 255 752 278 694 255 718 l 255 984 b 313 1042 255 1019 278 1042 l 660 1042 b 718 984 694 1042 718 1019 l 718 926 l 833 926 l 833 1157 l 23 1157 l 23 1042 l 81 1042 b 139 984 116 1042 139 1019 l 139 174 b 81 116 139 139 116 116 l 23 116 l 23 0 l 833 0 l 833 174 b 891 231 833 208 856 231 l 949 231 l 949 347 l 833 347 z "},"Ę":{"ha":972,"x_min":0,"x_max":0,"o":"m 833 289 b 775 231 833 255 810 231 l 718 231 l 718 174 b 660 116 718 139 694 116 l 313 116 b 255 174 278 116 255 139 l 255 521 b 313 579 255 556 278 579 l 428 579 b 486 521 463 579 486 556 l 486 463 l 602 463 l 602 810 l 486 810 l 486 752 b 428 694 486 718 463 694 l 313 694 b 255 752 278 694 255 718 l 255 984 b 313 1042 255 1019 278 1042 l 660 1042 b 718 984 694 1042 718 1019 l 718 926 l 833 926 l 833 1157 l 23 1157 l 23 1042 l 81 1042 b 139 984 116 1042 139 1019 l 139 174 b 81 116 139 139 116 116 l 23 116 l 23 0 l 833 0 l 833 174 b 891 231 833 208 856 231 l 949 231 l 949 347 l 833 347 z "},"F":{"ha":856,"x_min":0,"x_max":0,"o":"m 833 1157 l 23 1157 l 23 1042 l 81 1042 b 139 984 116 1042 139 1019 l 139 174 b 81 116 139 139 116 116 l 23 116 l 23 0 l 486 0 l 486 116 l 313 116 b 255 174 278 116 255 139 l 255 521 b 313 579 255 556 278 579 l 428 579 b 486 521 463 579 486 556 l 486 463 l 602 463 l 602 810 l 486 810 l 486 752 b 428 694 486 718 463 694 l 313 694 b 255 752 278 694 255 718 l 255 984 b 313 1042 255 1019 278 1042 l 660 1042 b 718 984 694 1042 718 1019 l 718 926 l 833 926 z "},"G":{"ha":1088,"x_min":0,"x_max":0,"o":"m 1065 579 l 718 579 l 718 463 l 775 463 b 833 405 810 463 833 440 l 833 174 b 775 116 833 139 810 116 l 313 116 b 255 174 278 116 255 139 l 255 231 l 197 231 b 139 289 162 231 139 255 l 139 868 b 197 926 139 903 162 926 l 255 926 l 255 984 b 313 1042 255 1019 278 1042 l 660 1042 b 718 984 694 1042 718 1019 l 718 926 l 775 926 b 833 868 810 926 833 903 l 833 810 l 949 810 l 949 1157 l 833 1157 l 833 1100 b 775 1042 833 1065 810 1042 b 718 1100 741 1042 718 1065 l 718 1157 l 255 1157 l 255 1100 b 197 1042 255 1065 231 1042 l 139 1042 l 139 984 b 81 926 139 949 116 926 l 23 926 l 23 231 l 81 231 b 139 174 116 231 139 208 l 139 116 l 197 116 b 255 58 231 116 255 93 l 255 0 l 833 0 l 833 58 b 891 116 833 93 856 116 l 949 116 l 949 405 b 1007 463 949 440 972 463 l 1065 463 z "},"Ğ":{"ha":1088,"x_min":0,"x_max":0,"o":"m 1065 579 l 718 579 l 718 463 l 775 463 b 833 405 810 463 833 440 l 833 174 b 775 116 833 139 810 116 l 313 116 b 255 174 278 116 255 139 l 255 231 l 197 231 b 139 289 162 231 139 255 l 139 868 b 197 926 139 903 162 926 l 255 926 l 255 984 b 313 1042 255 1019 278 1042 l 660 1042 b 718 984 694 1042 718 1019 l 718 926 l 775 926 b 833 868 810 926 833 903 l 833 810 l 949 810 l 949 1157 l 833 1157 l 833 1100 b 775 1042 833 1065 810 1042 b 718 1100 741 1042 718 1065 l 718 1157 l 255 1157 l 255 1100 b 197 1042 255 1065 231 1042 l 139 1042 l 139 984 b 81 926 139 949 116 926 l 23 926 l 23 231 l 81 231 b 139 174 116 231 139 208 l 139 116 l 197 116 b 255 58 231 116 255 93 l 255 0 l 833 0 l 833 58 b 891 116 833 93 856 116 l 949 116 l 949 405 b 1007 463 949 440 972 463 l 1065 463 z "},"Ģ":{"ha":1088,"x_min":0,"x_max":0,"o":"m 1065 579 l 718 579 l 718 463 l 775 463 b 833 405 810 463 833 440 l 833 174 b 775 116 833 139 810 116 l 313 116 b 255 174 278 116 255 139 l 255 231 l 197 231 b 139 289 162 231 139 255 l 139 868 b 197 926 139 903 162 926 l 255 926 l 255 984 b 313 1042 255 1019 278 1042 l 660 1042 b 718 984 694 1042 718 1019 l 718 926 l 775 926 b 833 868 810 926 833 903 l 833 810 l 949 810 l 949 1157 l 833 1157 l 833 1100 b 775 1042 833 1065 810 1042 b 718 1100 741 1042 718 1065 l 718 1157 l 255 1157 l 255 1100 b 197 1042 255 1065 231 1042 l 139 1042 l 139 984 b 81 926 139 949 116 926 l 23 926 l 23 231 l 81 231 b 139 174 116 231 139 208 l 139 116 l 197 116 b 255 58 231 116 255 93 l 255 0 l 833 0 l 833 58 b 891 116 833 93 856 116 l 949 116 l 949 405 b 1007 463 949 440 972 463 l 1065 463 z "},"Ġ":{"ha":1088,"x_min":0,"x_max":0,"o":"m 1065 579 l 718 579 l 718 463 l 775 463 b 833 405 810 463 833 440 l 833 174 b 775 116 833 139 810 116 l 313 116 b 255 174 278 116 255 139 l 255 231 l 197 231 b 139 289 162 231 139 255 l 139 868 b 197 926 139 903 162 926 l 255 926 l 255 984 b 313 1042 255 1019 278 1042 l 660 1042 b 718 984 694 1042 718 1019 l 718 926 l 775 926 b 833 868 810 926 833 903 l 833 810 l 949 810 l 949 1157 l 833 1157 l 833 1100 b 775 1042 833 1065 810 1042 b 718 1100 741 1042 718 1065 l 718 1157 l 255 1157 l 255 1100 b 197 1042 255 1065 231 1042 l 139 1042 l 139 984 b 81 926 139 949 116 926 l 23 926 l 23 231 l 81 231 b 139 174 116 231 139 208 l 139 116 l 197 116 b 255 58 231 116 255 93 l 255 0 l 833 0 l 833 58 b 891 116 833 93 856 116 l 949 116 l 949 405 b 1007 463 949 440 972 463 l 1065 463 z "},"H":{"ha":1088,"x_min":0,"x_max":0,"o":"m 949 174 l 949 984 b 1007 1042 949 1019 972 1042 l 1065 1042 l 1065 1157 l 718 1157 l 718 1042 l 775 1042 b 833 984 810 1042 833 1019 l 833 752 b 775 694 833 718 810 694 l 313 694 b 255 752 278 694 255 718 l 255 984 b 313 1042 255 1019 278 1042 l 370 1042 l 370 1157 l 23 1157 l 23 1042 l 81 1042 b 139 984 116 1042 139 1019 l 139 174 b 81 116 139 139 116 116 l 23 116 l 23 0 l 370 0 l 370 116 l 313 116 b 255 174 278 116 255 139 l 255 521 b 313 579 255 556 278 579 l 775 579 b 833 521 810 579 833 556 l 833 174 b 775 116 833 139 810 116 l 718 116 l 718 0 l 1065 0 l 1065 116 l 1007 116 b 949 174 972 116 949 139 z "},"Ħ":{"ha":1088,"x_min":0,"x_max":0,"o":"m 949 174 l 949 984 b 1007 1042 949 1019 972 1042 l 1065 1042 l 1065 1157 l 718 1157 l 718 1042 l 775 1042 b 833 984 810 1042 833 1019 l 833 752 b 775 694 833 718 810 694 l 313 694 b 255 752 278 694 255 718 l 255 984 b 313 1042 255 1019 278 1042 l 370 1042 l 370 1157 l 23 1157 l 23 1042 l 81 1042 b 139 984 116 1042 139 1019 l 139 174 b 81 116 139 139 116 116 l 23 116 l 23 0 l 370 0 l 370 116 l 313 116 b 255 174 278 116 255 139 l 255 521 b 313 579 255 556 278 579 l 775 579 b 833 521 810 579 833 556 l 833 174 b 775 116 833 139 810 116 l 718 116 l 718 0 l 1065 0 l 1065 116 l 1007 116 b 949 174 972 116 949 139 z "},"I":{"ha":394,"x_min":0,"x_max":0,"o":"m 255 174 l 255 984 b 313 1042 255 1019 278 1042 l 370 1042 l 370 1157 l 23 1157 l 23 1042 l 81 1042 b 139 984 116 1042 139 1019 l 139 174 b 81 116 139 139 116 116 l 23 116 l 23 0 l 370 0 l 370 116 l 313 116 b 255 174 278 116 255 139 z "},"Í":{"ha":394,"x_min":0,"x_max":0,"o":"m 255 174 l 255 984 b 313 1042 255 1019 278 1042 l 370 1042 l 370 1157 l 23 1157 l 23 1042 l 81 1042 b 139 984 116 1042 139 1019 l 139 174 b 81 116 139 139 116 116 l 23 116 l 23 0 l 370 0 l 370 116 l 313 116 b 255 174 278 116 255 139 z "},"Î":{"ha":394,"x_min":0,"x_max":0,"o":"m 255 174 l 255 984 b 313 1042 255 1019 278 1042 l 370 1042 l 370 1157 l 23 1157 l 23 1042 l 81 1042 b 139 984 116 1042 139 1019 l 139 174 b 81 116 139 139 116 116 l 23 116 l 23 0 l 370 0 l 370 116 l 313 116 b 255 174 278 116 255 139 z "},"Ï":{"ha":394,"x_min":0,"x_max":0,"o":"m 255 174 l 255 984 b 313 1042 255 1019 278 1042 l 370 1042 l 370 1157 l 23 1157 l 23 1042 l 81 1042 b 139 984 116 1042 139 1019 l 139 174 b 81 116 139 139 116 116 l 23 116 l 23 0 l 370 0 l 370 116 l 313 116 b 255 174 278 116 255 139 z "},"İ":{"ha":394,"x_min":0,"x_max":0,"o":"m 255 174 l 255 984 b 313 1042 255 1019 278 1042 l 370 1042 l 370 1157 l 23 1157 l 23 1042 l 81 1042 b 139 984 116 1042 139 1019 l 139 174 b 81 116 139 139 116 116 l 23 116 l 23 0 l 370 0 l 370 116 l 313 116 b 255 174 278 116 255 139 z "},"Ì":{"ha":394,"x_min":0,"x_max":0,"o":"m 255 174 l 255 984 b 313 1042 255 1019 278 1042 l 370 1042 l 370 1157 l 23 1157 l 23 1042 l 81 1042 b 139 984 116 1042 139 1019 l 139 174 b 81 116 139 139 116 116 l 23 116 l 23 0 l 370 0 l 370 116 l 313 116 b 255 174 278 116 255 139 z "},"Ī":{"ha":394,"x_min":0,"x_max":0,"o":"m 255 174 l 255 984 b 313 1042 255 1019 278 1042 l 370 1042 l 370 1157 l 23 1157 l 23 1042 l 81 1042 b 139 984 116 1042 139 1019 l 139 174 b 81 116 139 139 116 116 l 23 116 l 23 0 l 370 0 l 370 116 l 313 116 b 255 174 278 116 255 139 z "},"Į":{"ha":394,"x_min":0,"x_max":0,"o":"m 255 174 l 255 984 b 313 1042 255 1019 278 1042 l 370 1042 l 370 1157 l 23 1157 l 23 1042 l 81 1042 b 139 984 116 1042 139 1019 l 139 174 b 81 116 139 139 116 116 l 23 116 l 23 0 l 370 0 l 370 116 l 313 116 b 255 174 278 116 255 139 z "},"J":{"ha":625,"x_min":0,"x_max":0,"o":"m 602 1157 l 139 1157 l 139 1042 l 313 1042 b 370 984 347 1042 370 1019 l 370 174 b 313 116 370 139 347 116 l 197 116 b 139 174 162 116 139 139 l 139 231 l 23 231 l 23 116 l 81 116 b 139 58 116 116 139 93 l 139 0 l 370 0 l 370 58 b 428 116 370 93 394 116 l 486 116 l 486 984 b 544 1042 486 1019 509 1042 l 602 1042 z "},"K":{"ha":972,"x_min":0,"x_max":0,"o":"m 602 694 l 602 752 b 660 810 602 787 625 810 l 718 810 l 718 868 b 775 926 718 903 741 926 l 833 926 l 833 984 b 891 1042 833 1019 856 1042 l 949 1042 l 949 1157 l 602 1157 l 602 1042 l 660 1042 b 718 984 694 1042 718 1019 b 660 926 718 949 694 926 l 602 926 l 602 868 b 544 810 602 833 579 810 l 486 810 l 486 752 b 428 694 486 718 463 694 l 370 694 l 370 637 b 313 579 370 602 347 579 b 255 637 278 579 255 602 l 255 984 b 313 1042 255 1019 278 1042 l 370 1042 l 370 1157 l 23 1157 l 23 1042 l 81 1042 b 139 984 116 1042 139 1019 l 139 174 b 81 116 139 139 116 116 l 23 116 l 23 0 l 370 0 l 370 116 l 313 116 b 255 174 278 116 255 139 l 255 405 b 313 463 255 440 278 463 l 370 463 l 370 521 b 428 579 370 556 394 579 b 486 521 463 579 486 556 l 486 463 l 544 463 b 602 405 579 463 602 440 l 602 231 l 660 231 b 718 174 694 231 718 208 b 660 116 718 139 694 116 l 602 116 l 602 0 l 949 0 l 949 116 l 891 116 b 833 174 856 116 833 139 l 833 231 l 775 231 b 718 289 741 231 718 255 l 718 463 l 660 463 b 602 521 625 463 602 486 l 602 579 l 544 579 b 486 637 509 579 486 602 b 544 694 486 671 509 694 z "},"Ķ":{"ha":972,"x_min":0,"x_max":0,"o":"m 602 694 l 602 752 b 660 810 602 787 625 810 l 718 810 l 718 868 b 775 926 718 903 741 926 l 833 926 l 833 984 b 891 1042 833 1019 856 1042 l 949 1042 l 949 1157 l 602 1157 l 602 1042 l 660 1042 b 718 984 694 1042 718 1019 b 660 926 718 949 694 926 l 602 926 l 602 868 b 544 810 602 833 579 810 l 486 810 l 486 752 b 428 694 486 718 463 694 l 370 694 l 370 637 b 313 579 370 602 347 579 b 255 637 278 579 255 602 l 255 984 b 313 1042 255 1019 278 1042 l 370 1042 l 370 1157 l 23 1157 l 23 1042 l 81 1042 b 139 984 116 1042 139 1019 l 139 174 b 81 116 139 139 116 116 l 23 116 l 23 0 l 370 0 l 370 116 l 313 116 b 255 174 278 116 255 139 l 255 405 b 313 463 255 440 278 463 l 370 463 l 370 521 b 428 579 370 556 394 579 b 486 521 463 579 486 556 l 486 463 l 544 463 b 602 405 579 463 602 440 l 602 231 l 660 231 b 718 174 694 231 718 208 b 660 116 718 139 694 116 l 602 116 l 602 0 l 949 0 l 949 116 l 891 116 b 833 174 856 116 833 139 l 833 231 l 775 231 b 718 289 741 231 718 255 l 718 463 l 660 463 b 602 521 625 463 602 486 l 602 579 l 544 579 b 486 637 509 579 486 602 b 544 694 486 671 509 694 z "},"L":{"ha":972,"x_min":0,"x_max":0,"o":"m 833 289 b 775 231 833 255 810 231 l 718 231 l 718 174 b 660 116 718 139 694 116 l 313 116 b 255 174 278 116 255 139 l 255 984 b 313 1042 255 1019 278 1042 l 486 1042 l 486 1157 l 23 1157 l 23 1042 l 81 1042 b 139 984 116 1042 139 1019 l 139 174 b 81 116 139 139 116 116 l 23 116 l 23 0 l 833 0 l 833 174 b 891 231 833 208 856 231 l 949 231 l 949 347 l 833 347 z "},"Ĺ":{"ha":972,"x_min":0,"x_max":0,"o":"m 833 289 b 775 231 833 255 810 231 l 718 231 l 718 174 b 660 116 718 139 694 116 l 313 116 b 255 174 278 116 255 139 l 255 984 b 313 1042 255 1019 278 1042 l 486 1042 l 486 1157 l 23 1157 l 23 1042 l 81 1042 b 139 984 116 1042 139 1019 l 139 174 b 81 116 139 139 116 116 l 23 116 l 23 0 l 833 0 l 833 174 b 891 231 833 208 856 231 l 949 231 l 949 347 l 833 347 z "},"Ľ":{"ha":972,"x_min":0,"x_max":0,"o":"m 833 289 b 775 231 833 255 810 231 l 718 231 l 718 174 b 660 116 718 139 694 116 l 313 116 b 255 174 278 116 255 139 l 255 984 b 313 1042 255 1019 278 1042 l 486 1042 l 486 1157 l 23 1157 l 23 1042 l 81 1042 b 139 984 116 1042 139 1019 l 139 174 b 81 116 139 139 116 116 l 23 116 l 23 0 l 833 0 l 833 174 b 891 231 833 208 856 231 l 949 231 l 949 347 l 833 347 z "},"Ļ":{"ha":972,"x_min":0,"x_max":0,"o":"m 833 289 b 775 231 833 255 810 231 l 718 231 l 718 174 b 660 116 718 139 694 116 l 313 116 b 255 174 278 116 255 139 l 255 984 b 313 1042 255 1019 278 1042 l 486 1042 l 486 1157 l 23 1157 l 23 1042 l 81 1042 b 139 984 116 1042 139 1019 l 139 174 b 81 116 139 139 116 116 l 23 116 l 23 0 l 833 0 l 833 174 b 891 231 833 208 856 231 l 949 231 l 949 347 l 833 347 z "},"Ł":{"ha":972,"x_min":0,"x_max":0,"o":"m 833 289 b 775 231 833 255 810 231 l 718 231 l 718 174 b 660 116 718 139 694 116 l 313 116 b 255 174 278 116 255 139 l 255 984 b 313 1042 255 1019 278 1042 l 486 1042 l 486 1157 l 23 1157 l 23 1042 l 81 1042 b 139 984 116 1042 139 1019 l 139 174 b 81 116 139 139 116 116 l 23 116 l 23 0 l 833 0 l 833 174 b 891 231 833 208 856 231 l 949 231 l 949 347 l 833 347 z "},"M":{"ha":1319,"x_min":0,"x_max":0,"o":"m 1181 174 l 1181 984 b 1238 1042 1181 1019 1204 1042 l 1296 1042 l 1296 1157 l 1065 1157 l 1065 984 b 1007 926 1065 949 1042 926 l 949 926 l 949 752 b 891 694 949 718 926 694 l 833 694 l 833 521 b 775 463 833 486 810 463 l 718 463 l 718 289 b 660 231 718 255 694 231 b 602 289 625 231 602 255 l 602 463 l 544 463 b 486 521 509 463 486 486 l 486 694 l 428 694 b 370 752 394 694 370 718 l 370 926 l 313 926 b 255 984 278 926 255 949 l 255 1157 l 23 1157 l 23 1042 l 81 1042 b 139 984 116 1042 139 1019 l 139 174 b 81 116 139 139 116 116 l 23 116 l 23 0 l 370 0 l 370 116 l 313 116 b 255 174 278 116 255 139 l 255 637 b 313 694 255 671 278 694 b 370 637 347 694 370 671 l 370 463 l 428 463 b 486 405 463 463 486 440 l 486 231 l 544 231 b 602 174 579 231 602 208 l 602 0 l 718 0 l 718 174 b 775 231 718 208 741 231 l 833 231 l 833 405 b 891 463 833 440 856 463 l 949 463 l 949 637 b 1007 694 949 671 972 694 b 1065 637 1042 694 1065 671 l 1065 174 b 1007 116 1065 139 1042 116 l 949 116 l 949 0 l 1296 0 l 1296 116 l 1238 116 b 1181 174 1204 116 1181 139 z "},"N":{"ha":1088,"x_min":0,"x_max":0,"o":"m 1065 1157 l 718 1157 l 718 1042 l 775 1042 b 833 984 810 1042 833 1019 l 833 405 b 775 347 833 370 810 347 b 718 405 741 347 718 370 l 718 463 l 660 463 b 602 521 625 463 602 486 l 602 694 l 544 694 b 486 752 509 694 486 718 l 486 810 l 428 810 b 370 868 394 810 370 833 l 370 1042 l 313 1042 b 255 1100 278 1042 255 1065 l 255 1157 l 23 1157 l 23 1042 l 81 1042 b 139 984 116 1042 139 1019 l 139 174 b 81 116 139 139 116 116 l 23 116 l 23 0 l 370 0 l 370 116 l 313 116 b 255 174 278 116 255 139 l 255 752 b 313 810 255 787 278 810 b 370 752 347 810 370 787 l 370 694 l 428 694 b 486 637 463 694 486 671 l 486 463 l 544 463 b 602 405 579 463 602 440 l 602 347 l 660 347 b 718 289 694 347 718 324 l 718 116 l 775 116 b 833 58 810 116 833 93 l 833 0 l 949 0 l 949 984 b 1007 1042 949 1019 972 1042 l 1065 1042 z "},"Ń":{"ha":1088,"x_min":0,"x_max":0,"o":"m 1065 1157 l 718 1157 l 718 1042 l 775 1042 b 833 984 810 1042 833 1019 l 833 405 b 775 347 833 370 810 347 b 718 405 741 347 718 370 l 718 463 l 660 463 b 602 521 625 463 602 486 l 602 694 l 544 694 b 486 752 509 694 486 718 l 486 810 l 428 810 b 370 868 394 810 370 833 l 370 1042 l 313 1042 b 255 1100 278 1042 255 1065 l 255 1157 l 23 1157 l 23 1042 l 81 1042 b 139 984 116 1042 139 1019 l 139 174 b 81 116 139 139 116 116 l 23 116 l 23 0 l 370 0 l 370 116 l 313 116 b 255 174 278 116 255 139 l 255 752 b 313 810 255 787 278 810 b 370 752 347 810 370 787 l 370 694 l 428 694 b 486 637 463 694 486 671 l 486 463 l 544 463 b 602 405 579 463 602 440 l 602 347 l 660 347 b 718 289 694 347 718 324 l 718 116 l 775 116 b 833 58 810 116 833 93 l 833 0 l 949 0 l 949 984 b 1007 1042 949 1019 972 1042 l 1065 1042 z "},"Ň":{"ha":1088,"x_min":0,"x_max":0,"o":"m 1065 1157 l 718 1157 l 718 1042 l 775 1042 b 833 984 810 1042 833 1019 l 833 405 b 775 347 833 370 810 347 b 718 405 741 347 718 370 l 718 463 l 660 463 b 602 521 625 463 602 486 l 602 694 l 544 694 b 486 752 509 694 486 718 l 486 810 l 428 810 b 370 868 394 810 370 833 l 370 1042 l 313 1042 b 255 1100 278 1042 255 1065 l 255 1157 l 23 1157 l 23 1042 l 81 1042 b 139 984 116 1042 139 1019 l 139 174 b 81 116 139 139 116 116 l 23 116 l 23 0 l 370 0 l 370 116 l 313 116 b 255 174 278 116 255 139 l 255 752 b 313 810 255 787 278 810 b 370 752 347 810 370 787 l 370 694 l 428 694 b 486 637 463 694 486 671 l 486 463 l 544 463 b 602 405 579 463 602 440 l 602 347 l 660 347 b 718 289 694 347 718 324 l 718 116 l 775 116 b 833 58 810 116 833 93 l 833 0 l 949 0 l 949 984 b 1007 1042 949 1019 972 1042 l 1065 1042 z "},"Ņ":{"ha":1088,"x_min":0,"x_max":0,"o":"m 1065 1157 l 718 1157 l 718 1042 l 775 1042 b 833 984 810 1042 833 1019 l 833 405 b 775 347 833 370 810 347 b 718 405 741 347 718 370 l 718 463 l 660 463 b 602 521 625 463 602 486 l 602 694 l 544 694 b 486 752 509 694 486 718 l 486 810 l 428 810 b 370 868 394 810 370 833 l 370 1042 l 313 1042 b 255 1100 278 1042 255 1065 l 255 1157 l 23 1157 l 23 1042 l 81 1042 b 139 984 116 1042 139 1019 l 139 174 b 81 116 139 139 116 116 l 23 116 l 23 0 l 370 0 l 370 116 l 313 116 b 255 174 278 116 255 139 l 255 752 b 313 810 255 787 278 810 b 370 752 347 810 370 787 l 370 694 l 428 694 b 486 637 463 694 486 671 l 486 463 l 544 463 b 602 405 579 463 602 440 l 602 347 l 660 347 b 718 289 694 347 718 324 l 718 116 l 775 116 b 833 58 810 116 833 93 l 833 0 l 949 0 l 949 984 b 1007 1042 949 1019 972 1042 l 1065 1042 z "},"Ŋ":{"ha":1088,"x_min":0,"x_max":0,"o":"m 1065 1157 l 718 1157 l 718 1042 l 775 1042 b 833 984 810 1042 833 1019 l 833 405 b 775 347 833 370 810 347 b 718 405 741 347 718 370 l 718 463 l 660 463 b 602 521 625 463 602 486 l 602 694 l 544 694 b 486 752 509 694 486 718 l 486 810 l 428 810 b 370 868 394 810 370 833 l 370 1042 l 313 1042 b 255 1100 278 1042 255 1065 l 255 1157 l 23 1157 l 23 1042 l 81 1042 b 139 984 116 1042 139 1019 l 139 174 b 81 116 139 139 116 116 l 23 116 l 23 0 l 370 0 l 370 116 l 313 116 b 255 174 278 116 255 139 l 255 752 b 313 810 255 787 278 810 b 370 752 347 810 370 787 l 370 694 l 428 694 b 486 637 463 694 486 671 l 486 463 l 544 463 b 602 405 579 463 602 440 l 602 347 l 660 347 b 718 289 694 347 718 324 l 718 116 l 775 116 b 833 58 810 116 833 93 l 833 0 l 949 0 l 949 984 b 1007 1042 949 1019 972 1042 l 1065 1042 z "},"Ñ":{"ha":1088,"x_min":0,"x_max":0,"o":"m 1065 1157 l 718 1157 l 718 1042 l 775 1042 b 833 984 810 1042 833 1019 l 833 405 b 775 347 833 370 810 347 b 718 405 741 347 718 370 l 718 463 l 660 463 b 602 521 625 463 602 486 l 602 694 l 544 694 b 486 752 509 694 486 718 l 486 810 l 428 810 b 370 868 394 810 370 833 l 370 1042 l 313 1042 b 255 1100 278 1042 255 1065 l 255 1157 l 23 1157 l 23 1042 l 81 1042 b 139 984 116 1042 139 1019 l 139 174 b 81 116 139 139 116 116 l 23 116 l 23 0 l 370 0 l 370 116 l 313 116 b 255 174 278 116 255 139 l 255 752 b 313 810 255 787 278 810 b 370 752 347 810 370 787 l 370 694 l 428 694 b 486 637 463 694 486 671 l 486 463 l 544 463 b 602 405 579 463 602 440 l 602 347 l 660 347 b 718 289 694 347 718 324 l 718 116 l 775 116 b 833 58 810 116 833 93 l 833 0 l 949 0 l 949 984 b 1007 1042 949 1019 972 1042 l 1065 1042 z "},"O":{"ha":1088,"x_min":0,"x_max":0,"o":"m 1007 926 b 949 984 972 926 949 949 l 949 1042 l 891 1042 b 833 1100 856 1042 833 1065 l 833 1157 l 255 1157 l 255 1100 b 197 1042 255 1065 231 1042 l 139 1042 l 139 984 b 81 926 139 949 116 926 l 23 926 l 23 231 l 81 231 b 139 174 116 231 139 208 l 139 116 l 197 116 b 255 58 231 116 255 93 l 255 0 l 833 0 l 833 58 b 891 116 833 93 856 116 l 949 116 l 949 174 b 1007 231 949 208 972 231 l 1065 231 l 1065 926 z m 949 868 l 949 289 b 891 231 949 255 926 231 l 833 231 l 833 174 b 775 116 833 139 810 116 l 313 116 b 255 174 278 116 255 139 l 255 231 l 197 231 b 139 289 162 231 139 255 l 139 868 b 197 926 139 903 162 926 l 255 926 l 255 984 b 313 1042 255 1019 278 1042 l 775 1042 b 833 984 810 1042 833 1019 l 833 926 l 891 926 b 949 868 926 926 949 903 z "},"Ó":{"ha":1088,"x_min":0,"x_max":0,"o":"m 1007 926 b 949 984 972 926 949 949 l 949 1042 l 891 1042 b 833 1100 856 1042 833 1065 l 833 1157 l 255 1157 l 255 1100 b 197 1042 255 1065 231 1042 l 139 1042 l 139 984 b 81 926 139 949 116 926 l 23 926 l 23 231 l 81 231 b 139 174 116 231 139 208 l 139 116 l 197 116 b 255 58 231 116 255 93 l 255 0 l 833 0 l 833 58 b 891 116 833 93 856 116 l 949 116 l 949 174 b 1007 231 949 208 972 231 l 1065 231 l 1065 926 z m 949 868 l 949 289 b 891 231 949 255 926 231 l 833 231 l 833 174 b 775 116 833 139 810 116 l 313 116 b 255 174 278 116 255 139 l 255 231 l 197 231 b 139 289 162 231 139 255 l 139 868 b 197 926 139 903 162 926 l 255 926 l 255 984 b 313 1042 255 1019 278 1042 l 775 1042 b 833 984 810 1042 833 1019 l 833 926 l 891 926 b 949 868 926 926 949 903 z "},"Ô":{"ha":1088,"x_min":0,"x_max":0,"o":"m 1007 926 b 949 984 972 926 949 949 l 949 1042 l 891 1042 b 833 1100 856 1042 833 1065 l 833 1157 l 255 1157 l 255 1100 b 197 1042 255 1065 231 1042 l 139 1042 l 139 984 b 81 926 139 949 116 926 l 23 926 l 23 231 l 81 231 b 139 174 116 231 139 208 l 139 116 l 197 116 b 255 58 231 116 255 93 l 255 0 l 833 0 l 833 58 b 891 116 833 93 856 116 l 949 116 l 949 174 b 1007 231 949 208 972 231 l 1065 231 l 1065 926 z m 949 868 l 949 289 b 891 231 949 255 926 231 l 833 231 l 833 174 b 775 116 833 139 810 116 l 313 116 b 255 174 278 116 255 139 l 255 231 l 197 231 b 139 289 162 231 139 255 l 139 868 b 197 926 139 903 162 926 l 255 926 l 255 984 b 313 1042 255 1019 278 1042 l 775 1042 b 833 984 810 1042 833 1019 l 833 926 l 891 926 b 949 868 926 926 949 903 z "},"Ö":{"ha":1088,"x_min":0,"x_max":0,"o":"m 1007 926 b 949 984 972 926 949 949 l 949 1042 l 891 1042 b 833 1100 856 1042 833 1065 l 833 1157 l 255 1157 l 255 1100 b 197 1042 255 1065 231 1042 l 139 1042 l 139 984 b 81 926 139 949 116 926 l 23 926 l 23 231 l 81 231 b 139 174 116 231 139 208 l 139 116 l 197 116 b 255 58 231 116 255 93 l 255 0 l 833 0 l 833 58 b 891 116 833 93 856 116 l 949 116 l 949 174 b 1007 231 949 208 972 231 l 1065 231 l 1065 926 z m 949 868 l 949 289 b 891 231 949 255 926 231 l 833 231 l 833 174 b 775 116 833 139 810 116 l 313 116 b 255 174 278 116 255 139 l 255 231 l 197 231 b 139 289 162 231 139 255 l 139 868 b 197 926 139 903 162 926 l 255 926 l 255 984 b 313 1042 255 1019 278 1042 l 775 1042 b 833 984 810 1042 833 1019 l 833 926 l 891 926 b 949 868 926 926 949 903 z "},"Ò":{"ha":1088,"x_min":0,"x_max":0,"o":"m 1007 926 b 949 984 972 926 949 949 l 949 1042 l 891 1042 b 833 1100 856 1042 833 1065 l 833 1157 l 255 1157 l 255 1100 b 197 1042 255 1065 231 1042 l 139 1042 l 139 984 b 81 926 139 949 116 926 l 23 926 l 23 231 l 81 231 b 139 174 116 231 139 208 l 139 116 l 197 116 b 255 58 231 116 255 93 l 255 0 l 833 0 l 833 58 b 891 116 833 93 856 116 l 949 116 l 949 174 b 1007 231 949 208 972 231 l 1065 231 l 1065 926 z m 949 868 l 949 289 b 891 231 949 255 926 231 l 833 231 l 833 174 b 775 116 833 139 810 116 l 313 116 b 255 174 278 116 255 139 l 255 231 l 197 231 b 139 289 162 231 139 255 l 139 868 b 197 926 139 903 162 926 l 255 926 l 255 984 b 313 1042 255 1019 278 1042 l 775 1042 b 833 984 810 1042 833 1019 l 833 926 l 891 926 b 949 868 926 926 949 903 z "},"Ő":{"ha":1088,"x_min":0,"x_max":0,"o":"m 1007 926 b 949 984 972 926 949 949 l 949 1042 l 891 1042 b 833 1100 856 1042 833 1065 l 833 1157 l 255 1157 l 255 1100 b 197 1042 255 1065 231 1042 l 139 1042 l 139 984 b 81 926 139 949 116 926 l 23 926 l 23 231 l 81 231 b 139 174 116 231 139 208 l 139 116 l 197 116 b 255 58 231 116 255 93 l 255 0 l 833 0 l 833 58 b 891 116 833 93 856 116 l 949 116 l 949 174 b 1007 231 949 208 972 231 l 1065 231 l 1065 926 z m 949 868 l 949 289 b 891 231 949 255 926 231 l 833 231 l 833 174 b 775 116 833 139 810 116 l 313 116 b 255 174 278 116 255 139 l 255 231 l 197 231 b 139 289 162 231 139 255 l 139 868 b 197 926 139 903 162 926 l 255 926 l 255 984 b 313 1042 255 1019 278 1042 l 775 1042 b 833 984 810 1042 833 1019 l 833 926 l 891 926 b 949 868 926 926 949 903 z "},"Ō":{"ha":1088,"x_min":0,"x_max":0,"o":"m 1007 926 b 949 984 972 926 949 949 l 949 1042 l 891 1042 b 833 1100 856 1042 833 1065 l 833 1157 l 255 1157 l 255 1100 b 197 1042 255 1065 231 1042 l 139 1042 l 139 984 b 81 926 139 949 116 926 l 23 926 l 23 231 l 81 231 b 139 174 116 231 139 208 l 139 116 l 197 116 b 255 58 231 116 255 93 l 255 0 l 833 0 l 833 58 b 891 116 833 93 856 116 l 949 116 l 949 174 b 1007 231 949 208 972 231 l 1065 231 l 1065 926 z m 949 868 l 949 289 b 891 231 949 255 926 231 l 833 231 l 833 174 b 775 116 833 139 810 116 l 313 116 b 255 174 278 116 255 139 l 255 231 l 197 231 b 139 289 162 231 139 255 l 139 868 b 197 926 139 903 162 926 l 255 926 l 255 984 b 313 1042 255 1019 278 1042 l 775 1042 b 833 984 810 1042 833 1019 l 833 926 l 891 926 b 949 868 926 926 949 903 z "},"Ø":{"ha":1088,"x_min":0,"x_max":0,"o":"m 1007 926 b 949 984 972 926 949 949 l 949 1042 l 891 1042 b 833 1100 856 1042 833 1065 l 833 1157 l 255 1157 l 255 1100 b 197 1042 255 1065 231 1042 l 139 1042 l 139 984 b 81 926 139 949 116 926 l 23 926 l 23 231 l 81 231 b 139 174 116 231 139 208 l 139 116 l 197 116 b 255 58 231 116 255 93 l 255 0 l 833 0 l 833 58 b 891 116 833 93 856 116 l 949 116 l 949 174 b 1007 231 949 208 972 231 l 1065 231 l 1065 926 z m 949 868 l 949 289 b 891 231 949 255 926 231 l 833 231 l 833 174 b 775 116 833 139 810 116 l 313 116 b 255 174 278 116 255 139 l 255 231 l 197 231 b 139 289 162 231 139 255 l 139 868 b 197 926 139 903 162 926 l 255 926 l 255 984 b 313 1042 255 1019 278 1042 l 775 1042 b 833 984 810 1042 833 1019 l 833 926 l 891 926 b 949 868 926 926 949 903 z "},"Õ":{"ha":1088,"x_min":0,"x_max":0,"o":"m 1007 926 b 949 984 972 926 949 949 l 949 1042 l 891 1042 b 833 1100 856 1042 833 1065 l 833 1157 l 255 1157 l 255 1100 b 197 1042 255 1065 231 1042 l 139 1042 l 139 984 b 81 926 139 949 116 926 l 23 926 l 23 231 l 81 231 b 139 174 116 231 139 208 l 139 116 l 197 116 b 255 58 231 116 255 93 l 255 0 l 833 0 l 833 58 b 891 116 833 93 856 116 l 949 116 l 949 174 b 1007 231 949 208 972 231 l 1065 231 l 1065 926 z m 949 868 l 949 289 b 891 231 949 255 926 231 l 833 231 l 833 174 b 775 116 833 139 810 116 l 313 116 b 255 174 278 116 255 139 l 255 231 l 197 231 b 139 289 162 231 139 255 l 139 868 b 197 926 139 903 162 926 l 255 926 l 255 984 b 313 1042 255 1019 278 1042 l 775 1042 b 833 984 810 1042 833 1019 l 833 926 l 891 926 b 949 868 926 926 949 903 z "},"Œ":{"ha":1088,"x_min":0,"x_max":0,"o":"m 1007 926 b 949 984 972 926 949 949 l 949 1042 l 891 1042 b 833 1100 856 1042 833 1065 l 833 1157 l 255 1157 l 255 1100 b 197 1042 255 1065 231 1042 l 139 1042 l 139 984 b 81 926 139 949 116 926 l 23 926 l 23 231 l 81 231 b 139 174 116 231 139 208 l 139 116 l 197 116 b 255 58 231 116 255 93 l 255 0 l 833 0 l 833 58 b 891 116 833 93 856 116 l 949 116 l 949 174 b 1007 231 949 208 972 231 l 1065 231 l 1065 926 z m 949 868 l 949 289 b 891 231 949 255 926 231 l 833 231 l 833 174 b 775 116 833 139 810 116 l 313 116 b 255 174 278 116 255 139 l 255 231 l 197 231 b 139 289 162 231 139 255 l 139 868 b 197 926 139 903 162 926 l 255 926 l 255 984 b 313 1042 255 1019 278 1042 l 775 1042 b 833 984 810 1042 833 1019 l 833 926 l 891 926 b 949 868 926 926 949 903 z "},"P":{"ha":856,"x_min":0,"x_max":0,"o":"m 775 1042 b 718 1100 741 1042 718 1065 l 718 1157 l 23 1157 l 23 1042 l 81 1042 b 139 984 116 1042 139 1019 l 139 174 b 81 116 139 139 116 116 l 23 116 l 23 0 l 486 0 l 486 116 l 313 116 b 255 174 278 116 255 139 l 255 521 b 313 579 255 556 278 579 l 718 579 l 718 637 b 775 694 718 671 741 694 l 833 694 l 833 1042 z m 718 752 b 660 694 718 718 694 694 l 313 694 b 255 752 278 694 255 718 l 255 984 b 313 1042 255 1019 278 1042 l 660 1042 b 718 984 694 1042 718 1019 z "},"Þ":{"ha":856,"x_min":0,"x_max":0,"o":"m 775 1042 b 718 1100 741 1042 718 1065 l 718 1157 l 23 1157 l 23 1042 l 81 1042 b 139 984 116 1042 139 1019 l 139 174 b 81 116 139 139 116 116 l 23 116 l 23 0 l 486 0 l 486 116 l 313 116 b 255 174 278 116 255 139 l 255 521 b 313 579 255 556 278 579 l 718 579 l 718 637 b 775 694 718 671 741 694 l 833 694 l 833 1042 z m 718 752 b 660 694 718 718 694 694 l 313 694 b 255 752 278 694 255 718 l 255 984 b 313 1042 255 1019 278 1042 l 660 1042 b 718 984 694 1042 718 1019 z "},"Q":{"ha":1088,"x_min":0,"x_max":0,"o":"m 1181 -231 l 891 -231 b 833 -174 856 -231 833 -208 l 833 -116 l 660 -116 b 602 -58 625 -116 602 -93 l 602 0 l 833 0 l 833 58 b 891 116 833 93 856 116 l 949 116 l 949 174 b 1007 231 949 208 972 231 l 1065 231 l 1065 926 l 1007 926 b 949 984 972 926 949 949 l 949 1042 l 891 1042 b 833 1100 856 1042 833 1065 l 833 1157 l 255 1157 l 255 1100 b 197 1042 255 1065 231 1042 l 139 1042 l 139 984 b 81 926 139 949 116 926 l 23 926 l 23 231 l 81 231 b 139 174 116 231 139 208 l 139 116 l 197 116 b 255 58 231 116 255 93 l 255 0 l 486 0 l 486 -116 l 544 -116 b 602 -174 579 -116 602 -139 l 602 -231 l 775 -231 b 833 -289 810 -231 833 -255 l 833 -347 l 1181 -347 z m 313 116 b 255 174 278 116 255 139 l 255 231 l 197 231 b 139 289 162 231 139 255 l 139 868 b 197 926 139 903 162 926 l 255 926 l 255 984 b 313 1042 255 1019 278 1042 l 775 1042 b 833 984 810 1042 833 1019 l 833 926 l 891 926 b 949 868 926 926 949 903 l 949 289 b 891 231 949 255 926 231 l 833 231 l 833 174 b 775 116 833 139 810 116 z "},"R":{"ha":972,"x_min":0,"x_max":0,"o":"m 891 116 b 833 174 856 116 833 139 l 833 231 l 775 231 b 718 289 741 231 718 255 l 718 463 l 660 463 b 602 521 625 463 602 486 b 660 579 602 556 625 579 l 718 579 l 718 637 b 775 694 718 671 741 694 l 833 694 l 833 1042 l 775 1042 b 718 1100 741 1042 718 1065 l 718 1157 l 23 1157 l 23 1042 l 81 1042 b 139 984 116 1042 139 1019 l 139 174 b 81 116 139 139 116 116 l 23 116 l 23 0 l 486 0 l 486 116 l 313 116 b 255 174 278 116 255 139 l 255 521 b 313 579 255 556 278 579 l 428 579 b 486 521 463 579 486 556 l 486 463 l 544 463 b 602 405 579 463 602 440 l 602 231 l 660 231 b 718 174 694 231 718 208 l 718 0 l 949 0 l 949 116 z m 313 694 b 255 752 278 694 255 718 l 255 984 b 313 1042 255 1019 278 1042 l 660 1042 b 718 984 694 1042 718 1019 l 718 752 b 660 694 718 718 694 694 z "},"Ŕ":{"ha":972,"x_min":0,"x_max":0,"o":"m 891 116 b 833 174 856 116 833 139 l 833 231 l 775 231 b 718 289 741 231 718 255 l 718 463 l 660 463 b 602 521 625 463 602 486 b 660 579 602 556 625 579 l 718 579 l 718 637 b 775 694 718 671 741 694 l 833 694 l 833 1042 l 775 1042 b 718 1100 741 1042 718 1065 l 718 1157 l 23 1157 l 23 1042 l 81 1042 b 139 984 116 1042 139 1019 l 139 174 b 81 116 139 139 116 116 l 23 116 l 23 0 l 486 0 l 486 116 l 313 116 b 255 174 278 116 255 139 l 255 521 b 313 579 255 556 278 579 l 428 579 b 486 521 463 579 486 556 l 486 463 l 544 463 b 602 405 579 463 602 440 l 602 231 l 660 231 b 718 174 694 231 718 208 l 718 0 l 949 0 l 949 116 z m 313 694 b 255 752 278 694 255 718 l 255 984 b 313 1042 255 1019 278 1042 l 660 1042 b 718 984 694 1042 718 1019 l 718 752 b 660 694 718 718 694 694 z "},"Ř":{"ha":972,"x_min":0,"x_max":0,"o":"m 891 116 b 833 174 856 116 833 139 l 833 231 l 775 231 b 718 289 741 231 718 255 l 718 463 l 660 463 b 602 521 625 463 602 486 b 660 579 602 556 625 579 l 718 579 l 718 637 b 775 694 718 671 741 694 l 833 694 l 833 1042 l 775 1042 b 718 1100 741 1042 718 1065 l 718 1157 l 23 1157 l 23 1042 l 81 1042 b 139 984 116 1042 139 1019 l 139 174 b 81 116 139 139 116 116 l 23 116 l 23 0 l 486 0 l 486 116 l 313 116 b 255 174 278 116 255 139 l 255 521 b 313 579 255 556 278 579 l 428 579 b 486 521 463 579 486 556 l 486 463 l 544 463 b 602 405 579 463 602 440 l 602 231 l 660 231 b 718 174 694 231 718 208 l 718 0 l 949 0 l 949 116 z m 313 694 b 255 752 278 694 255 718 l 255 984 b 313 1042 255 1019 278 1042 l 660 1042 b 718 984 694 1042 718 1019 l 718 752 b 660 694 718 718 694 694 z "},"Ŗ":{"ha":972,"x_min":0,"x_max":0,"o":"m 891 116 b 833 174 856 116 833 139 l 833 231 l 775 231 b 718 289 741 231 718 255 l 718 463 l 660 463 b 602 521 625 463 602 486 b 660 579 602 556 625 579 l 718 579 l 718 637 b 775 694 718 671 741 694 l 833 694 l 833 1042 l 775 1042 b 718 1100 741 1042 718 1065 l 718 1157 l 23 1157 l 23 1042 l 81 1042 b 139 984 116 1042 139 1019 l 139 174 b 81 116 139 139 116 116 l 23 116 l 23 0 l 486 0 l 486 116 l 313 116 b 255 174 278 116 255 139 l 255 521 b 313 579 255 556 278 579 l 428 579 b 486 521 463 579 486 556 l 486 463 l 544 463 b 602 405 579 463 602 440 l 602 231 l 660 231 b 718 174 694 231 718 208 l 718 0 l 949 0 l 949 116 z m 313 694 b 255 752 278 694 255 718 l 255 984 b 313 1042 255 1019 278 1042 l 660 1042 b 718 984 694 1042 718 1019 l 718 752 b 660 694 718 718 694 694 z "},"S":{"ha":741,"x_min":0,"x_max":0,"o":"m 602 1100 b 544 1042 602 1065 579 1042 b 486 1100 509 1042 486 1065 l 486 1157 l 139 1157 l 139 1100 b 81 1042 139 1065 116 1042 l 23 1042 l 23 694 l 81 694 b 139 637 116 694 139 671 l 139 579 l 313 579 b 370 521 347 579 370 556 l 370 463 l 544 463 b 602 405 579 463 602 440 l 602 174 b 544 116 602 139 579 116 l 313 116 b 255 174 278 116 255 139 l 255 231 l 197 231 b 139 289 162 231 139 255 l 139 347 l 23 347 l 23 0 l 139 0 l 139 58 b 197 116 139 93 162 116 b 255 58 231 116 255 93 l 255 0 l 602 0 l 602 58 b 660 116 602 93 625 116 l 718 116 l 718 463 l 660 463 b 602 521 625 463 602 486 l 602 579 l 428 579 b 370 637 394 579 370 602 l 370 694 l 197 694 b 139 752 162 694 139 718 l 139 984 b 197 1042 139 1019 162 1042 l 428 1042 b 486 984 463 1042 486 1019 l 486 926 l 544 926 b 602 868 579 926 602 903 l 602 810 l 718 810 l 718 1157 l 602 1157 z "},"Ś":{"ha":741,"x_min":0,"x_max":0,"o":"m 602 1100 b 544 1042 602 1065 579 1042 b 486 1100 509 1042 486 1065 l 486 1157 l 139 1157 l 139 1100 b 81 1042 139 1065 116 1042 l 23 1042 l 23 694 l 81 694 b 139 637 116 694 139 671 l 139 579 l 313 579 b 370 521 347 579 370 556 l 370 463 l 544 463 b 602 405 579 463 602 440 l 602 174 b 544 116 602 139 579 116 l 313 116 b 255 174 278 116 255 139 l 255 231 l 197 231 b 139 289 162 231 139 255 l 139 347 l 23 347 l 23 0 l 139 0 l 139 58 b 197 116 139 93 162 116 b 255 58 231 116 255 93 l 255 0 l 602 0 l 602 58 b 660 116 602 93 625 116 l 718 116 l 718 463 l 660 463 b 602 521 625 463 602 486 l 602 579 l 428 579 b 370 637 394 579 370 602 l 370 694 l 197 694 b 139 752 162 694 139 718 l 139 984 b 197 1042 139 1019 162 1042 l 428 1042 b 486 984 463 1042 486 1019 l 486 926 l 544 926 b 602 868 579 926 602 903 l 602 810 l 718 810 l 718 1157 l 602 1157 z "},"Š":{"ha":741,"x_min":0,"x_max":0,"o":"m 602 1100 b 544 1042 602 1065 579 1042 b 486 1100 509 1042 486 1065 l 486 1157 l 139 1157 l 139 1100 b 81 1042 139 1065 116 1042 l 23 1042 l 23 694 l 81 694 b 139 637 116 694 139 671 l 139 579 l 313 579 b 370 521 347 579 370 556 l 370 463 l 544 463 b 602 405 579 463 602 440 l 602 174 b 544 116 602 139 579 116 l 313 116 b 255 174 278 116 255 139 l 255 231 l 197 231 b 139 289 162 231 139 255 l 139 347 l 23 347 l 23 0 l 139 0 l 139 58 b 197 116 139 93 162 116 b 255 58 231 116 255 93 l 255 0 l 602 0 l 602 58 b 660 116 602 93 625 116 l 718 116 l 718 463 l 660 463 b 602 521 625 463 602 486 l 602 579 l 428 579 b 370 637 394 579 370 602 l 370 694 l 197 694 b 139 752 162 694 139 718 l 139 984 b 197 1042 139 1019 162 1042 l 428 1042 b 486 984 463 1042 486 1019 l 486 926 l 544 926 b 602 868 579 926 602 903 l 602 810 l 718 810 l 718 1157 l 602 1157 z "},"Ş":{"ha":741,"x_min":0,"x_max":0,"o":"m 602 1100 b 544 1042 602 1065 579 1042 b 486 1100 509 1042 486 1065 l 486 1157 l 139 1157 l 139 1100 b 81 1042 139 1065 116 1042 l 23 1042 l 23 694 l 81 694 b 139 637 116 694 139 671 l 139 579 l 313 579 b 370 521 347 579 370 556 l 370 463 l 544 463 b 602 405 579 463 602 440 l 602 174 b 544 116 602 139 579 116 l 313 116 b 255 174 278 116 255 139 l 255 231 l 197 231 b 139 289 162 231 139 255 l 139 347 l 23 347 l 23 0 l 139 0 l 139 58 b 197 116 139 93 162 116 b 255 58 231 116 255 93 l 255 0 l 602 0 l 602 58 b 660 116 602 93 625 116 l 718 116 l 718 463 l 660 463 b 602 521 625 463 602 486 l 602 579 l 428 579 b 370 637 394 579 370 602 l 370 694 l 197 694 b 139 752 162 694 139 718 l 139 984 b 197 1042 139 1019 162 1042 l 428 1042 b 486 984 463 1042 486 1019 l 486 926 l 544 926 b 602 868 579 926 602 903 l 602 810 l 718 810 l 718 1157 l 602 1157 z "},"Ș":{"ha":741,"x_min":0,"x_max":0,"o":"m 602 1100 b 544 1042 602 1065 579 1042 b 486 1100 509 1042 486 1065 l 486 1157 l 139 1157 l 139 1100 b 81 1042 139 1065 116 1042 l 23 1042 l 23 694 l 81 694 b 139 637 116 694 139 671 l 139 579 l 313 579 b 370 521 347 579 370 556 l 370 463 l 544 463 b 602 405 579 463 602 440 l 602 174 b 544 116 602 139 579 116 l 313 116 b 255 174 278 116 255 139 l 255 231 l 197 231 b 139 289 162 231 139 255 l 139 347 l 23 347 l 23 0 l 139 0 l 139 58 b 197 116 139 93 162 116 b 255 58 231 116 255 93 l 255 0 l 602 0 l 602 58 b 660 116 602 93 625 116 l 718 116 l 718 463 l 660 463 b 602 521 625 463 602 486 l 602 579 l 428 579 b 370 637 394 579 370 602 l 370 694 l 197 694 b 139 752 162 694 139 718 l 139 984 b 197 1042 139 1019 162 1042 l 428 1042 b 486 984 463 1042 486 1019 l 486 926 l 544 926 b 602 868 579 926 602 903 l 602 810 l 718 810 l 718 1157 l 602 1157 z "},"ẞ":{"ha":741,"x_min":0,"x_max":0,"o":"m 602 1100 b 544 1042 602 1065 579 1042 b 486 1100 509 1042 486 1065 l 486 1157 l 139 1157 l 139 1100 b 81 1042 139 1065 116 1042 l 23 1042 l 23 694 l 81 694 b 139 637 116 694 139 671 l 139 579 l 313 579 b 370 521 347 579 370 556 l 370 463 l 544 463 b 602 405 579 463 602 440 l 602 174 b 544 116 602 139 579 116 l 313 116 b 255 174 278 116 255 139 l 255 231 l 197 231 b 139 289 162 231 139 255 l 139 347 l 23 347 l 23 0 l 139 0 l 139 58 b 197 116 139 93 162 116 b 255 58 231 116 255 93 l 255 0 l 602 0 l 602 58 b 660 116 602 93 625 116 l 718 116 l 718 463 l 660 463 b 602 521 625 463 602 486 l 602 579 l 428 579 b 370 637 394 579 370 602 l 370 694 l 197 694 b 139 752 162 694 139 718 l 139 984 b 197 1042 139 1019 162 1042 l 428 1042 b 486 984 463 1042 486 1019 l 486 926 l 544 926 b 602 868 579 926 602 903 l 602 810 l 718 810 l 718 1157 l 602 1157 z "},"T":{"ha":949,"x_min":0,"x_max":0,"o":"m 926 1157 l 23 1157 l 23 926 l 139 926 l 139 984 b 197 1042 139 1019 162 1042 l 359 1042 b 417 984 394 1042 417 1019 l 417 174 b 359 116 417 139 394 116 l 185 116 l 185 0 l 764 0 l 764 116 l 590 116 b 532 174 556 116 532 139 l 532 984 b 590 1042 532 1019 556 1042 l 752 1042 b 810 984 787 1042 810 1019 l 810 926 l 926 926 z "},"Ŧ":{"ha":949,"x_min":0,"x_max":0,"o":"m 926 1157 l 23 1157 l 23 926 l 139 926 l 139 984 b 197 1042 139 1019 162 1042 l 359 1042 b 417 984 394 1042 417 1019 l 417 174 b 359 116 417 139 394 116 l 185 116 l 185 0 l 764 0 l 764 116 l 590 116 b 532 174 556 116 532 139 l 532 984 b 590 1042 532 1019 556 1042 l 752 1042 b 810 984 787 1042 810 1019 l 810 926 l 926 926 z "},"Ť":{"ha":949,"x_min":0,"x_max":0,"o":"m 926 1157 l 23 1157 l 23 926 l 139 926 l 139 984 b 197 1042 139 1019 162 1042 l 359 1042 b 417 984 394 1042 417 1019 l 417 174 b 359 116 417 139 394 116 l 185 116 l 185 0 l 764 0 l 764 116 l 590 116 b 532 174 556 116 532 139 l 532 984 b 590 1042 532 1019 556 1042 l 752 1042 b 810 984 787 1042 810 1019 l 810 926 l 926 926 z "},"Ţ":{"ha":949,"x_min":0,"x_max":0,"o":"m 926 1157 l 23 1157 l 23 926 l 139 926 l 139 984 b 197 1042 139 1019 162 1042 l 359 1042 b 417 984 394 1042 417 1019 l 417 174 b 359 116 417 139 394 116 l 185 116 l 185 0 l 764 0 l 764 116 l 590 116 b 532 174 556 116 532 139 l 532 984 b 590 1042 532 1019 556 1042 l 752 1042 b 810 984 787 1042 810 1019 l 810 926 l 926 926 z "},"Ț":{"ha":949,"x_min":0,"x_max":0,"o":"m 926 1157 l 23 1157 l 23 926 l 139 926 l 139 984 b 197 1042 139 1019 162 1042 l 359 1042 b 417 984 394 1042 417 1019 l 417 174 b 359 116 417 139 394 116 l 185 116 l 185 0 l 764 0 l 764 116 l 590 116 b 532 174 556 116 532 139 l 532 984 b 590 1042 532 1019 556 1042 l 752 1042 b 810 984 787 1042 810 1019 l 810 926 l 926 926 z "},"U":{"ha":1088,"x_min":0,"x_max":0,"o":"m 1065 1157 l 718 1157 l 718 1042 l 775 1042 b 833 984 810 1042 833 1019 l 833 289 b 775 231 833 255 810 231 l 718 231 l 718 174 b 660 116 718 139 694 116 l 428 116 b 370 174 394 116 370 139 l 370 231 l 313 231 b 255 289 278 231 255 255 l 255 984 b 313 1042 255 1019 278 1042 l 370 1042 l 370 1157 l 23 1157 l 23 1042 l 81 1042 b 139 984 116 1042 139 1019 l 139 231 l 197 231 b 255 174 231 231 255 208 l 255 116 l 313 116 b 370 58 347 116 370 93 l 370 0 l 718 0 l 718 58 b 775 116 718 93 741 116 l 833 116 l 833 174 b 891 231 833 208 856 231 l 949 231 l 949 984 b 1007 1042 949 1019 972 1042 l 1065 1042 z "},"Ú":{"ha":1088,"x_min":0,"x_max":0,"o":"m 1065 1157 l 718 1157 l 718 1042 l 775 1042 b 833 984 810 1042 833 1019 l 833 289 b 775 231 833 255 810 231 l 718 231 l 718 174 b 660 116 718 139 694 116 l 428 116 b 370 174 394 116 370 139 l 370 231 l 313 231 b 255 289 278 231 255 255 l 255 984 b 313 1042 255 1019 278 1042 l 370 1042 l 370 1157 l 23 1157 l 23 1042 l 81 1042 b 139 984 116 1042 139 1019 l 139 231 l 197 231 b 255 174 231 231 255 208 l 255 116 l 313 116 b 370 58 347 116 370 93 l 370 0 l 718 0 l 718 58 b 775 116 718 93 741 116 l 833 116 l 833 174 b 891 231 833 208 856 231 l 949 231 l 949 984 b 1007 1042 949 1019 972 1042 l 1065 1042 z "},"Û":{"ha":1088,"x_min":0,"x_max":0,"o":"m 1065 1157 l 718 1157 l 718 1042 l 775 1042 b 833 984 810 1042 833 1019 l 833 289 b 775 231 833 255 810 231 l 718 231 l 718 174 b 660 116 718 139 694 116 l 428 116 b 370 174 394 116 370 139 l 370 231 l 313 231 b 255 289 278 231 255 255 l 255 984 b 313 1042 255 1019 278 1042 l 370 1042 l 370 1157 l 23 1157 l 23 1042 l 81 1042 b 139 984 116 1042 139 1019 l 139 231 l 197 231 b 255 174 231 231 255 208 l 255 116 l 313 116 b 370 58 347 116 370 93 l 370 0 l 718 0 l 718 58 b 775 116 718 93 741 116 l 833 116 l 833 174 b 891 231 833 208 856 231 l 949 231 l 949 984 b 1007 1042 949 1019 972 1042 l 1065 1042 z "},"Ü":{"ha":1088,"x_min":0,"x_max":0,"o":"m 1065 1157 l 718 1157 l 718 1042 l 775 1042 b 833 984 810 1042 833 1019 l 833 289 b 775 231 833 255 810 231 l 718 231 l 718 174 b 660 116 718 139 694 116 l 428 116 b 370 174 394 116 370 139 l 370 231 l 313 231 b 255 289 278 231 255 255 l 255 984 b 313 1042 255 1019 278 1042 l 370 1042 l 370 1157 l 23 1157 l 23 1042 l 81 1042 b 139 984 116 1042 139 1019 l 139 231 l 197 231 b 255 174 231 231 255 208 l 255 116 l 313 116 b 370 58 347 116 370 93 l 370 0 l 718 0 l 718 58 b 775 116 718 93 741 116 l 833 116 l 833 174 b 891 231 833 208 856 231 l 949 231 l 949 984 b 1007 1042 949 1019 972 1042 l 1065 1042 z "},"Ù":{"ha":1088,"x_min":0,"x_max":0,"o":"m 1065 1157 l 718 1157 l 718 1042 l 775 1042 b 833 984 810 1042 833 1019 l 833 289 b 775 231 833 255 810 231 l 718 231 l 718 174 b 660 116 718 139 694 116 l 428 116 b 370 174 394 116 370 139 l 370 231 l 313 231 b 255 289 278 231 255 255 l 255 984 b 313 1042 255 1019 278 1042 l 370 1042 l 370 1157 l 23 1157 l 23 1042 l 81 1042 b 139 984 116 1042 139 1019 l 139 231 l 197 231 b 255 174 231 231 255 208 l 255 116 l 313 116 b 370 58 347 116 370 93 l 370 0 l 718 0 l 718 58 b 775 116 718 93 741 116 l 833 116 l 833 174 b 891 231 833 208 856 231 l 949 231 l 949 984 b 1007 1042 949 1019 972 1042 l 1065 1042 z "},"Ű":{"ha":1088,"x_min":0,"x_max":0,"o":"m 1065 1157 l 718 1157 l 718 1042 l 775 1042 b 833 984 810 1042 833 1019 l 833 289 b 775 231 833 255 810 231 l 718 231 l 718 174 b 660 116 718 139 694 116 l 428 116 b 370 174 394 116 370 139 l 370 231 l 313 231 b 255 289 278 231 255 255 l 255 984 b 313 1042 255 1019 278 1042 l 370 1042 l 370 1157 l 23 1157 l 23 1042 l 81 1042 b 139 984 116 1042 139 1019 l 139 231 l 197 231 b 255 174 231 231 255 208 l 255 116 l 313 116 b 370 58 347 116 370 93 l 370 0 l 718 0 l 718 58 b 775 116 718 93 741 116 l 833 116 l 833 174 b 891 231 833 208 856 231 l 949 231 l 949 984 b 1007 1042 949 1019 972 1042 l 1065 1042 z "},"Ū":{"ha":1088,"x_min":0,"x_max":0,"o":"m 1065 1157 l 718 1157 l 718 1042 l 775 1042 b 833 984 810 1042 833 1019 l 833 289 b 775 231 833 255 810 231 l 718 231 l 718 174 b 660 116 718 139 694 116 l 428 116 b 370 174 394 116 370 139 l 370 231 l 313 231 b 255 289 278 231 255 255 l 255 984 b 313 1042 255 1019 278 1042 l 370 1042 l 370 1157 l 23 1157 l 23 1042 l 81 1042 b 139 984 116 1042 139 1019 l 139 231 l 197 231 b 255 174 231 231 255 208 l 255 116 l 313 116 b 370 58 347 116 370 93 l 370 0 l 718 0 l 718 58 b 775 116 718 93 741 116 l 833 116 l 833 174 b 891 231 833 208 856 231 l 949 231 l 949 984 b 1007 1042 949 1019 972 1042 l 1065 1042 z "},"Ų":{"ha":1088,"x_min":0,"x_max":0,"o":"m 1065 1157 l 718 1157 l 718 1042 l 775 1042 b 833 984 810 1042 833 1019 l 833 289 b 775 231 833 255 810 231 l 718 231 l 718 174 b 660 116 718 139 694 116 l 428 116 b 370 174 394 116 370 139 l 370 231 l 313 231 b 255 289 278 231 255 255 l 255 984 b 313 1042 255 1019 278 1042 l 370 1042 l 370 1157 l 23 1157 l 23 1042 l 81 1042 b 139 984 116 1042 139 1019 l 139 231 l 197 231 b 255 174 231 231 255 208 l 255 116 l 313 116 b 370 58 347 116 370 93 l 370 0 l 718 0 l 718 58 b 775 116 718 93 741 116 l 833 116 l 833 174 b 891 231 833 208 856 231 l 949 231 l 949 984 b 1007 1042 949 1019 972 1042 l 1065 1042 z "},"Ů":{"ha":1088,"x_min":0,"x_max":0,"o":"m 1065 1157 l 718 1157 l 718 1042 l 775 1042 b 833 984 810 1042 833 1019 l 833 289 b 775 231 833 255 810 231 l 718 231 l 718 174 b 660 116 718 139 694 116 l 428 116 b 370 174 394 116 370 139 l 370 231 l 313 231 b 255 289 278 231 255 255 l 255 984 b 313 1042 255 1019 278 1042 l 370 1042 l 370 1157 l 23 1157 l 23 1042 l 81 1042 b 139 984 116 1042 139 1019 l 139 231 l 197 231 b 255 174 231 231 255 208 l 255 116 l 313 116 b 370 58 347 116 370 93 l 370 0 l 718 0 l 718 58 b 775 116 718 93 741 116 l 833 116 l 833 174 b 891 231 833 208 856 231 l 949 231 l 949 984 b 1007 1042 949 1019 972 1042 l 1065 1042 z "},"V":{"ha":1088,"x_min":0,"x_max":0,"o":"m 1065 1157 l 718 1157 l 718 1042 l 775 1042 b 833 984 810 1042 833 1019 l 833 868 b 775 810 833 833 810 810 l 718 810 l 718 521 b 660 463 718 486 694 463 l 602 463 l 602 289 b 544 231 602 255 579 231 b 486 289 509 231 486 255 l 486 463 l 428 463 b 370 521 394 463 370 486 l 370 810 l 313 810 b 255 868 278 810 255 833 l 255 984 b 313 1042 255 1019 278 1042 l 370 1042 l 370 1157 l 23 1157 l 23 1042 l 81 1042 b 139 984 116 1042 139 1019 l 139 810 l 197 810 b 255 752 231 810 255 787 l 255 463 l 313 463 b 370 405 347 463 370 440 l 370 231 l 428 231 b 486 174 463 231 486 208 l 486 0 l 602 0 l 602 174 b 660 231 602 208 625 231 l 718 231 l 718 405 b 775 463 718 440 741 463 l 833 463 l 833 752 b 891 810 833 787 856 810 l 949 810 l 949 984 b 1007 1042 949 1019 972 1042 l 1065 1042 z "},"W":{"ha":1319,"x_min":0,"x_max":0,"o":"m 1296 1157 l 949 1157 l 949 1042 l 1007 1042 b 1065 984 1042 1042 1065 1019 l 1065 868 b 1007 810 1065 833 1042 810 l 949 810 l 949 405 b 891 347 949 370 926 347 b 833 405 856 347 833 370 l 833 810 l 775 810 b 718 868 741 810 718 833 l 718 984 b 775 1042 718 1019 741 1042 l 833 1042 l 833 1157 l 486 1157 l 486 1042 l 544 1042 b 602 984 579 1042 602 1019 l 602 868 b 544 810 602 833 579 810 l 486 810 l 486 405 b 428 347 486 370 463 347 b 370 405 394 347 370 370 l 370 810 l 313 810 b 255 868 278 810 255 833 l 255 984 b 313 1042 255 1019 278 1042 l 370 1042 l 370 1157 l 23 1157 l 23 1042 l 81 1042 b 139 984 116 1042 139 1019 l 139 810 l 197 810 b 255 752 231 810 255 787 l 255 347 l 313 347 b 370 289 347 347 370 324 l 370 0 l 486 0 l 486 289 b 544 347 486 324 509 347 l 602 347 l 602 752 b 660 810 602 787 625 810 b 718 752 694 810 718 787 l 718 347 l 775 347 b 833 289 810 347 833 324 l 833 0 l 949 0 l 949 289 b 1007 347 949 324 972 347 l 1065 347 l 1065 752 b 1123 810 1065 787 1088 810 l 1181 810 l 1181 984 b 1238 1042 1181 1019 1204 1042 l 1296 1042 z "},"Ẃ":{"ha":1319,"x_min":0,"x_max":0,"o":"m 1296 1157 l 949 1157 l 949 1042 l 1007 1042 b 1065 984 1042 1042 1065 1019 l 1065 868 b 1007 810 1065 833 1042 810 l 949 810 l 949 405 b 891 347 949 370 926 347 b 833 405 856 347 833 370 l 833 810 l 775 810 b 718 868 741 810 718 833 l 718 984 b 775 1042 718 1019 741 1042 l 833 1042 l 833 1157 l 486 1157 l 486 1042 l 544 1042 b 602 984 579 1042 602 1019 l 602 868 b 544 810 602 833 579 810 l 486 810 l 486 405 b 428 347 486 370 463 347 b 370 405 394 347 370 370 l 370 810 l 313 810 b 255 868 278 810 255 833 l 255 984 b 313 1042 255 1019 278 1042 l 370 1042 l 370 1157 l 23 1157 l 23 1042 l 81 1042 b 139 984 116 1042 139 1019 l 139 810 l 197 810 b 255 752 231 810 255 787 l 255 347 l 313 347 b 370 289 347 347 370 324 l 370 0 l 486 0 l 486 289 b 544 347 486 324 509 347 l 602 347 l 602 752 b 660 810 602 787 625 810 b 718 752 694 810 718 787 l 718 347 l 775 347 b 833 289 810 347 833 324 l 833 0 l 949 0 l 949 289 b 1007 347 949 324 972 347 l 1065 347 l 1065 752 b 1123 810 1065 787 1088 810 l 1181 810 l 1181 984 b 1238 1042 1181 1019 1204 1042 l 1296 1042 z "},"Ŵ":{"ha":1319,"x_min":0,"x_max":0,"o":"m 1296 1157 l 949 1157 l 949 1042 l 1007 1042 b 1065 984 1042 1042 1065 1019 l 1065 868 b 1007 810 1065 833 1042 810 l 949 810 l 949 405 b 891 347 949 370 926 347 b 833 405 856 347 833 370 l 833 810 l 775 810 b 718 868 741 810 718 833 l 718 984 b 775 1042 718 1019 741 1042 l 833 1042 l 833 1157 l 486 1157 l 486 1042 l 544 1042 b 602 984 579 1042 602 1019 l 602 868 b 544 810 602 833 579 810 l 486 810 l 486 405 b 428 347 486 370 463 347 b 370 405 394 347 370 370 l 370 810 l 313 810 b 255 868 278 810 255 833 l 255 984 b 313 1042 255 1019 278 1042 l 370 1042 l 370 1157 l 23 1157 l 23 1042 l 81 1042 b 139 984 116 1042 139 1019 l 139 810 l 197 810 b 255 752 231 810 255 787 l 255 347 l 313 347 b 370 289 347 347 370 324 l 370 0 l 486 0 l 486 289 b 544 347 486 324 509 347 l 602 347 l 602 752 b 660 810 602 787 625 810 b 718 752 694 810 718 787 l 718 347 l 775 347 b 833 289 810 347 833 324 l 833 0 l 949 0 l 949 289 b 1007 347 949 324 972 347 l 1065 347 l 1065 752 b 1123 810 1065 787 1088 810 l 1181 810 l 1181 984 b 1238 1042 1181 1019 1204 1042 l 1296 1042 z "},"Ẅ":{"ha":1319,"x_min":0,"x_max":0,"o":"m 1296 1157 l 949 1157 l 949 1042 l 1007 1042 b 1065 984 1042 1042 1065 1019 l 1065 868 b 1007 810 1065 833 1042 810 l 949 810 l 949 405 b 891 347 949 370 926 347 b 833 405 856 347 833 370 l 833 810 l 775 810 b 718 868 741 810 718 833 l 718 984 b 775 1042 718 1019 741 1042 l 833 1042 l 833 1157 l 486 1157 l 486 1042 l 544 1042 b 602 984 579 1042 602 1019 l 602 868 b 544 810 602 833 579 810 l 486 810 l 486 405 b 428 347 486 370 463 347 b 370 405 394 347 370 370 l 370 810 l 313 810 b 255 868 278 810 255 833 l 255 984 b 313 1042 255 1019 278 1042 l 370 1042 l 370 1157 l 23 1157 l 23 1042 l 81 1042 b 139 984 116 1042 139 1019 l 139 810 l 197 810 b 255 752 231 810 255 787 l 255 347 l 313 347 b 370 289 347 347 370 324 l 370 0 l 486 0 l 486 289 b 544 347 486 324 509 347 l 602 347 l 602 752 b 660 810 602 787 625 810 b 718 752 694 810 718 787 l 718 347 l 775 347 b 833 289 810 347 833 324 l 833 0 l 949 0 l 949 289 b 1007 347 949 324 972 347 l 1065 347 l 1065 752 b 1123 810 1065 787 1088 810 l 1181 810 l 1181 984 b 1238 1042 1181 1019 1204 1042 l 1296 1042 z "},"Ẁ":{"ha":1319,"x_min":0,"x_max":0,"o":"m 1296 1157 l 949 1157 l 949 1042 l 1007 1042 b 1065 984 1042 1042 1065 1019 l 1065 868 b 1007 810 1065 833 1042 810 l 949 810 l 949 405 b 891 347 949 370 926 347 b 833 405 856 347 833 370 l 833 810 l 775 810 b 718 868 741 810 718 833 l 718 984 b 775 1042 718 1019 741 1042 l 833 1042 l 833 1157 l 486 1157 l 486 1042 l 544 1042 b 602 984 579 1042 602 1019 l 602 868 b 544 810 602 833 579 810 l 486 810 l 486 405 b 428 347 486 370 463 347 b 370 405 394 347 370 370 l 370 810 l 313 810 b 255 868 278 810 255 833 l 255 984 b 313 1042 255 1019 278 1042 l 370 1042 l 370 1157 l 23 1157 l 23 1042 l 81 1042 b 139 984 116 1042 139 1019 l 139 810 l 197 810 b 255 752 231 810 255 787 l 255 347 l 313 347 b 370 289 347 347 370 324 l 370 0 l 486 0 l 486 289 b 544 347 486 324 509 347 l 602 347 l 602 752 b 660 810 602 787 625 810 b 718 752 694 810 718 787 l 718 347 l 775 347 b 833 289 810 347 833 324 l 833 0 l 949 0 l 949 289 b 1007 347 949 324 972 347 l 1065 347 l 1065 752 b 1123 810 1065 787 1088 810 l 1181 810 l 1181 984 b 1238 1042 1181 1019 1204 1042 l 1296 1042 z "},"X":{"ha":1088,"x_min":0,"x_max":0,"o":"m 602 637 b 660 694 602 671 625 694 l 718 694 l 718 752 b 775 810 718 787 741 810 l 833 810 l 833 868 b 891 926 833 903 856 926 l 949 926 l 949 984 b 1007 1042 949 1019 972 1042 l 1065 1042 l 1065 1157 l 718 1157 l 718 1042 l 775 1042 b 833 984 810 1042 833 1019 b 775 926 833 949 810 926 l 718 926 l 718 868 b 660 810 718 833 694 810 l 602 810 l 602 752 b 544 694 602 718 579 694 b 486 752 509 694 486 718 l 486 810 l 428 810 b 370 868 394 810 370 833 l 370 926 l 313 926 b 255 984 278 926 255 949 b 313 1042 255 1019 278 1042 l 370 1042 l 370 1157 l 23 1157 l 23 1042 l 81 1042 b 139 984 116 1042 139 1019 l 139 926 l 197 926 b 255 868 231 926 255 903 l 255 810 l 313 810 b 370 752 347 810 370 787 l 370 694 l 428 694 b 486 637 463 694 486 671 l 486 521 b 428 463 486 486 463 463 l 370 463 l 370 405 b 313 347 370 370 347 347 l 255 347 l 255 289 b 197 231 255 255 231 231 l 139 231 l 139 174 b 81 116 139 139 116 116 l 23 116 l 23 0 l 370 0 l 370 116 l 313 116 b 255 174 278 116 255 139 b 313 231 255 208 278 231 l 370 231 l 370 289 b 428 347 370 324 394 347 l 486 347 l 486 405 b 544 463 486 440 509 463 b 602 405 579 463 602 440 l 602 347 l 660 347 b 718 289 694 347 718 324 l 718 231 l 775 231 b 833 174 810 231 833 208 b 775 116 833 139 810 116 l 718 116 l 718 0 l 1065 0 l 1065 116 l 1007 116 b 949 174 972 116 949 139 l 949 231 l 891 231 b 833 289 856 231 833 255 l 833 347 l 775 347 b 718 405 741 347 718 370 l 718 463 l 660 463 b 602 521 625 463 602 486 z "},"Y":{"ha":1088,"x_min":0,"x_max":0,"o":"m 1065 1157 l 718 1157 l 718 1042 l 775 1042 b 833 984 810 1042 833 1019 b 775 926 833 949 810 926 l 718 926 l 718 752 b 660 694 718 718 694 694 l 602 694 l 602 521 b 544 463 602 486 579 463 b 486 521 509 463 486 486 l 486 694 l 428 694 b 370 752 394 694 370 718 l 370 926 l 313 926 b 255 984 278 926 255 949 b 313 1042 255 1019 278 1042 l 370 1042 l 370 1157 l 23 1157 l 23 1042 l 81 1042 b 139 984 116 1042 139 1019 l 139 926 l 197 926 b 255 868 231 926 255 903 l 255 694 l 313 694 b 370 637 347 694 370 671 l 370 463 l 428 463 b 486 405 463 463 486 440 l 486 174 b 428 116 486 139 463 116 l 255 116 l 255 0 l 833 0 l 833 116 l 660 116 b 602 174 625 116 602 139 l 602 405 b 660 463 602 440 625 463 l 718 463 l 718 637 b 775 694 718 671 741 694 l 833 694 l 833 868 b 891 926 833 903 856 926 l 949 926 l 949 984 b 1007 1042 949 1019 972 1042 l 1065 1042 z "},"Ý":{"ha":1088,"x_min":0,"x_max":0,"o":"m 1065 1157 l 718 1157 l 718 1042 l 775 1042 b 833 984 810 1042 833 1019 b 775 926 833 949 810 926 l 718 926 l 718 752 b 660 694 718 718 694 694 l 602 694 l 602 521 b 544 463 602 486 579 463 b 486 521 509 463 486 486 l 486 694 l 428 694 b 370 752 394 694 370 718 l 370 926 l 313 926 b 255 984 278 926 255 949 b 313 1042 255 1019 278 1042 l 370 1042 l 370 1157 l 23 1157 l 23 1042 l 81 1042 b 139 984 116 1042 139 1019 l 139 926 l 197 926 b 255 868 231 926 255 903 l 255 694 l 313 694 b 370 637 347 694 370 671 l 370 463 l 428 463 b 486 405 463 463 486 440 l 486 174 b 428 116 486 139 463 116 l 255 116 l 255 0 l 833 0 l 833 116 l 660 116 b 602 174 625 116 602 139 l 602 405 b 660 463 602 440 625 463 l 718 463 l 718 637 b 775 694 718 671 741 694 l 833 694 l 833 868 b 891 926 833 903 856 926 l 949 926 l 949 984 b 1007 1042 949 1019 972 1042 l 1065 1042 z "},"Ŷ":{"ha":1088,"x_min":0,"x_max":0,"o":"m 1065 1157 l 718 1157 l 718 1042 l 775 1042 b 833 984 810 1042 833 1019 b 775 926 833 949 810 926 l 718 926 l 718 752 b 660 694 718 718 694 694 l 602 694 l 602 521 b 544 463 602 486 579 463 b 486 521 509 463 486 486 l 486 694 l 428 694 b 370 752 394 694 370 718 l 370 926 l 313 926 b 255 984 278 926 255 949 b 313 1042 255 1019 278 1042 l 370 1042 l 370 1157 l 23 1157 l 23 1042 l 81 1042 b 139 984 116 1042 139 1019 l 139 926 l 197 926 b 255 868 231 926 255 903 l 255 694 l 313 694 b 370 637 347 694 370 671 l 370 463 l 428 463 b 486 405 463 463 486 440 l 486 174 b 428 116 486 139 463 116 l 255 116 l 255 0 l 833 0 l 833 116 l 660 116 b 602 174 625 116 602 139 l 602 405 b 660 463 602 440 625 463 l 718 463 l 718 637 b 775 694 718 671 741 694 l 833 694 l 833 868 b 891 926 833 903 856 926 l 949 926 l 949 984 b 1007 1042 949 1019 972 1042 l 1065 1042 z "},"Ÿ":{"ha":1088,"x_min":0,"x_max":0,"o":"m 1065 1157 l 718 1157 l 718 1042 l 775 1042 b 833 984 810 1042 833 1019 b 775 926 833 949 810 926 l 718 926 l 718 752 b 660 694 718 718 694 694 l 602 694 l 602 521 b 544 463 602 486 579 463 b 486 521 509 463 486 486 l 486 694 l 428 694 b 370 752 394 694 370 718 l 370 926 l 313 926 b 255 984 278 926 255 949 b 313 1042 255 1019 278 1042 l 370 1042 l 370 1157 l 23 1157 l 23 1042 l 81 1042 b 139 984 116 1042 139 1019 l 139 926 l 197 926 b 255 868 231 926 255 903 l 255 694 l 313 694 b 370 637 347 694 370 671 l 370 463 l 428 463 b 486 405 463 463 486 440 l 486 174 b 428 116 486 139 463 116 l 255 116 l 255 0 l 833 0 l 833 116 l 660 116 b 602 174 625 116 602 139 l 602 405 b 660 463 602 440 625 463 l 718 463 l 718 637 b 775 694 718 671 741 694 l 833 694 l 833 868 b 891 926 833 903 856 926 l 949 926 l 949 984 b 1007 1042 949 1019 972 1042 l 1065 1042 z "},"Ỳ":{"ha":1088,"x_min":0,"x_max":0,"o":"m 1065 1157 l 718 1157 l 718 1042 l 775 1042 b 833 984 810 1042 833 1019 b 775 926 833 949 810 926 l 718 926 l 718 752 b 660 694 718 718 694 694 l 602 694 l 602 521 b 544 463 602 486 579 463 b 486 521 509 463 486 486 l 486 694 l 428 694 b 370 752 394 694 370 718 l 370 926 l 313 926 b 255 984 278 926 255 949 b 313 1042 255 1019 278 1042 l 370 1042 l 370 1157 l 23 1157 l 23 1042 l 81 1042 b 139 984 116 1042 139 1019 l 139 926 l 197 926 b 255 868 231 926 255 903 l 255 694 l 313 694 b 370 637 347 694 370 671 l 370 463 l 428 463 b 486 405 463 463 486 440 l 486 174 b 428 116 486 139 463 116 l 255 116 l 255 0 l 833 0 l 833 116 l 660 116 b 602 174 625 116 602 139 l 602 405 b 660 463 602 440 625 463 l 718 463 l 718 637 b 775 694 718 671 741 694 l 833 694 l 833 868 b 891 926 833 903 856 926 l 949 926 l 949 984 b 1007 1042 949 1019 972 1042 l 1065 1042 z "},"Z":{"ha":741,"x_min":0,"x_max":0,"o":"m 718 1157 l 23 1157 l 23 926 l 139 926 l 139 984 b 197 1042 139 1019 162 1042 l 544 1042 b 602 984 579 1042 602 1019 b 544 926 602 949 579 926 l 486 926 l 486 752 b 428 694 486 718 463 694 l 370 694 l 370 637 b 313 579 370 602 347 579 l 255 579 l 255 521 b 197 463 255 486 231 463 l 139 463 l 139 289 b 81 231 139 255 116 231 l 23 231 l 23 0 l 718 0 l 718 231 l 602 231 l 602 174 b 544 116 602 139 579 116 l 197 116 b 139 174 162 116 139 139 b 197 231 139 208 162 231 l 255 231 l 255 405 b 313 463 255 440 278 463 l 370 463 l 370 521 b 428 579 370 556 394 579 l 486 579 l 486 637 b 544 694 486 671 509 694 l 602 694 l 602 868 b 660 926 602 903 625 926 l 718 926 z "},"Ź":{"ha":741,"x_min":0,"x_max":0,"o":"m 718 1157 l 23 1157 l 23 926 l 139 926 l 139 984 b 197 1042 139 1019 162 1042 l 544 1042 b 602 984 579 1042 602 1019 b 544 926 602 949 579 926 l 486 926 l 486 752 b 428 694 486 718 463 694 l 370 694 l 370 637 b 313 579 370 602 347 579 l 255 579 l 255 521 b 197 463 255 486 231 463 l 139 463 l 139 289 b 81 231 139 255 116 231 l 23 231 l 23 0 l 718 0 l 718 231 l 602 231 l 602 174 b 544 116 602 139 579 116 l 197 116 b 139 174 162 116 139 139 b 197 231 139 208 162 231 l 255 231 l 255 405 b 313 463 255 440 278 463 l 370 463 l 370 521 b 428 579 370 556 394 579 l 486 579 l 486 637 b 544 694 486 671 509 694 l 602 694 l 602 868 b 660 926 602 903 625 926 l 718 926 z "},"Ž":{"ha":741,"x_min":0,"x_max":0,"o":"m 718 1157 l 23 1157 l 23 926 l 139 926 l 139 984 b 197 1042 139 1019 162 1042 l 544 1042 b 602 984 579 1042 602 1019 b 544 926 602 949 579 926 l 486 926 l 486 752 b 428 694 486 718 463 694 l 370 694 l 370 637 b 313 579 370 602 347 579 l 255 579 l 255 521 b 197 463 255 486 231 463 l 139 463 l 139 289 b 81 231 139 255 116 231 l 23 231 l 23 0 l 718 0 l 718 231 l 602 231 l 602 174 b 544 116 602 139 579 116 l 197 116 b 139 174 162 116 139 139 b 197 231 139 208 162 231 l 255 231 l 255 405 b 313 463 255 440 278 463 l 370 463 l 370 521 b 428 579 370 556 394 579 l 486 579 l 486 637 b 544 694 486 671 509 694 l 602 694 l 602 868 b 660 926 602 903 625 926 l 718 926 z "},"Ż":{"ha":741,"x_min":0,"x_max":0,"o":"m 718 1157 l 23 1157 l 23 926 l 139 926 l 139 984 b 197 1042 139 1019 162 1042 l 544 1042 b 602 984 579 1042 602 1019 b 544 926 602 949 579 926 l 486 926 l 486 752 b 428 694 486 718 463 694 l 370 694 l 370 637 b 313 579 370 602 347 579 l 255 579 l 255 521 b 197 463 255 486 231 463 l 139 463 l 139 289 b 81 231 139 255 116 231 l 23 231 l 23 0 l 718 0 l 718 231 l 602 231 l 602 174 b 544 116 602 139 579 116 l 197 116 b 139 174 162 116 139 139 b 197 231 139 208 162 231 l 255 231 l 255 405 b 313 463 255 440 278 463 l 370 463 l 370 521 b 428 579 370 556 394 579 l 486 579 l 486 637 b 544 694 486 671 509 694 l 602 694 l 602 868 b 660 926 602 903 625 926 l 718 926 z "},"a":{"ha":741,"x_min":0,"x_max":0,"o":"m 660 116 b 602 174 625 116 602 139 l 602 694 l 544 694 b 486 752 509 694 486 718 l 486 810 l 139 810 l 139 752 b 81 694 139 718 116 694 l 23 694 l 23 579 l 139 579 l 139 637 b 197 694 139 671 162 694 l 428 694 b 486 637 463 694 486 671 b 428 579 486 602 463 579 l 370 579 l 370 521 b 313 463 370 486 347 463 l 139 463 l 139 405 b 81 347 139 370 116 347 l 23 347 l 23 116 l 81 116 b 139 58 116 116 139 93 l 139 0 l 370 0 l 370 58 b 428 116 370 93 394 116 b 486 58 463 116 486 93 l 486 0 l 718 0 l 718 116 z m 370 174 b 313 116 370 139 347 116 l 197 116 b 139 174 162 116 139 139 l 139 289 b 197 347 139 324 162 347 l 370 347 l 370 405 b 428 463 370 440 394 463 b 486 405 463 463 486 440 l 486 289 b 428 231 486 255 463 231 l 370 231 z "},"á":{"ha":741,"x_min":0,"x_max":0,"o":"m 660 116 b 602 174 625 116 602 139 l 602 694 l 544 694 b 486 752 509 694 486 718 l 486 810 l 139 810 l 139 752 b 81 694 139 718 116 694 l 23 694 l 23 579 l 139 579 l 139 637 b 197 694 139 671 162 694 l 428 694 b 486 637 463 694 486 671 b 428 579 486 602 463 579 l 370 579 l 370 521 b 313 463 370 486 347 463 l 139 463 l 139 405 b 81 347 139 370 116 347 l 23 347 l 23 116 l 81 116 b 139 58 116 116 139 93 l 139 0 l 370 0 l 370 58 b 428 116 370 93 394 116 b 486 58 463 116 486 93 l 486 0 l 718 0 l 718 116 z m 370 174 b 313 116 370 139 347 116 l 197 116 b 139 174 162 116 139 139 l 139 289 b 197 347 139 324 162 347 l 370 347 l 370 405 b 428 463 370 440 394 463 b 486 405 463 463 486 440 l 486 289 b 428 231 486 255 463 231 l 370 231 z "},"ă":{"ha":741,"x_min":0,"x_max":0,"o":"m 660 116 b 602 174 625 116 602 139 l 602 694 l 544 694 b 486 752 509 694 486 718 l 486 810 l 139 810 l 139 752 b 81 694 139 718 116 694 l 23 694 l 23 579 l 139 579 l 139 637 b 197 694 139 671 162 694 l 428 694 b 486 637 463 694 486 671 b 428 579 486 602 463 579 l 370 579 l 370 521 b 313 463 370 486 347 463 l 139 463 l 139 405 b 81 347 139 370 116 347 l 23 347 l 23 116 l 81 116 b 139 58 116 116 139 93 l 139 0 l 370 0 l 370 58 b 428 116 370 93 394 116 b 486 58 463 116 486 93 l 486 0 l 718 0 l 718 116 z m 370 174 b 313 116 370 139 347 116 l 197 116 b 139 174 162 116 139 139 l 139 289 b 197 347 139 324 162 347 l 370 347 l 370 405 b 428 463 370 440 394 463 b 486 405 463 463 486 440 l 486 289 b 428 231 486 255 463 231 l 370 231 z "},"â":{"ha":741,"x_min":0,"x_max":0,"o":"m 660 116 b 602 174 625 116 602 139 l 602 694 l 544 694 b 486 752 509 694 486 718 l 486 810 l 139 810 l 139 752 b 81 694 139 718 116 694 l 23 694 l 23 579 l 139 579 l 139 637 b 197 694 139 671 162 694 l 428 694 b 486 637 463 694 486 671 b 428 579 486 602 463 579 l 370 579 l 370 521 b 313 463 370 486 347 463 l 139 463 l 139 405 b 81 347 139 370 116 347 l 23 347 l 23 116 l 81 116 b 139 58 116 116 139 93 l 139 0 l 370 0 l 370 58 b 428 116 370 93 394 116 b 486 58 463 116 486 93 l 486 0 l 718 0 l 718 116 z m 370 174 b 313 116 370 139 347 116 l 197 116 b 139 174 162 116 139 139 l 139 289 b 197 347 139 324 162 347 l 370 347 l 370 405 b 428 463 370 440 394 463 b 486 405 463 463 486 440 l 486 289 b 428 231 486 255 463 231 l 370 231 z "},"ä":{"ha":741,"x_min":0,"x_max":0,"o":"m 660 116 b 602 174 625 116 602 139 l 602 694 l 544 694 b 486 752 509 694 486 718 l 486 810 l 139 810 l 139 752 b 81 694 139 718 116 694 l 23 694 l 23 579 l 139 579 l 139 637 b 197 694 139 671 162 694 l 428 694 b 486 637 463 694 486 671 b 428 579 486 602 463 579 l 370 579 l 370 521 b 313 463 370 486 347 463 l 139 463 l 139 405 b 81 347 139 370 116 347 l 23 347 l 23 116 l 81 116 b 139 58 116 116 139 93 l 139 0 l 370 0 l 370 58 b 428 116 370 93 394 116 b 486 58 463 116 486 93 l 486 0 l 718 0 l 718 116 z m 370 174 b 313 116 370 139 347 116 l 197 116 b 139 174 162 116 139 139 l 139 289 b 197 347 139 324 162 347 l 370 347 l 370 405 b 428 463 370 440 394 463 b 486 405 463 463 486 440 l 486 289 b 428 231 486 255 463 231 l 370 231 z "},"à":{"ha":741,"x_min":0,"x_max":0,"o":"m 660 116 b 602 174 625 116 602 139 l 602 694 l 544 694 b 486 752 509 694 486 718 l 486 810 l 139 810 l 139 752 b 81 694 139 718 116 694 l 23 694 l 23 579 l 139 579 l 139 637 b 197 694 139 671 162 694 l 428 694 b 486 637 463 694 486 671 b 428 579 486 602 463 579 l 370 579 l 370 521 b 313 463 370 486 347 463 l 139 463 l 139 405 b 81 347 139 370 116 347 l 23 347 l 23 116 l 81 116 b 139 58 116 116 139 93 l 139 0 l 370 0 l 370 58 b 428 116 370 93 394 116 b 486 58 463 116 486 93 l 486 0 l 718 0 l 718 116 z m 370 174 b 313 116 370 139 347 116 l 197 116 b 139 174 162 116 139 139 l 139 289 b 197 347 139 324 162 347 l 370 347 l 370 405 b 428 463 370 440 394 463 b 486 405 463 463 486 440 l 486 289 b 428 231 486 255 463 231 l 370 231 z "},"ā":{"ha":741,"x_min":0,"x_max":0,"o":"m 660 116 b 602 174 625 116 602 139 l 602 694 l 544 694 b 486 752 509 694 486 718 l 486 810 l 139 810 l 139 752 b 81 694 139 718 116 694 l 23 694 l 23 579 l 139 579 l 139 637 b 197 694 139 671 162 694 l 428 694 b 486 637 463 694 486 671 b 428 579 486 602 463 579 l 370 579 l 370 521 b 313 463 370 486 347 463 l 139 463 l 139 405 b 81 347 139 370 116 347 l 23 347 l 23 116 l 81 116 b 139 58 116 116 139 93 l 139 0 l 370 0 l 370 58 b 428 116 370 93 394 116 b 486 58 463 116 486 93 l 486 0 l 718 0 l 718 116 z m 370 174 b 313 116 370 139 347 116 l 197 116 b 139 174 162 116 139 139 l 139 289 b 197 347 139 324 162 347 l 370 347 l 370 405 b 428 463 370 440 394 463 b 486 405 463 463 486 440 l 486 289 b 428 231 486 255 463 231 l 370 231 z "},"ą":{"ha":741,"x_min":0,"x_max":0,"o":"m 660 116 b 602 174 625 116 602 139 l 602 694 l 544 694 b 486 752 509 694 486 718 l 486 810 l 139 810 l 139 752 b 81 694 139 718 116 694 l 23 694 l 23 579 l 139 579 l 139 637 b 197 694 139 671 162 694 l 428 694 b 486 637 463 694 486 671 b 428 579 486 602 463 579 l 370 579 l 370 521 b 313 463 370 486 347 463 l 139 463 l 139 405 b 81 347 139 370 116 347 l 23 347 l 23 116 l 81 116 b 139 58 116 116 139 93 l 139 0 l 370 0 l 370 58 b 428 116 370 93 394 116 b 486 58 463 116 486 93 l 486 0 l 718 0 l 718 116 z m 370 174 b 313 116 370 139 347 116 l 197 116 b 139 174 162 116 139 139 l 139 289 b 197 347 139 324 162 347 l 370 347 l 370 405 b 428 463 370 440 394 463 b 486 405 463 463 486 440 l 486 289 b 428 231 486 255 463 231 l 370 231 z "},"å":{"ha":741,"x_min":0,"x_max":0,"o":"m 660 116 b 602 174 625 116 602 139 l 602 694 l 544 694 b 486 752 509 694 486 718 l 486 810 l 139 810 l 139 752 b 81 694 139 718 116 694 l 23 694 l 23 579 l 139 579 l 139 637 b 197 694 139 671 162 694 l 428 694 b 486 637 463 694 486 671 b 428 579 486 602 463 579 l 370 579 l 370 521 b 313 463 370 486 347 463 l 139 463 l 139 405 b 81 347 139 370 116 347 l 23 347 l 23 116 l 81 116 b 139 58 116 116 139 93 l 139 0 l 370 0 l 370 58 b 428 116 370 93 394 116 b 486 58 463 116 486 93 l 486 0 l 718 0 l 718 116 z m 370 174 b 313 116 370 139 347 116 l 197 116 b 139 174 162 116 139 139 l 139 289 b 197 347 139 324 162 347 l 370 347 l 370 405 b 428 463 370 440 394 463 b 486 405 463 463 486 440 l 486 289 b 428 231 486 255 463 231 l 370 231 z "},"ã":{"ha":741,"x_min":0,"x_max":0,"o":"m 660 116 b 602 174 625 116 602 139 l 602 694 l 544 694 b 486 752 509 694 486 718 l 486 810 l 139 810 l 139 752 b 81 694 139 718 116 694 l 23 694 l 23 579 l 139 579 l 139 637 b 197 694 139 671 162 694 l 428 694 b 486 637 463 694 486 671 b 428 579 486 602 463 579 l 370 579 l 370 521 b 313 463 370 486 347 463 l 139 463 l 139 405 b 81 347 139 370 116 347 l 23 347 l 23 116 l 81 116 b 139 58 116 116 139 93 l 139 0 l 370 0 l 370 58 b 428 116 370 93 394 116 b 486 58 463 116 486 93 l 486 0 l 718 0 l 718 116 z m 370 174 b 313 116 370 139 347 116 l 197 116 b 139 174 162 116 139 139 l 139 289 b 197 347 139 324 162 347 l 370 347 l 370 405 b 428 463 370 440 394 463 b 486 405 463 463 486 440 l 486 289 b 428 231 486 255 463 231 l 370 231 z "},"æ":{"ha":741,"x_min":0,"x_max":0,"o":"m 660 116 b 602 174 625 116 602 139 l 602 694 l 544 694 b 486 752 509 694 486 718 l 486 810 l 139 810 l 139 752 b 81 694 139 718 116 694 l 23 694 l 23 579 l 139 579 l 139 637 b 197 694 139 671 162 694 l 428 694 b 486 637 463 694 486 671 b 428 579 486 602 463 579 l 370 579 l 370 521 b 313 463 370 486 347 463 l 139 463 l 139 405 b 81 347 139 370 116 347 l 23 347 l 23 116 l 81 116 b 139 58 116 116 139 93 l 139 0 l 370 0 l 370 58 b 428 116 370 93 394 116 b 486 58 463 116 486 93 l 486 0 l 718 0 l 718 116 z m 370 174 b 313 116 370 139 347 116 l 197 116 b 139 174 162 116 139 139 l 139 289 b 197 347 139 324 162 347 l 370 347 l 370 405 b 428 463 370 440 394 463 b 486 405 463 463 486 440 l 486 289 b 428 231 486 255 463 231 l 370 231 z "},"b":{"ha":741,"x_min":0,"x_max":0,"o":"m 660 579 b 602 637 625 579 602 602 l 602 694 l 544 694 b 486 752 509 694 486 718 l 486 810 l 255 810 l 255 752 b 197 694 255 718 231 694 b 139 752 162 694 139 718 l 139 1273 l 23 1273 l 23 1215 b -35 1157 23 1181 0 1157 l -93 1157 l -93 1042 l -35 1042 b 23 984 0 1042 23 1019 l 23 116 l 81 116 b 139 58 116 116 139 93 l 139 0 l 486 0 l 486 58 b 544 116 486 93 509 116 l 602 116 l 602 174 b 660 231 602 208 625 231 l 718 231 l 718 579 z m 602 289 b 544 231 602 255 579 231 l 486 231 l 486 174 b 428 116 486 139 463 116 l 197 116 b 139 174 162 116 139 139 l 139 521 b 197 579 139 556 162 579 l 255 579 l 255 637 b 313 694 255 671 278 694 l 428 694 b 486 637 463 694 486 671 l 486 579 l 544 579 b 602 521 579 579 602 556 z "},"c":{"ha":625,"x_min":0,"x_max":0,"o":"m 602 694 l 544 694 b 486 752 509 694 486 718 l 486 810 l 139 810 l 139 752 b 81 694 139 718 116 694 l 23 694 l 23 116 l 81 116 b 139 58 116 116 139 93 l 139 0 l 486 0 l 486 58 b 544 116 486 93 509 116 l 602 116 l 602 231 l 486 231 l 486 174 b 428 116 486 139 463 116 l 197 116 b 139 174 162 116 139 139 l 139 637 b 197 694 139 671 162 694 l 428 694 b 486 637 463 694 486 671 l 486 579 l 602 579 z "},"ć":{"ha":625,"x_min":0,"x_max":0,"o":"m 602 694 l 544 694 b 486 752 509 694 486 718 l 486 810 l 139 810 l 139 752 b 81 694 139 718 116 694 l 23 694 l 23 116 l 81 116 b 139 58 116 116 139 93 l 139 0 l 486 0 l 486 58 b 544 116 486 93 509 116 l 602 116 l 602 231 l 486 231 l 486 174 b 428 116 486 139 463 116 l 197 116 b 139 174 162 116 139 139 l 139 637 b 197 694 139 671 162 694 l 428 694 b 486 637 463 694 486 671 l 486 579 l 602 579 z "},"č":{"ha":625,"x_min":0,"x_max":0,"o":"m 602 694 l 544 694 b 486 752 509 694 486 718 l 486 810 l 139 810 l 139 752 b 81 694 139 718 116 694 l 23 694 l 23 116 l 81 116 b 139 58 116 116 139 93 l 139 0 l 486 0 l 486 58 b 544 116 486 93 509 116 l 602 116 l 602 231 l 486 231 l 486 174 b 428 116 486 139 463 116 l 197 116 b 139 174 162 116 139 139 l 139 637 b 197 694 139 671 162 694 l 428 694 b 486 637 463 694 486 671 l 486 579 l 602 579 z "},"ç":{"ha":625,"x_min":0,"x_max":0,"o":"m 602 694 l 544 694 b 486 752 509 694 486 718 l 486 810 l 139 810 l 139 752 b 81 694 139 718 116 694 l 23 694 l 23 116 l 81 116 b 139 58 116 116 139 93 l 139 0 l 486 0 l 486 58 b 544 116 486 93 509 116 l 602 116 l 602 231 l 486 231 l 486 174 b 428 116 486 139 463 116 l 197 116 b 139 174 162 116 139 139 l 139 637 b 197 694 139 671 162 694 l 428 694 b 486 637 463 694 486 671 l 486 579 l 602 579 z "},"ċ":{"ha":625,"x_min":0,"x_max":0,"o":"m 602 694 l 544 694 b 486 752 509 694 486 718 l 486 810 l 139 810 l 139 752 b 81 694 139 718 116 694 l 23 694 l 23 116 l 81 116 b 139 58 116 116 139 93 l 139 0 l 486 0 l 486 58 b 544 116 486 93 509 116 l 602 116 l 602 231 l 486 231 l 486 174 b 428 116 486 139 463 116 l 197 116 b 139 174 162 116 139 139 l 139 637 b 197 694 139 671 162 694 l 428 694 b 486 637 463 694 486 671 l 486 579 l 602 579 z "},"d":{"ha":856,"x_min":0,"x_max":0,"o":"m 775 231 b 718 289 741 231 718 255 l 718 1273 l 602 1273 l 602 1215 b 544 1157 602 1181 579 1157 l 486 1157 l 486 1042 l 544 1042 b 602 984 579 1042 602 1019 l 602 752 b 544 694 602 718 579 694 b 486 752 509 694 486 718 l 486 810 l 255 810 l 255 752 b 197 694 255 718 231 694 l 139 694 l 139 637 b 81 579 139 602 116 579 l 23 579 l 23 231 l 81 231 b 139 174 116 231 139 208 l 139 116 l 197 116 b 255 58 231 116 255 93 l 255 0 l 486 0 l 486 58 b 544 116 486 93 509 116 b 602 58 579 116 602 93 l 602 0 l 718 0 l 718 58 b 775 116 718 93 741 116 l 833 116 l 833 231 z m 486 174 b 428 116 486 139 463 116 l 313 116 b 255 174 278 116 255 139 l 255 231 l 197 231 b 139 289 162 231 139 255 l 139 521 b 197 579 139 556 162 579 l 255 579 l 255 637 b 313 694 255 671 278 694 l 428 694 b 486 637 463 694 486 671 l 486 579 l 544 579 b 602 521 579 579 602 556 l 602 289 b 544 231 602 255 579 231 l 486 231 z "},"ð":{"ha":856,"x_min":0,"x_max":0,"o":"m 775 231 b 718 289 741 231 718 255 l 718 1273 l 602 1273 l 602 1215 b 544 1157 602 1181 579 1157 l 486 1157 l 486 1042 l 544 1042 b 602 984 579 1042 602 1019 l 602 752 b 544 694 602 718 579 694 b 486 752 509 694 486 718 l 486 810 l 255 810 l 255 752 b 197 694 255 718 231 694 l 139 694 l 139 637 b 81 579 139 602 116 579 l 23 579 l 23 231 l 81 231 b 139 174 116 231 139 208 l 139 116 l 197 116 b 255 58 231 116 255 93 l 255 0 l 486 0 l 486 58 b 544 116 486 93 509 116 b 602 58 579 116 602 93 l 602 0 l 718 0 l 718 58 b 775 116 718 93 741 116 l 833 116 l 833 231 z m 486 174 b 428 116 486 139 463 116 l 313 116 b 255 174 278 116 255 139 l 255 231 l 197 231 b 139 289 162 231 139 255 l 139 521 b 197 579 139 556 162 579 l 255 579 l 255 637 b 313 694 255 671 278 694 l 428 694 b 486 637 463 694 486 671 l 486 579 l 544 579 b 602 521 579 579 602 556 l 602 289 b 544 231 602 255 579 231 l 486 231 z "},"ď":{"ha":856,"x_min":0,"x_max":0,"o":"m 775 231 b 718 289 741 231 718 255 l 718 1273 l 602 1273 l 602 1215 b 544 1157 602 1181 579 1157 l 486 1157 l 486 1042 l 544 1042 b 602 984 579 1042 602 1019 l 602 752 b 544 694 602 718 579 694 b 486 752 509 694 486 718 l 486 810 l 255 810 l 255 752 b 197 694 255 718 231 694 l 139 694 l 139 637 b 81 579 139 602 116 579 l 23 579 l 23 231 l 81 231 b 139 174 116 231 139 208 l 139 116 l 197 116 b 255 58 231 116 255 93 l 255 0 l 486 0 l 486 58 b 544 116 486 93 509 116 b 602 58 579 116 602 93 l 602 0 l 718 0 l 718 58 b 775 116 718 93 741 116 l 833 116 l 833 231 z m 486 174 b 428 116 486 139 463 116 l 313 116 b 255 174 278 116 255 139 l 255 231 l 197 231 b 139 289 162 231 139 255 l 139 521 b 197 579 139 556 162 579 l 255 579 l 255 637 b 313 694 255 671 278 694 l 428 694 b 486 637 463 694 486 671 l 486 579 l 544 579 b 602 521 579 579 602 556 l 602 289 b 544 231 602 255 579 231 l 486 231 z "},"đ":{"ha":856,"x_min":0,"x_max":0,"o":"m 775 231 b 718 289 741 231 718 255 l 718 1273 l 602 1273 l 602 1215 b 544 1157 602 1181 579 1157 l 486 1157 l 486 1042 l 544 1042 b 602 984 579 1042 602 1019 l 602 752 b 544 694 602 718 579 694 b 486 752 509 694 486 718 l 486 810 l 255 810 l 255 752 b 197 694 255 718 231 694 l 139 694 l 139 637 b 81 579 139 602 116 579 l 23 579 l 23 231 l 81 231 b 139 174 116 231 139 208 l 139 116 l 197 116 b 255 58 231 116 255 93 l 255 0 l 486 0 l 486 58 b 544 116 486 93 509 116 b 602 58 579 116 602 93 l 602 0 l 718 0 l 718 58 b 775 116 718 93 741 116 l 833 116 l 833 231 z m 486 174 b 428 116 486 139 463 116 l 313 116 b 255 174 278 116 255 139 l 255 231 l 197 231 b 139 289 162 231 139 255 l 139 521 b 197 579 139 556 162 579 l 255 579 l 255 637 b 313 694 255 671 278 694 l 428 694 b 486 637 463 694 486 671 l 486 579 l 544 579 b 602 521 579 579 602 556 l 602 289 b 544 231 602 255 579 231 l 486 231 z "},"e":{"ha":625,"x_min":0,"x_max":0,"o":"m 544 694 b 486 752 509 694 486 718 l 486 810 l 139 810 l 139 752 b 81 694 139 718 116 694 l 23 694 l 23 116 l 81 116 b 139 58 116 116 139 93 l 139 0 l 486 0 l 486 58 b 544 116 486 93 509 116 l 602 116 l 602 231 l 486 231 l 486 174 b 428 116 486 139 463 116 l 197 116 b 139 174 162 116 139 139 l 139 405 b 197 463 139 440 162 463 l 602 463 l 602 694 z m 428 579 l 197 579 b 139 637 162 579 139 602 b 197 694 139 671 162 694 l 428 694 b 486 637 463 694 486 671 b 428 579 486 602 463 579 z "},"é":{"ha":625,"x_min":0,"x_max":0,"o":"m 544 694 b 486 752 509 694 486 718 l 486 810 l 139 810 l 139 752 b 81 694 139 718 116 694 l 23 694 l 23 116 l 81 116 b 139 58 116 116 139 93 l 139 0 l 486 0 l 486 58 b 544 116 486 93 509 116 l 602 116 l 602 231 l 486 231 l 486 174 b 428 116 486 139 463 116 l 197 116 b 139 174 162 116 139 139 l 139 405 b 197 463 139 440 162 463 l 602 463 l 602 694 z m 428 579 l 197 579 b 139 637 162 579 139 602 b 197 694 139 671 162 694 l 428 694 b 486 637 463 694 486 671 b 428 579 486 602 463 579 z "},"ě":{"ha":625,"x_min":0,"x_max":0,"o":"m 544 694 b 486 752 509 694 486 718 l 486 810 l 139 810 l 139 752 b 81 694 139 718 116 694 l 23 694 l 23 116 l 81 116 b 139 58 116 116 139 93 l 139 0 l 486 0 l 486 58 b 544 116 486 93 509 116 l 602 116 l 602 231 l 486 231 l 486 174 b 428 116 486 139 463 116 l 197 116 b 139 174 162 116 139 139 l 139 405 b 197 463 139 440 162 463 l 602 463 l 602 694 z m 428 579 l 197 579 b 139 637 162 579 139 602 b 197 694 139 671 162 694 l 428 694 b 486 637 463 694 486 671 b 428 579 486 602 463 579 z "},"ê":{"ha":625,"x_min":0,"x_max":0,"o":"m 544 694 b 486 752 509 694 486 718 l 486 810 l 139 810 l 139 752 b 81 694 139 718 116 694 l 23 694 l 23 116 l 81 116 b 139 58 116 116 139 93 l 139 0 l 486 0 l 486 58 b 544 116 486 93 509 116 l 602 116 l 602 231 l 486 231 l 486 174 b 428 116 486 139 463 116 l 197 116 b 139 174 162 116 139 139 l 139 405 b 197 463 139 440 162 463 l 602 463 l 602 694 z m 428 579 l 197 579 b 139 637 162 579 139 602 b 197 694 139 671 162 694 l 428 694 b 486 637 463 694 486 671 b 428 579 486 602 463 579 z "},"ë":{"ha":625,"x_min":0,"x_max":0,"o":"m 544 694 b 486 752 509 694 486 718 l 486 810 l 139 810 l 139 752 b 81 694 139 718 116 694 l 23 694 l 23 116 l 81 116 b 139 58 116 116 139 93 l 139 0 l 486 0 l 486 58 b 544 116 486 93 509 116 l 602 116 l 602 231 l 486 231 l 486 174 b 428 116 486 139 463 116 l 197 116 b 139 174 162 116 139 139 l 139 405 b 197 463 139 440 162 463 l 602 463 l 602 694 z m 428 579 l 197 579 b 139 637 162 579 139 602 b 197 694 139 671 162 694 l 428 694 b 486 637 463 694 486 671 b 428 579 486 602 463 579 z "},"ė":{"ha":625,"x_min":0,"x_max":0,"o":"m 544 694 b 486 752 509 694 486 718 l 486 810 l 139 810 l 139 752 b 81 694 139 718 116 694 l 23 694 l 23 116 l 81 116 b 139 58 116 116 139 93 l 139 0 l 486 0 l 486 58 b 544 116 486 93 509 116 l 602 116 l 602 231 l 486 231 l 486 174 b 428 116 486 139 463 116 l 197 116 b 139 174 162 116 139 139 l 139 405 b 197 463 139 440 162 463 l 602 463 l 602 694 z m 428 579 l 197 579 b 139 637 162 579 139 602 b 197 694 139 671 162 694 l 428 694 b 486 637 463 694 486 671 b 428 579 486 602 463 579 z "},"è":{"ha":625,"x_min":0,"x_max":0,"o":"m 544 694 b 486 752 509 694 486 718 l 486 810 l 139 810 l 139 752 b 81 694 139 718 116 694 l 23 694 l 23 116 l 81 116 b 139 58 116 116 139 93 l 139 0 l 486 0 l 486 58 b 544 116 486 93 509 116 l 602 116 l 602 231 l 486 231 l 486 174 b 428 116 486 139 463 116 l 197 116 b 139 174 162 116 139 139 l 139 405 b 197 463 139 440 162 463 l 602 463 l 602 694 z m 428 579 l 197 579 b 139 637 162 579 139 602 b 197 694 139 671 162 694 l 428 694 b 486 637 463 694 486 671 b 428 579 486 602 463 579 z "},"ē":{"ha":625,"x_min":0,"x_max":0,"o":"m 544 694 b 486 752 509 694 486 718 l 486 810 l 139 810 l 139 752 b 81 694 139 718 116 694 l 23 694 l 23 116 l 81 116 b 139 58 116 116 139 93 l 139 0 l 486 0 l 486 58 b 544 116 486 93 509 116 l 602 116 l 602 231 l 486 231 l 486 174 b 428 116 486 139 463 116 l 197 116 b 139 174 162 116 139 139 l 139 405 b 197 463 139 440 162 463 l 602 463 l 602 694 z m 428 579 l 197 579 b 139 637 162 579 139 602 b 197 694 139 671 162 694 l 428 694 b 486 637 463 694 486 671 b 428 579 486 602 463 579 z "},"ę":{"ha":625,"x_min":0,"x_max":0,"o":"m 544 694 b 486 752 509 694 486 718 l 486 810 l 139 810 l 139 752 b 81 694 139 718 116 694 l 23 694 l 23 116 l 81 116 b 139 58 116 116 139 93 l 139 0 l 486 0 l 486 58 b 544 116 486 93 509 116 l 602 116 l 602 231 l 486 231 l 486 174 b 428 116 486 139 463 116 l 197 116 b 139 174 162 116 139 139 l 139 405 b 197 463 139 440 162 463 l 602 463 l 602 694 z m 428 579 l 197 579 b 139 637 162 579 139 602 b 197 694 139 671 162 694 l 428 694 b 486 637 463 694 486 671 b 428 579 486 602 463 579 z "},"f":{"ha":509,"x_min":0,"x_max":0,"o":"m 660 1157 b 602 1215 625 1157 602 1181 l 602 1273 l 255 1273 l 255 1215 b 197 1157 255 1181 231 1157 l 139 1157 l 139 868 b 81 810 139 833 116 810 l 23 810 l 23 694 l 81 694 b 139 637 116 694 139 671 l 139 174 b 81 116 139 139 116 116 l 23 116 l 23 0 l 370 0 l 370 116 l 313 116 b 255 174 278 116 255 139 l 255 637 b 313 694 255 671 278 694 l 486 694 l 486 810 l 313 810 b 255 868 278 810 255 833 l 255 1100 b 313 1157 255 1134 278 1157 l 544 1157 b 602 1100 579 1157 602 1134 l 602 1042 l 718 1042 l 718 1157 z "},"g":{"ha":741,"x_min":0,"x_max":0,"o":"m 602 926 l 602 752 b 544 694 602 718 579 694 b 486 752 509 694 486 718 l 486 810 l 139 810 l 139 752 b 81 694 139 718 116 694 l 23 694 l 23 347 l 81 347 b 139 289 116 347 139 324 b 81 231 139 255 116 231 l 23 231 l 23 116 l 81 116 b 139 58 116 116 139 93 b 81 0 139 23 116 0 l 23 0 l 23 -231 l 81 -231 b 139 -289 116 -231 139 -255 l 139 -347 l 602 -347 l 602 -289 b 660 -231 602 -255 625 -231 l 718 -231 l 718 0 l 660 0 b 602 58 625 0 602 23 l 602 116 l 197 116 b 139 174 162 116 139 139 b 197 231 139 208 162 231 l 486 231 l 486 289 b 544 347 486 324 509 347 l 602 347 l 602 637 b 660 694 602 671 625 694 l 718 694 l 718 926 z m 486 405 b 428 347 486 370 463 347 l 197 347 b 139 405 162 347 139 370 l 139 637 b 197 694 139 671 162 694 l 428 694 b 486 637 463 694 486 671 z m 197 0 l 544 0 b 602 -58 579 0 602 -23 l 602 -174 b 544 -231 602 -208 579 -231 l 197 -231 b 139 -174 162 -231 139 -208 l 139 -58 b 197 0 139 -23 162 0 z "},"ğ":{"ha":741,"x_min":0,"x_max":0,"o":"m 602 926 l 602 752 b 544 694 602 718 579 694 b 486 752 509 694 486 718 l 486 810 l 139 810 l 139 752 b 81 694 139 718 116 694 l 23 694 l 23 347 l 81 347 b 139 289 116 347 139 324 b 81 231 139 255 116 231 l 23 231 l 23 116 l 81 116 b 139 58 116 116 139 93 b 81 0 139 23 116 0 l 23 0 l 23 -231 l 81 -231 b 139 -289 116 -231 139 -255 l 139 -347 l 602 -347 l 602 -289 b 660 -231 602 -255 625 -231 l 718 -231 l 718 0 l 660 0 b 602 58 625 0 602 23 l 602 116 l 197 116 b 139 174 162 116 139 139 b 197 231 139 208 162 231 l 486 231 l 486 289 b 544 347 486 324 509 347 l 602 347 l 602 637 b 660 694 602 671 625 694 l 718 694 l 718 926 z m 486 405 b 428 347 486 370 463 347 l 197 347 b 139 405 162 347 139 370 l 139 637 b 197 694 139 671 162 694 l 428 694 b 486 637 463 694 486 671 z m 197 0 l 544 0 b 602 -58 579 0 602 -23 l 602 -174 b 544 -231 602 -208 579 -231 l 197 -231 b 139 -174 162 -231 139 -208 l 139 -58 b 197 0 139 -23 162 0 z "},"ģ":{"ha":741,"x_min":0,"x_max":0,"o":"m 602 926 l 602 752 b 544 694 602 718 579 694 b 486 752 509 694 486 718 l 486 810 l 139 810 l 139 752 b 81 694 139 718 116 694 l 23 694 l 23 347 l 81 347 b 139 289 116 347 139 324 b 81 231 139 255 116 231 l 23 231 l 23 116 l 81 116 b 139 58 116 116 139 93 b 81 0 139 23 116 0 l 23 0 l 23 -231 l 81 -231 b 139 -289 116 -231 139 -255 l 139 -347 l 602 -347 l 602 -289 b 660 -231 602 -255 625 -231 l 718 -231 l 718 0 l 660 0 b 602 58 625 0 602 23 l 602 116 l 197 116 b 139 174 162 116 139 139 b 197 231 139 208 162 231 l 486 231 l 486 289 b 544 347 486 324 509 347 l 602 347 l 602 637 b 660 694 602 671 625 694 l 718 694 l 718 926 z m 486 405 b 428 347 486 370 463 347 l 197 347 b 139 405 162 347 139 370 l 139 637 b 197 694 139 671 162 694 l 428 694 b 486 637 463 694 486 671 z m 197 0 l 544 0 b 602 -58 579 0 602 -23 l 602 -174 b 544 -231 602 -208 579 -231 l 197 -231 b 139 -174 162 -231 139 -208 l 139 -58 b 197 0 139 -23 162 0 z "},"ġ":{"ha":741,"x_min":0,"x_max":0,"o":"m 602 926 l 602 752 b 544 694 602 718 579 694 b 486 752 509 694 486 718 l 486 810 l 139 810 l 139 752 b 81 694 139 718 116 694 l 23 694 l 23 347 l 81 347 b 139 289 116 347 139 324 b 81 231 139 255 116 231 l 23 231 l 23 116 l 81 116 b 139 58 116 116 139 93 b 81 0 139 23 116 0 l 23 0 l 23 -231 l 81 -231 b 139 -289 116 -231 139 -255 l 139 -347 l 602 -347 l 602 -289 b 660 -231 602 -255 625 -231 l 718 -231 l 718 0 l 660 0 b 602 58 625 0 602 23 l 602 116 l 197 116 b 139 174 162 116 139 139 b 197 231 139 208 162 231 l 486 231 l 486 289 b 544 347 486 324 509 347 l 602 347 l 602 637 b 660 694 602 671 625 694 l 718 694 l 718 926 z m 486 405 b 428 347 486 370 463 347 l 197 347 b 139 405 162 347 139 370 l 139 637 b 197 694 139 671 162 694 l 428 694 b 486 637 463 694 486 671 z m 197 0 l 544 0 b 602 -58 579 0 602 -23 l 602 -174 b 544 -231 602 -208 579 -231 l 197 -231 b 139 -174 162 -231 139 -208 l 139 -58 b 197 0 139 -23 162 0 z "},"h":{"ha":856,"x_min":0,"x_max":0,"o":"m 775 116 b 718 174 741 116 718 139 l 718 694 l 660 694 b 602 752 625 694 602 718 l 602 810 l 370 810 l 370 752 b 313 694 370 718 347 694 b 255 752 278 694 255 718 l 255 1273 l 139 1273 l 139 1215 b 81 1157 139 1181 116 1157 l 23 1157 l 23 1042 l 81 1042 b 139 984 116 1042 139 1019 l 139 174 b 81 116 139 139 116 116 l 23 116 l 23 0 l 370 0 l 370 116 l 313 116 b 255 174 278 116 255 139 l 255 521 b 313 579 255 556 278 579 l 370 579 l 370 637 b 428 694 370 671 394 694 l 544 694 b 602 637 579 694 602 671 l 602 174 b 544 116 602 139 579 116 l 486 116 l 486 0 l 833 0 l 833 116 z "},"ħ":{"ha":856,"x_min":0,"x_max":0,"o":"m 775 116 b 718 174 741 116 718 139 l 718 694 l 660 694 b 602 752 625 694 602 718 l 602 810 l 370 810 l 370 752 b 313 694 370 718 347 694 b 255 752 278 694 255 718 l 255 1273 l 139 1273 l 139 1215 b 81 1157 139 1181 116 1157 l 23 1157 l 23 1042 l 81 1042 b 139 984 116 1042 139 1019 l 139 174 b 81 116 139 139 116 116 l 23 116 l 23 0 l 370 0 l 370 116 l 313 116 b 255 174 278 116 255 139 l 255 521 b 313 579 255 556 278 579 l 370 579 l 370 637 b 428 694 370 671 394 694 l 544 694 b 602 637 579 694 602 671 l 602 174 b 544 116 602 139 579 116 l 486 116 l 486 0 l 833 0 l 833 116 z "},"i":{"ha":394,"x_min":0,"x_max":0,"o":"m 139 1042 l 139 926 l 255 926 l 255 1042 z m 313 116 b 255 174 278 116 255 139 l 255 810 l 139 810 l 139 752 b 81 694 139 718 116 694 l 23 694 l 23 579 l 81 579 b 139 521 116 579 139 556 l 139 174 b 81 116 139 139 116 116 l 23 116 l 23 0 l 370 0 l 370 116 z "},"í":{"ha":394,"x_min":0,"x_max":0,"o":"m 139 1042 l 139 926 l 255 926 l 255 1042 z m 313 116 b 255 174 278 116 255 139 l 255 810 l 139 810 l 139 752 b 81 694 139 718 116 694 l 23 694 l 23 579 l 81 579 b 139 521 116 579 139 556 l 139 174 b 81 116 139 139 116 116 l 23 116 l 23 0 l 370 0 l 370 116 z "},"î":{"ha":394,"x_min":0,"x_max":0,"o":"m 139 1042 l 139 926 l 255 926 l 255 1042 z m 313 116 b 255 174 278 116 255 139 l 255 810 l 139 810 l 139 752 b 81 694 139 718 116 694 l 23 694 l 23 579 l 81 579 b 139 521 116 579 139 556 l 139 174 b 81 116 139 139 116 116 l 23 116 l 23 0 l 370 0 l 370 116 z "},"ï":{"ha":394,"x_min":0,"x_max":0,"o":"m 139 1042 l 139 926 l 255 926 l 255 1042 z m 313 116 b 255 174 278 116 255 139 l 255 810 l 139 810 l 139 752 b 81 694 139 718 116 694 l 23 694 l 23 579 l 81 579 b 139 521 116 579 139 556 l 139 174 b 81 116 139 139 116 116 l 23 116 l 23 0 l 370 0 l 370 116 z "},"ì":{"ha":394,"x_min":0,"x_max":0,"o":"m 139 1042 l 139 926 l 255 926 l 255 1042 z m 313 116 b 255 174 278 116 255 139 l 255 810 l 139 810 l 139 752 b 81 694 139 718 116 694 l 23 694 l 23 579 l 81 579 b 139 521 116 579 139 556 l 139 174 b 81 116 139 139 116 116 l 23 116 l 23 0 l 370 0 l 370 116 z "},"ī":{"ha":394,"x_min":0,"x_max":0,"o":"m 139 1042 l 139 926 l 255 926 l 255 1042 z m 313 116 b 255 174 278 116 255 139 l 255 810 l 139 810 l 139 752 b 81 694 139 718 116 694 l 23 694 l 23 579 l 81 579 b 139 521 116 579 139 556 l 139 174 b 81 116 139 139 116 116 l 23 116 l 23 0 l 370 0 l 370 116 z "},"į":{"ha":394,"x_min":0,"x_max":0,"o":"m 139 1042 l 139 926 l 255 926 l 255 1042 z m 313 116 b 255 174 278 116 255 139 l 255 810 l 139 810 l 139 752 b 81 694 139 718 116 694 l 23 694 l 23 579 l 81 579 b 139 521 116 579 139 556 l 139 174 b 81 116 139 139 116 116 l 23 116 l 23 0 l 370 0 l 370 116 z "},"j":{"ha":278,"x_min":0,"x_max":0,"o":"m 139 926 l 255 926 l 255 1042 l 139 1042 z m 139 752 b 81 694 139 718 116 694 l 23 694 l 23 579 l 81 579 b 139 521 116 579 139 556 l 139 -174 b 81 -231 139 -208 116 -231 l -93 -231 l -93 -347 l 139 -347 l 139 -289 b 197 -231 139 -255 162 -231 l 255 -231 l 255 810 l 139 810 z "},"k":{"ha":741,"x_min":0,"x_max":0,"o":"m 486 463 l 486 521 b 544 579 486 556 509 579 l 602 579 l 602 637 b 660 694 602 671 625 694 l 718 694 l 718 810 l 602 810 l 602 752 b 544 694 602 718 579 694 l 486 694 l 486 637 b 428 579 486 602 463 579 l 370 579 l 370 521 b 313 463 370 486 347 463 b 255 521 278 463 255 486 l 255 1273 l 139 1273 l 139 1215 b 81 1157 139 1181 116 1157 l 23 1157 l 23 1042 l 81 1042 b 139 984 116 1042 139 1019 l 139 174 b 81 116 139 139 116 116 l 23 116 l 23 0 l 370 0 l 370 116 l 313 116 b 255 174 278 116 255 139 l 255 289 b 313 347 255 324 278 347 b 370 289 347 347 370 324 l 370 231 l 428 231 b 486 174 463 231 486 208 l 486 116 l 544 116 b 602 58 579 116 602 93 l 602 0 l 718 0 l 718 116 l 660 116 b 602 174 625 116 602 139 l 602 231 l 544 231 b 486 289 509 231 486 255 l 486 347 l 428 347 b 370 405 394 347 370 370 b 428 463 370 440 394 463 z "},"ķ":{"ha":741,"x_min":0,"x_max":0,"o":"m 486 463 l 486 521 b 544 579 486 556 509 579 l 602 579 l 602 637 b 660 694 602 671 625 694 l 718 694 l 718 810 l 602 810 l 602 752 b 544 694 602 718 579 694 l 486 694 l 486 637 b 428 579 486 602 463 579 l 370 579 l 370 521 b 313 463 370 486 347 463 b 255 521 278 463 255 486 l 255 1273 l 139 1273 l 139 1215 b 81 1157 139 1181 116 1157 l 23 1157 l 23 1042 l 81 1042 b 139 984 116 1042 139 1019 l 139 174 b 81 116 139 139 116 116 l 23 116 l 23 0 l 370 0 l 370 116 l 313 116 b 255 174 278 116 255 139 l 255 289 b 313 347 255 324 278 347 b 370 289 347 347 370 324 l 370 231 l 428 231 b 486 174 463 231 486 208 l 486 116 l 544 116 b 602 58 579 116 602 93 l 602 0 l 718 0 l 718 116 l 660 116 b 602 174 625 116 602 139 l 602 231 l 544 231 b 486 289 509 231 486 255 l 486 347 l 428 347 b 370 405 394 347 370 370 b 428 463 370 440 394 463 z "},"l":{"ha":394,"x_min":0,"x_max":0,"o":"m 313 116 b 255 174 278 116 255 139 l 255 1273 l 139 1273 l 139 1215 b 81 1157 139 1181 116 1157 l 23 1157 l 23 1042 l 81 1042 b 139 984 116 1042 139 1019 l 139 174 b 81 116 139 139 116 116 l 23 116 l 23 0 l 370 0 l 370 116 z "},"ĺ":{"ha":394,"x_min":0,"x_max":0,"o":"m 313 116 b 255 174 278 116 255 139 l 255 1273 l 139 1273 l 139 1215 b 81 1157 139 1181 116 1157 l 23 1157 l 23 1042 l 81 1042 b 139 984 116 1042 139 1019 l 139 174 b 81 116 139 139 116 116 l 23 116 l 23 0 l 370 0 l 370 116 z "},"ľ":{"ha":394,"x_min":0,"x_max":0,"o":"m 313 116 b 255 174 278 116 255 139 l 255 1273 l 139 1273 l 139 1215 b 81 1157 139 1181 116 1157 l 23 1157 l 23 1042 l 81 1042 b 139 984 116 1042 139 1019 l 139 174 b 81 116 139 139 116 116 l 23 116 l 23 0 l 370 0 l 370 116 z "},"ļ":{"ha":394,"x_min":0,"x_max":0,"o":"m 313 116 b 255 174 278 116 255 139 l 255 1273 l 139 1273 l 139 1215 b 81 1157 139 1181 116 1157 l 23 1157 l 23 1042 l 81 1042 b 139 984 116 1042 139 1019 l 139 174 b 81 116 139 139 116 116 l 23 116 l 23 0 l 370 0 l 370 116 z "},"ł":{"ha":394,"x_min":0,"x_max":0,"o":"m 313 116 b 255 174 278 116 255 139 l 255 1273 l 139 1273 l 139 1215 b 81 1157 139 1181 116 1157 l 23 1157 l 23 1042 l 81 1042 b 139 984 116 1042 139 1019 l 139 174 b 81 116 139 139 116 116 l 23 116 l 23 0 l 370 0 l 370 116 z "},"m":{"ha":1319,"x_min":0,"x_max":0,"o":"m 1238 116 b 1181 174 1204 116 1181 139 l 1181 694 l 1123 694 b 1065 752 1088 694 1065 718 l 1065 810 l 833 810 l 833 752 b 775 694 833 718 810 694 l 660 694 b 602 752 625 694 602 718 l 602 810 l 370 810 l 370 752 b 313 694 370 718 347 694 b 255 752 278 694 255 718 l 255 810 l 139 810 l 139 752 b 81 694 139 718 116 694 l 23 694 l 23 579 l 81 579 b 139 521 116 579 139 556 l 139 174 b 81 116 139 139 116 116 l 23 116 l 23 0 l 370 0 l 370 116 l 313 116 b 255 174 278 116 255 139 l 255 521 b 313 579 255 556 278 579 l 370 579 l 370 637 b 428 694 370 671 394 694 l 544 694 b 602 637 579 694 602 671 l 602 174 b 544 116 602 139 579 116 l 486 116 l 486 0 l 833 0 l 833 116 l 775 116 b 718 174 741 116 718 139 l 718 521 b 775 579 718 556 741 579 l 833 579 l 833 637 b 891 694 833 671 856 694 l 1007 694 b 1065 637 1042 694 1065 671 l 1065 174 b 1007 116 1065 139 1042 116 l 949 116 l 949 0 l 1296 0 l 1296 116 z "},"n":{"ha":856,"x_min":0,"x_max":0,"o":"m 775 116 b 718 174 741 116 718 139 l 718 694 l 660 694 b 602 752 625 694 602 718 l 602 810 l 370 810 l 370 752 b 313 694 370 718 347 694 b 255 752 278 694 255 718 l 255 810 l 139 810 l 139 752 b 81 694 139 718 116 694 l 23 694 l 23 579 l 81 579 b 139 521 116 579 139 556 l 139 174 b 81 116 139 139 116 116 l 23 116 l 23 0 l 370 0 l 370 116 l 313 116 b 255 174 278 116 255 139 l 255 521 b 313 579 255 556 278 579 l 370 579 l 370 637 b 428 694 370 671 394 694 l 544 694 b 602 637 579 694 602 671 l 602 174 b 544 116 602 139 579 116 l 486 116 l 486 0 l 833 0 l 833 116 z "},"ń":{"ha":856,"x_min":0,"x_max":0,"o":"m 775 116 b 718 174 741 116 718 139 l 718 694 l 660 694 b 602 752 625 694 602 718 l 602 810 l 370 810 l 370 752 b 313 694 370 718 347 694 b 255 752 278 694 255 718 l 255 810 l 139 810 l 139 752 b 81 694 139 718 116 694 l 23 694 l 23 579 l 81 579 b 139 521 116 579 139 556 l 139 174 b 81 116 139 139 116 116 l 23 116 l 23 0 l 370 0 l 370 116 l 313 116 b 255 174 278 116 255 139 l 255 521 b 313 579 255 556 278 579 l 370 579 l 370 637 b 428 694 370 671 394 694 l 544 694 b 602 637 579 694 602 671 l 602 174 b 544 116 602 139 579 116 l 486 116 l 486 0 l 833 0 l 833 116 z "},"ň":{"ha":856,"x_min":0,"x_max":0,"o":"m 775 116 b 718 174 741 116 718 139 l 718 694 l 660 694 b 602 752 625 694 602 718 l 602 810 l 370 810 l 370 752 b 313 694 370 718 347 694 b 255 752 278 694 255 718 l 255 810 l 139 810 l 139 752 b 81 694 139 718 116 694 l 23 694 l 23 579 l 81 579 b 139 521 116 579 139 556 l 139 174 b 81 116 139 139 116 116 l 23 116 l 23 0 l 370 0 l 370 116 l 313 116 b 255 174 278 116 255 139 l 255 521 b 313 579 255 556 278 579 l 370 579 l 370 637 b 428 694 370 671 394 694 l 544 694 b 602 637 579 694 602 671 l 602 174 b 544 116 602 139 579 116 l 486 116 l 486 0 l 833 0 l 833 116 z "},"ņ":{"ha":856,"x_min":0,"x_max":0,"o":"m 775 116 b 718 174 741 116 718 139 l 718 694 l 660 694 b 602 752 625 694 602 718 l 602 810 l 370 810 l 370 752 b 313 694 370 718 347 694 b 255 752 278 694 255 718 l 255 810 l 139 810 l 139 752 b 81 694 139 718 116 694 l 23 694 l 23 579 l 81 579 b 139 521 116 579 139 556 l 139 174 b 81 116 139 139 116 116 l 23 116 l 23 0 l 370 0 l 370 116 l 313 116 b 255 174 278 116 255 139 l 255 521 b 313 579 255 556 278 579 l 370 579 l 370 637 b 428 694 370 671 394 694 l 544 694 b 602 637 579 694 602 671 l 602 174 b 544 116 602 139 579 116 l 486 116 l 486 0 l 833 0 l 833 116 z "},"ŋ":{"ha":856,"x_min":0,"x_max":0,"o":"m 775 116 b 718 174 741 116 718 139 l 718 694 l 660 694 b 602 752 625 694 602 718 l 602 810 l 370 810 l 370 752 b 313 694 370 718 347 694 b 255 752 278 694 255 718 l 255 810 l 139 810 l 139 752 b 81 694 139 718 116 694 l 23 694 l 23 579 l 81 579 b 139 521 116 579 139 556 l 139 174 b 81 116 139 139 116 116 l 23 116 l 23 0 l 370 0 l 370 116 l 313 116 b 255 174 278 116 255 139 l 255 521 b 313 579 255 556 278 579 l 370 579 l 370 637 b 428 694 370 671 394 694 l 544 694 b 602 637 579 694 602 671 l 602 174 b 544 116 602 139 579 116 l 486 116 l 486 0 l 833 0 l 833 116 z "},"ñ":{"ha":856,"x_min":0,"x_max":0,"o":"m 775 116 b 718 174 741 116 718 139 l 718 694 l 660 694 b 602 752 625 694 602 718 l 602 810 l 370 810 l 370 752 b 313 694 370 718 347 694 b 255 752 278 694 255 718 l 255 810 l 139 810 l 139 752 b 81 694 139 718 116 694 l 23 694 l 23 579 l 81 579 b 139 521 116 579 139 556 l 139 174 b 81 116 139 139 116 116 l 23 116 l 23 0 l 370 0 l 370 116 l 313 116 b 255 174 278 116 255 139 l 255 521 b 313 579 255 556 278 579 l 370 579 l 370 637 b 428 694 370 671 394 694 l 544 694 b 602 637 579 694 602 671 l 602 174 b 544 116 602 139 579 116 l 486 116 l 486 0 l 833 0 l 833 116 z "},"o":{"ha":741,"x_min":0,"x_max":0,"o":"m 660 579 b 602 637 625 579 602 602 l 602 694 l 544 694 b 486 752 509 694 486 718 l 486 810 l 255 810 l 255 752 b 197 694 255 718 231 694 l 139 694 l 139 637 b 81 579 139 602 116 579 l 23 579 l 23 231 l 81 231 b 139 174 116 231 139 208 l 139 116 l 197 116 b 255 58 231 116 255 93 l 255 0 l 486 0 l 486 58 b 544 116 486 93 509 116 l 602 116 l 602 174 b 660 231 602 208 625 231 l 718 231 l 718 579 z m 602 289 b 544 231 602 255 579 231 l 486 231 l 486 174 b 428 116 486 139 463 116 l 313 116 b 255 174 278 116 255 139 l 255 231 l 197 231 b 139 289 162 231 139 255 l 139 521 b 197 579 139 556 162 579 l 255 579 l 255 637 b 313 694 255 671 278 694 l 428 694 b 486 637 463 694 486 671 l 486 579 l 544 579 b 602 521 579 579 602 556 z "},"ó":{"ha":741,"x_min":0,"x_max":0,"o":"m 660 579 b 602 637 625 579 602 602 l 602 694 l 544 694 b 486 752 509 694 486 718 l 486 810 l 255 810 l 255 752 b 197 694 255 718 231 694 l 139 694 l 139 637 b 81 579 139 602 116 579 l 23 579 l 23 231 l 81 231 b 139 174 116 231 139 208 l 139 116 l 197 116 b 255 58 231 116 255 93 l 255 0 l 486 0 l 486 58 b 544 116 486 93 509 116 l 602 116 l 602 174 b 660 231 602 208 625 231 l 718 231 l 718 579 z m 602 289 b 544 231 602 255 579 231 l 486 231 l 486 174 b 428 116 486 139 463 116 l 313 116 b 255 174 278 116 255 139 l 255 231 l 197 231 b 139 289 162 231 139 255 l 139 521 b 197 579 139 556 162 579 l 255 579 l 255 637 b 313 694 255 671 278 694 l 428 694 b 486 637 463 694 486 671 l 486 579 l 544 579 b 602 521 579 579 602 556 z "},"ô":{"ha":741,"x_min":0,"x_max":0,"o":"m 660 579 b 602 637 625 579 602 602 l 602 694 l 544 694 b 486 752 509 694 486 718 l 486 810 l 255 810 l 255 752 b 197 694 255 718 231 694 l 139 694 l 139 637 b 81 579 139 602 116 579 l 23 579 l 23 231 l 81 231 b 139 174 116 231 139 208 l 139 116 l 197 116 b 255 58 231 116 255 93 l 255 0 l 486 0 l 486 58 b 544 116 486 93 509 116 l 602 116 l 602 174 b 660 231 602 208 625 231 l 718 231 l 718 579 z m 602 289 b 544 231 602 255 579 231 l 486 231 l 486 174 b 428 116 486 139 463 116 l 313 116 b 255 174 278 116 255 139 l 255 231 l 197 231 b 139 289 162 231 139 255 l 139 521 b 197 579 139 556 162 579 l 255 579 l 255 637 b 313 694 255 671 278 694 l 428 694 b 486 637 463 694 486 671 l 486 579 l 544 579 b 602 521 579 579 602 556 z "},"ö":{"ha":741,"x_min":0,"x_max":0,"o":"m 660 579 b 602 637 625 579 602 602 l 602 694 l 544 694 b 486 752 509 694 486 718 l 486 810 l 255 810 l 255 752 b 197 694 255 718 231 694 l 139 694 l 139 637 b 81 579 139 602 116 579 l 23 579 l 23 231 l 81 231 b 139 174 116 231 139 208 l 139 116 l 197 116 b 255 58 231 116 255 93 l 255 0 l 486 0 l 486 58 b 544 116 486 93 509 116 l 602 116 l 602 174 b 660 231 602 208 625 231 l 718 231 l 718 579 z m 602 289 b 544 231 602 255 579 231 l 486 231 l 486 174 b 428 116 486 139 463 116 l 313 116 b 255 174 278 116 255 139 l 255 231 l 197 231 b 139 289 162 231 139 255 l 139 521 b 197 579 139 556 162 579 l 255 579 l 255 637 b 313 694 255 671 278 694 l 428 694 b 486 637 463 694 486 671 l 486 579 l 544 579 b 602 521 579 579 602 556 z "},"ò":{"ha":741,"x_min":0,"x_max":0,"o":"m 660 579 b 602 637 625 579 602 602 l 602 694 l 544 694 b 486 752 509 694 486 718 l 486 810 l 255 810 l 255 752 b 197 694 255 718 231 694 l 139 694 l 139 637 b 81 579 139 602 116 579 l 23 579 l 23 231 l 81 231 b 139 174 116 231 139 208 l 139 116 l 197 116 b 255 58 231 116 255 93 l 255 0 l 486 0 l 486 58 b 544 116 486 93 509 116 l 602 116 l 602 174 b 660 231 602 208 625 231 l 718 231 l 718 579 z m 602 289 b 544 231 602 255 579 231 l 486 231 l 486 174 b 428 116 486 139 463 116 l 313 116 b 255 174 278 116 255 139 l 255 231 l 197 231 b 139 289 162 231 139 255 l 139 521 b 197 579 139 556 162 579 l 255 579 l 255 637 b 313 694 255 671 278 694 l 428 694 b 486 637 463 694 486 671 l 486 579 l 544 579 b 602 521 579 579 602 556 z "},"ő":{"ha":741,"x_min":0,"x_max":0,"o":"m 660 579 b 602 637 625 579 602 602 l 602 694 l 544 694 b 486 752 509 694 486 718 l 486 810 l 255 810 l 255 752 b 197 694 255 718 231 694 l 139 694 l 139 637 b 81 579 139 602 116 579 l 23 579 l 23 231 l 81 231 b 139 174 116 231 139 208 l 139 116 l 197 116 b 255 58 231 116 255 93 l 255 0 l 486 0 l 486 58 b 544 116 486 93 509 116 l 602 116 l 602 174 b 660 231 602 208 625 231 l 718 231 l 718 579 z m 602 289 b 544 231 602 255 579 231 l 486 231 l 486 174 b 428 116 486 139 463 116 l 313 116 b 255 174 278 116 255 139 l 255 231 l 197 231 b 139 289 162 231 139 255 l 139 521 b 197 579 139 556 162 579 l 255 579 l 255 637 b 313 694 255 671 278 694 l 428 694 b 486 637 463 694 486 671 l 486 579 l 544 579 b 602 521 579 579 602 556 z "},"ō":{"ha":741,"x_min":0,"x_max":0,"o":"m 660 579 b 602 637 625 579 602 602 l 602 694 l 544 694 b 486 752 509 694 486 718 l 486 810 l 255 810 l 255 752 b 197 694 255 718 231 694 l 139 694 l 139 637 b 81 579 139 602 116 579 l 23 579 l 23 231 l 81 231 b 139 174 116 231 139 208 l 139 116 l 197 116 b 255 58 231 116 255 93 l 255 0 l 486 0 l 486 58 b 544 116 486 93 509 116 l 602 116 l 602 174 b 660 231 602 208 625 231 l 718 231 l 718 579 z m 602 289 b 544 231 602 255 579 231 l 486 231 l 486 174 b 428 116 486 139 463 116 l 313 116 b 255 174 278 116 255 139 l 255 231 l 197 231 b 139 289 162 231 139 255 l 139 521 b 197 579 139 556 162 579 l 255 579 l 255 637 b 313 694 255 671 278 694 l 428 694 b 486 637 463 694 486 671 l 486 579 l 544 579 b 602 521 579 579 602 556 z "},"ø":{"ha":741,"x_min":0,"x_max":0,"o":"m 660 579 b 602 637 625 579 602 602 l 602 694 l 544 694 b 486 752 509 694 486 718 l 486 810 l 255 810 l 255 752 b 197 694 255 718 231 694 l 139 694 l 139 637 b 81 579 139 602 116 579 l 23 579 l 23 231 l 81 231 b 139 174 116 231 139 208 l 139 116 l 197 116 b 255 58 231 116 255 93 l 255 0 l 486 0 l 486 58 b 544 116 486 93 509 116 l 602 116 l 602 174 b 660 231 602 208 625 231 l 718 231 l 718 579 z m 602 289 b 544 231 602 255 579 231 l 486 231 l 486 174 b 428 116 486 139 463 116 l 313 116 b 255 174 278 116 255 139 l 255 231 l 197 231 b 139 289 162 231 139 255 l 139 521 b 197 579 139 556 162 579 l 255 579 l 255 637 b 313 694 255 671 278 694 l 428 694 b 486 637 463 694 486 671 l 486 579 l 544 579 b 602 521 579 579 602 556 z "},"õ":{"ha":741,"x_min":0,"x_max":0,"o":"m 660 579 b 602 637 625 579 602 602 l 602 694 l 544 694 b 486 752 509 694 486 718 l 486 810 l 255 810 l 255 752 b 197 694 255 718 231 694 l 139 694 l 139 637 b 81 579 139 602 116 579 l 23 579 l 23 231 l 81 231 b 139 174 116 231 139 208 l 139 116 l 197 116 b 255 58 231 116 255 93 l 255 0 l 486 0 l 486 58 b 544 116 486 93 509 116 l 602 116 l 602 174 b 660 231 602 208 625 231 l 718 231 l 718 579 z m 602 289 b 544 231 602 255 579 231 l 486 231 l 486 174 b 428 116 486 139 463 116 l 313 116 b 255 174 278 116 255 139 l 255 231 l 197 231 b 139 289 162 231 139 255 l 139 521 b 197 579 139 556 162 579 l 255 579 l 255 637 b 313 694 255 671 278 694 l 428 694 b 486 637 463 694 486 671 l 486 579 l 544 579 b 602 521 579 579 602 556 z "},"œ":{"ha":741,"x_min":0,"x_max":0,"o":"m 660 579 b 602 637 625 579 602 602 l 602 694 l 544 694 b 486 752 509 694 486 718 l 486 810 l 255 810 l 255 752 b 197 694 255 718 231 694 l 139 694 l 139 637 b 81 579 139 602 116 579 l 23 579 l 23 231 l 81 231 b 139 174 116 231 139 208 l 139 116 l 197 116 b 255 58 231 116 255 93 l 255 0 l 486 0 l 486 58 b 544 116 486 93 509 116 l 602 116 l 602 174 b 660 231 602 208 625 231 l 718 231 l 718 579 z m 602 289 b 544 231 602 255 579 231 l 486 231 l 486 174 b 428 116 486 139 463 116 l 313 116 b 255 174 278 116 255 139 l 255 231 l 197 231 b 139 289 162 231 139 255 l 139 521 b 197 579 139 556 162 579 l 255 579 l 255 637 b 313 694 255 671 278 694 l 428 694 b 486 637 463 694 486 671 l 486 579 l 544 579 b 602 521 579 579 602 556 z "},"p":{"ha":856,"x_min":0,"x_max":0,"o":"m 775 579 b 718 637 741 579 718 602 l 718 694 l 660 694 b 602 752 625 694 602 718 l 602 810 l 370 810 l 370 752 b 313 694 370 718 347 694 b 255 752 278 694 255 718 l 255 810 l 139 810 l 139 752 b 81 694 139 718 116 694 l 23 694 l 23 579 l 81 579 b 139 521 116 579 139 556 l 139 -174 b 81 -231 139 -208 116 -231 l 23 -231 l 23 -347 l 370 -347 l 370 -231 l 313 -231 b 255 -174 278 -231 255 -208 l 255 58 b 313 116 255 93 278 116 b 370 58 347 116 370 93 l 370 0 l 602 0 l 602 58 b 660 116 602 93 625 116 l 718 116 l 718 174 b 775 231 718 208 741 231 l 833 231 l 833 579 z m 718 289 b 660 231 718 255 694 231 l 602 231 l 602 174 b 544 116 602 139 579 116 l 428 116 b 370 174 394 116 370 139 l 370 231 l 313 231 b 255 289 278 231 255 255 l 255 521 b 313 579 255 556 278 579 l 370 579 l 370 637 b 428 694 370 671 394 694 l 544 694 b 602 637 579 694 602 671 l 602 579 l 660 579 b 718 521 694 579 718 556 z "},"þ":{"ha":856,"x_min":0,"x_max":0,"o":"m 775 579 b 718 637 741 579 718 602 l 718 694 l 660 694 b 602 752 625 694 602 718 l 602 810 l 370 810 l 370 752 b 313 694 370 718 347 694 b 255 752 278 694 255 718 l 255 810 l 139 810 l 139 752 b 81 694 139 718 116 694 l 23 694 l 23 579 l 81 579 b 139 521 116 579 139 556 l 139 -174 b 81 -231 139 -208 116 -231 l 23 -231 l 23 -347 l 370 -347 l 370 -231 l 313 -231 b 255 -174 278 -231 255 -208 l 255 58 b 313 116 255 93 278 116 b 370 58 347 116 370 93 l 370 0 l 602 0 l 602 58 b 660 116 602 93 625 116 l 718 116 l 718 174 b 775 231 718 208 741 231 l 833 231 l 833 579 z m 718 289 b 660 231 718 255 694 231 l 602 231 l 602 174 b 544 116 602 139 579 116 l 428 116 b 370 174 394 116 370 139 l 370 231 l 313 231 b 255 289 278 231 255 255 l 255 521 b 313 579 255 556 278 579 l 370 579 l 370 637 b 428 694 370 671 394 694 l 544 694 b 602 637 579 694 602 671 l 602 579 l 660 579 b 718 521 694 579 718 556 z "},"q":{"ha":741,"x_min":0,"x_max":0,"o":"m 775 -231 b 718 -174 741 -231 718 -208 l 718 810 l 602 810 l 602 752 b 544 694 602 718 579 694 b 486 752 509 694 486 718 l 486 810 l 255 810 l 255 752 b 197 694 255 718 231 694 l 139 694 l 139 637 b 81 579 139 602 116 579 l 23 579 l 23 231 l 81 231 b 139 174 116 231 139 208 l 139 116 l 197 116 b 255 58 231 116 255 93 l 255 0 l 486 0 l 486 58 b 544 116 486 93 509 116 b 602 58 579 116 602 93 l 602 -174 b 544 -231 602 -208 579 -231 l 486 -231 l 486 -347 l 833 -347 l 833 -231 z m 486 174 b 428 116 486 139 463 116 l 313 116 b 255 174 278 116 255 139 l 255 231 l 197 231 b 139 289 162 231 139 255 l 139 521 b 197 579 139 556 162 579 l 255 579 l 255 637 b 313 694 255 671 278 694 l 428 694 b 486 637 463 694 486 671 l 486 579 l 544 579 b 602 521 579 579 602 556 l 602 289 b 544 231 602 255 579 231 l 486 231 z "},"r":{"ha":625,"x_min":0,"x_max":0,"o":"m 370 810 l 370 752 b 313 694 370 718 347 694 b 255 752 278 694 255 718 l 255 810 l 139 810 l 139 752 b 81 694 139 718 116 694 l 23 694 l 23 579 l 81 579 b 139 521 116 579 139 556 l 139 174 b 81 116 139 139 116 116 l 23 116 l 23 0 l 370 0 l 370 116 l 313 116 b 255 174 278 116 255 139 l 255 521 b 313 579 255 556 278 579 l 370 579 l 370 637 b 428 694 370 671 394 694 l 602 694 l 602 810 z "},"ŕ":{"ha":625,"x_min":0,"x_max":0,"o":"m 370 810 l 370 752 b 313 694 370 718 347 694 b 255 752 278 694 255 718 l 255 810 l 139 810 l 139 752 b 81 694 139 718 116 694 l 23 694 l 23 579 l 81 579 b 139 521 116 579 139 556 l 139 174 b 81 116 139 139 116 116 l 23 116 l 23 0 l 370 0 l 370 116 l 313 116 b 255 174 278 116 255 139 l 255 521 b 313 579 255 556 278 579 l 370 579 l 370 637 b 428 694 370 671 394 694 l 602 694 l 602 810 z "},"ř":{"ha":625,"x_min":0,"x_max":0,"o":"m 370 810 l 370 752 b 313 694 370 718 347 694 b 255 752 278 694 255 718 l 255 810 l 139 810 l 139 752 b 81 694 139 718 116 694 l 23 694 l 23 579 l 81 579 b 139 521 116 579 139 556 l 139 174 b 81 116 139 139 116 116 l 23 116 l 23 0 l 370 0 l 370 116 l 313 116 b 255 174 278 116 255 139 l 255 521 b 313 579 255 556 278 579 l 370 579 l 370 637 b 428 694 370 671 394 694 l 602 694 l 602 810 z "},"ŗ":{"ha":625,"x_min":0,"x_max":0,"o":"m 370 810 l 370 752 b 313 694 370 718 347 694 b 255 752 278 694 255 718 l 255 810 l 139 810 l 139 752 b 81 694 139 718 116 694 l 23 694 l 23 579 l 81 579 b 139 521 116 579 139 556 l 139 174 b 81 116 139 139 116 116 l 23 116 l 23 0 l 370 0 l 370 116 l 313 116 b 255 174 278 116 255 139 l 255 521 b 313 579 255 556 278 579 l 370 579 l 370 637 b 428 694 370 671 394 694 l 602 694 l 602 810 z "},"s":{"ha":625,"x_min":0,"x_max":0,"o":"m 486 752 b 428 694 486 718 463 694 b 370 752 394 694 370 718 l 370 810 l 139 810 l 139 752 b 81 694 139 718 116 694 l 23 694 l 23 463 l 81 463 b 139 405 116 463 139 440 l 139 347 l 428 347 b 486 289 463 347 486 324 l 486 174 b 428 116 486 139 463 116 l 313 116 b 255 174 278 116 255 139 l 255 231 l 23 231 l 23 0 l 139 0 l 139 58 b 197 116 139 93 162 116 b 255 58 231 116 255 93 l 255 0 l 486 0 l 486 58 b 544 116 486 93 509 116 l 602 116 l 602 347 l 544 347 b 486 405 509 347 486 370 l 486 463 l 197 463 b 139 521 162 463 139 486 l 139 637 b 197 694 139 671 162 694 l 313 694 b 370 637 347 694 370 671 l 370 579 l 602 579 l 602 810 l 486 810 z "},"ś":{"ha":625,"x_min":0,"x_max":0,"o":"m 486 752 b 428 694 486 718 463 694 b 370 752 394 694 370 718 l 370 810 l 139 810 l 139 752 b 81 694 139 718 116 694 l 23 694 l 23 463 l 81 463 b 139 405 116 463 139 440 l 139 347 l 428 347 b 486 289 463 347 486 324 l 486 174 b 428 116 486 139 463 116 l 313 116 b 255 174 278 116 255 139 l 255 231 l 23 231 l 23 0 l 139 0 l 139 58 b 197 116 139 93 162 116 b 255 58 231 116 255 93 l 255 0 l 486 0 l 486 58 b 544 116 486 93 509 116 l 602 116 l 602 347 l 544 347 b 486 405 509 347 486 370 l 486 463 l 197 463 b 139 521 162 463 139 486 l 139 637 b 197 694 139 671 162 694 l 313 694 b 370 637 347 694 370 671 l 370 579 l 602 579 l 602 810 l 486 810 z "},"š":{"ha":625,"x_min":0,"x_max":0,"o":"m 486 752 b 428 694 486 718 463 694 b 370 752 394 694 370 718 l 370 810 l 139 810 l 139 752 b 81 694 139 718 116 694 l 23 694 l 23 463 l 81 463 b 139 405 116 463 139 440 l 139 347 l 428 347 b 486 289 463 347 486 324 l 486 174 b 428 116 486 139 463 116 l 313 116 b 255 174 278 116 255 139 l 255 231 l 23 231 l 23 0 l 139 0 l 139 58 b 197 116 139 93 162 116 b 255 58 231 116 255 93 l 255 0 l 486 0 l 486 58 b 544 116 486 93 509 116 l 602 116 l 602 347 l 544 347 b 486 405 509 347 486 370 l 486 463 l 197 463 b 139 521 162 463 139 486 l 139 637 b 197 694 139 671 162 694 l 313 694 b 370 637 347 694 370 671 l 370 579 l 602 579 l 602 810 l 486 810 z "},"ş":{"ha":625,"x_min":0,"x_max":0,"o":"m 486 752 b 428 694 486 718 463 694 b 370 752 394 694 370 718 l 370 810 l 139 810 l 139 752 b 81 694 139 718 116 694 l 23 694 l 23 463 l 81 463 b 139 405 116 463 139 440 l 139 347 l 428 347 b 486 289 463 347 486 324 l 486 174 b 428 116 486 139 463 116 l 313 116 b 255 174 278 116 255 139 l 255 231 l 23 231 l 23 0 l 139 0 l 139 58 b 197 116 139 93 162 116 b 255 58 231 116 255 93 l 255 0 l 486 0 l 486 58 b 544 116 486 93 509 116 l 602 116 l 602 347 l 544 347 b 486 405 509 347 486 370 l 486 463 l 197 463 b 139 521 162 463 139 486 l 139 637 b 197 694 139 671 162 694 l 313 694 b 370 637 347 694 370 671 l 370 579 l 602 579 l 602 810 l 486 810 z "},"ș":{"ha":625,"x_min":0,"x_max":0,"o":"m 486 752 b 428 694 486 718 463 694 b 370 752 394 694 370 718 l 370 810 l 139 810 l 139 752 b 81 694 139 718 116 694 l 23 694 l 23 463 l 81 463 b 139 405 116 463 139 440 l 139 347 l 428 347 b 486 289 463 347 486 324 l 486 174 b 428 116 486 139 463 116 l 313 116 b 255 174 278 116 255 139 l 255 231 l 23 231 l 23 0 l 139 0 l 139 58 b 197 116 139 93 162 116 b 255 58 231 116 255 93 l 255 0 l 486 0 l 486 58 b 544 116 486 93 509 116 l 602 116 l 602 347 l 544 347 b 486 405 509 347 486 370 l 486 463 l 197 463 b 139 521 162 463 139 486 l 139 637 b 197 694 139 671 162 694 l 313 694 b 370 637 347 694 370 671 l 370 579 l 602 579 l 602 810 l 486 810 z "},"ß":{"ha":625,"x_min":0,"x_max":0,"o":"m 486 752 b 428 694 486 718 463 694 b 370 752 394 694 370 718 l 370 810 l 139 810 l 139 752 b 81 694 139 718 116 694 l 23 694 l 23 463 l 81 463 b 139 405 116 463 139 440 l 139 347 l 428 347 b 486 289 463 347 486 324 l 486 174 b 428 116 486 139 463 116 l 313 116 b 255 174 278 116 255 139 l 255 231 l 23 231 l 23 0 l 139 0 l 139 58 b 197 116 139 93 162 116 b 255 58 231 116 255 93 l 255 0 l 486 0 l 486 58 b 544 116 486 93 509 116 l 602 116 l 602 347 l 544 347 b 486 405 509 347 486 370 l 486 463 l 197 463 b 139 521 162 463 139 486 l 139 637 b 197 694 139 671 162 694 l 313 694 b 370 637 347 694 370 671 l 370 579 l 602 579 l 602 810 l 486 810 z "},"t":{"ha":625,"x_min":0,"x_max":0,"o":"m 486 174 b 428 116 486 139 463 116 l 313 116 b 255 174 278 116 255 139 l 255 637 b 313 694 255 671 278 694 l 486 694 l 486 810 l 313 810 b 255 868 278 810 255 833 l 255 1042 l 139 1042 l 139 868 b 81 810 139 833 116 810 l 23 810 l 23 694 l 81 694 b 139 637 116 694 139 671 l 139 116 l 197 116 b 255 58 231 116 255 93 l 255 0 l 486 0 l 486 58 b 544 116 486 93 509 116 l 602 116 l 602 231 l 486 231 z "},"ŧ":{"ha":625,"x_min":0,"x_max":0,"o":"m 486 174 b 428 116 486 139 463 116 l 313 116 b 255 174 278 116 255 139 l 255 637 b 313 694 255 671 278 694 l 486 694 l 486 810 l 313 810 b 255 868 278 810 255 833 l 255 1042 l 139 1042 l 139 868 b 81 810 139 833 116 810 l 23 810 l 23 694 l 81 694 b 139 637 116 694 139 671 l 139 116 l 197 116 b 255 58 231 116 255 93 l 255 0 l 486 0 l 486 58 b 544 116 486 93 509 116 l 602 116 l 602 231 l 486 231 z "},"ť":{"ha":625,"x_min":0,"x_max":0,"o":"m 486 174 b 428 116 486 139 463 116 l 313 116 b 255 174 278 116 255 139 l 255 637 b 313 694 255 671 278 694 l 486 694 l 486 810 l 313 810 b 255 868 278 810 255 833 l 255 1042 l 139 1042 l 139 868 b 81 810 139 833 116 810 l 23 810 l 23 694 l 81 694 b 139 637 116 694 139 671 l 139 116 l 197 116 b 255 58 231 116 255 93 l 255 0 l 486 0 l 486 58 b 544 116 486 93 509 116 l 602 116 l 602 231 l 486 231 z "},"ţ":{"ha":625,"x_min":0,"x_max":0,"o":"m 486 174 b 428 116 486 139 463 116 l 313 116 b 255 174 278 116 255 139 l 255 637 b 313 694 255 671 278 694 l 486 694 l 486 810 l 313 810 b 255 868 278 810 255 833 l 255 1042 l 139 1042 l 139 868 b 81 810 139 833 116 810 l 23 810 l 23 694 l 81 694 b 139 637 116 694 139 671 l 139 116 l 197 116 b 255 58 231 116 255 93 l 255 0 l 486 0 l 486 58 b 544 116 486 93 509 116 l 602 116 l 602 231 l 486 231 z "},"ț":{"ha":625,"x_min":0,"x_max":0,"o":"m 486 174 b 428 116 486 139 463 116 l 313 116 b 255 174 278 116 255 139 l 255 637 b 313 694 255 671 278 694 l 486 694 l 486 810 l 313 810 b 255 868 278 810 255 833 l 255 1042 l 139 1042 l 139 868 b 81 810 139 833 116 810 l 23 810 l 23 694 l 81 694 b 139 637 116 694 139 671 l 139 116 l 197 116 b 255 58 231 116 255 93 l 255 0 l 486 0 l 486 58 b 544 116 486 93 509 116 l 602 116 l 602 231 l 486 231 z "},"u":{"ha":856,"x_min":0,"x_max":0,"o":"m 775 231 b 718 289 741 231 718 255 l 718 810 l 486 810 l 486 694 l 544 694 b 602 637 579 694 602 671 l 602 289 b 544 231 602 255 579 231 l 486 231 l 486 174 b 428 116 486 139 463 116 l 313 116 b 255 174 278 116 255 139 l 255 810 l 23 810 l 23 694 l 81 694 b 139 637 116 694 139 671 l 139 116 l 197 116 b 255 58 231 116 255 93 l 255 0 l 486 0 l 486 58 b 544 116 486 93 509 116 b 602 58 579 116 602 93 l 602 0 l 718 0 l 718 58 b 775 116 718 93 741 116 l 833 116 l 833 231 z "},"ú":{"ha":856,"x_min":0,"x_max":0,"o":"m 775 231 b 718 289 741 231 718 255 l 718 810 l 486 810 l 486 694 l 544 694 b 602 637 579 694 602 671 l 602 289 b 544 231 602 255 579 231 l 486 231 l 486 174 b 428 116 486 139 463 116 l 313 116 b 255 174 278 116 255 139 l 255 810 l 23 810 l 23 694 l 81 694 b 139 637 116 694 139 671 l 139 116 l 197 116 b 255 58 231 116 255 93 l 255 0 l 486 0 l 486 58 b 544 116 486 93 509 116 b 602 58 579 116 602 93 l 602 0 l 718 0 l 718 58 b 775 116 718 93 741 116 l 833 116 l 833 231 z "},"û":{"ha":856,"x_min":0,"x_max":0,"o":"m 775 231 b 718 289 741 231 718 255 l 718 810 l 486 810 l 486 694 l 544 694 b 602 637 579 694 602 671 l 602 289 b 544 231 602 255 579 231 l 486 231 l 486 174 b 428 116 486 139 463 116 l 313 116 b 255 174 278 116 255 139 l 255 810 l 23 810 l 23 694 l 81 694 b 139 637 116 694 139 671 l 139 116 l 197 116 b 255 58 231 116 255 93 l 255 0 l 486 0 l 486 58 b 544 116 486 93 509 116 b 602 58 579 116 602 93 l 602 0 l 718 0 l 718 58 b 775 116 718 93 741 116 l 833 116 l 833 231 z "},"ü":{"ha":856,"x_min":0,"x_max":0,"o":"m 775 231 b 718 289 741 231 718 255 l 718 810 l 486 810 l 486 694 l 544 694 b 602 637 579 694 602 671 l 602 289 b 544 231 602 255 579 231 l 486 231 l 486 174 b 428 116 486 139 463 116 l 313 116 b 255 174 278 116 255 139 l 255 810 l 23 810 l 23 694 l 81 694 b 139 637 116 694 139 671 l 139 116 l 197 116 b 255 58 231 116 255 93 l 255 0 l 486 0 l 486 58 b 544 116 486 93 509 116 b 602 58 579 116 602 93 l 602 0 l 718 0 l 718 58 b 775 116 718 93 741 116 l 833 116 l 833 231 z "},"ù":{"ha":856,"x_min":0,"x_max":0,"o":"m 775 231 b 718 289 741 231 718 255 l 718 810 l 486 810 l 486 694 l 544 694 b 602 637 579 694 602 671 l 602 289 b 544 231 602 255 579 231 l 486 231 l 486 174 b 428 116 486 139 463 116 l 313 116 b 255 174 278 116 255 139 l 255 810 l 23 810 l 23 694 l 81 694 b 139 637 116 694 139 671 l 139 116 l 197 116 b 255 58 231 116 255 93 l 255 0 l 486 0 l 486 58 b 544 116 486 93 509 116 b 602 58 579 116 602 93 l 602 0 l 718 0 l 718 58 b 775 116 718 93 741 116 l 833 116 l 833 231 z "},"ű":{"ha":856,"x_min":0,"x_max":0,"o":"m 775 231 b 718 289 741 231 718 255 l 718 810 l 486 810 l 486 694 l 544 694 b 602 637 579 694 602 671 l 602 289 b 544 231 602 255 579 231 l 486 231 l 486 174 b 428 116 486 139 463 116 l 313 116 b 255 174 278 116 255 139 l 255 810 l 23 810 l 23 694 l 81 694 b 139 637 116 694 139 671 l 139 116 l 197 116 b 255 58 231 116 255 93 l 255 0 l 486 0 l 486 58 b 544 116 486 93 509 116 b 602 58 579 116 602 93 l 602 0 l 718 0 l 718 58 b 775 116 718 93 741 116 l 833 116 l 833 231 z "},"ū":{"ha":856,"x_min":0,"x_max":0,"o":"m 775 231 b 718 289 741 231 718 255 l 718 810 l 486 810 l 486 694 l 544 694 b 602 637 579 694 602 671 l 602 289 b 544 231 602 255 579 231 l 486 231 l 486 174 b 428 116 486 139 463 116 l 313 116 b 255 174 278 116 255 139 l 255 810 l 23 810 l 23 694 l 81 694 b 139 637 116 694 139 671 l 139 116 l 197 116 b 255 58 231 116 255 93 l 255 0 l 486 0 l 486 58 b 544 116 486 93 509 116 b 602 58 579 116 602 93 l 602 0 l 718 0 l 718 58 b 775 116 718 93 741 116 l 833 116 l 833 231 z "},"ų":{"ha":856,"x_min":0,"x_max":0,"o":"m 775 231 b 718 289 741 231 718 255 l 718 810 l 486 810 l 486 694 l 544 694 b 602 637 579 694 602 671 l 602 289 b 544 231 602 255 579 231 l 486 231 l 486 174 b 428 116 486 139 463 116 l 313 116 b 255 174 278 116 255 139 l 255 810 l 23 810 l 23 694 l 81 694 b 139 637 116 694 139 671 l 139 116 l 197 116 b 255 58 231 116 255 93 l 255 0 l 486 0 l 486 58 b 544 116 486 93 509 116 b 602 58 579 116 602 93 l 602 0 l 718 0 l 718 58 b 775 116 718 93 741 116 l 833 116 l 833 231 z "},"ů":{"ha":856,"x_min":0,"x_max":0,"o":"m 775 231 b 718 289 741 231 718 255 l 718 810 l 486 810 l 486 694 l 544 694 b 602 637 579 694 602 671 l 602 289 b 544 231 602 255 579 231 l 486 231 l 486 174 b 428 116 486 139 463 116 l 313 116 b 255 174 278 116 255 139 l 255 810 l 23 810 l 23 694 l 81 694 b 139 637 116 694 139 671 l 139 116 l 197 116 b 255 58 231 116 255 93 l 255 0 l 486 0 l 486 58 b 544 116 486 93 509 116 b 602 58 579 116 602 93 l 602 0 l 718 0 l 718 58 b 775 116 718 93 741 116 l 833 116 l 833 231 z "},"v":{"ha":856,"x_min":0,"x_max":0,"o":"m 833 810 l 486 810 l 486 694 l 544 694 b 602 637 579 694 602 671 l 602 521 b 544 463 602 486 579 463 l 486 463 l 486 174 b 428 116 486 139 463 116 b 370 174 394 116 370 139 l 370 463 l 313 463 b 255 521 278 463 255 486 l 255 637 b 313 694 255 671 278 694 l 370 694 l 370 810 l 23 810 l 23 694 l 81 694 b 139 637 116 694 139 671 l 139 463 l 197 463 b 255 405 231 463 255 440 l 255 116 l 313 116 b 370 58 347 116 370 93 l 370 0 l 486 0 l 486 58 b 544 116 486 93 509 116 l 602 116 l 602 405 b 660 463 602 440 625 463 l 718 463 l 718 637 b 775 694 718 671 741 694 l 833 694 z "},"w":{"ha":1319,"x_min":0,"x_max":0,"o":"m 1296 810 l 949 810 l 949 694 l 1007 694 b 1065 637 1042 694 1065 671 l 1065 521 b 1007 463 1065 486 1042 463 l 949 463 l 949 289 b 891 231 949 255 926 231 b 833 289 856 231 833 255 l 833 463 l 775 463 b 718 521 741 463 718 486 l 718 637 b 775 694 718 671 741 694 l 833 694 l 833 810 l 486 810 l 486 694 l 544 694 b 602 637 579 694 602 671 l 602 521 b 544 463 602 486 579 463 l 486 463 l 486 289 b 428 231 486 255 463 231 b 370 289 394 231 370 255 l 370 463 l 313 463 b 255 521 278 463 255 486 l 255 637 b 313 694 255 671 278 694 l 370 694 l 370 810 l 23 810 l 23 694 l 81 694 b 139 637 116 694 139 671 l 139 463 l 197 463 b 255 405 231 463 255 440 l 255 231 l 313 231 b 370 174 347 231 370 208 l 370 0 l 486 0 l 486 174 b 544 231 486 208 509 231 l 602 231 l 602 405 b 660 463 602 440 625 463 b 718 405 694 463 718 440 l 718 231 l 775 231 b 833 174 810 231 833 208 l 833 0 l 949 0 l 949 174 b 1007 231 949 208 972 231 l 1065 231 l 1065 405 b 1123 463 1065 440 1088 463 l 1181 463 l 1181 637 b 1238 694 1181 671 1204 694 l 1296 694 z "},"ẃ":{"ha":1319,"x_min":0,"x_max":0,"o":"m 1296 810 l 949 810 l 949 694 l 1007 694 b 1065 637 1042 694 1065 671 l 1065 521 b 1007 463 1065 486 1042 463 l 949 463 l 949 289 b 891 231 949 255 926 231 b 833 289 856 231 833 255 l 833 463 l 775 463 b 718 521 741 463 718 486 l 718 637 b 775 694 718 671 741 694 l 833 694 l 833 810 l 486 810 l 486 694 l 544 694 b 602 637 579 694 602 671 l 602 521 b 544 463 602 486 579 463 l 486 463 l 486 289 b 428 231 486 255 463 231 b 370 289 394 231 370 255 l 370 463 l 313 463 b 255 521 278 463 255 486 l 255 637 b 313 694 255 671 278 694 l 370 694 l 370 810 l 23 810 l 23 694 l 81 694 b 139 637 116 694 139 671 l 139 463 l 197 463 b 255 405 231 463 255 440 l 255 231 l 313 231 b 370 174 347 231 370 208 l 370 0 l 486 0 l 486 174 b 544 231 486 208 509 231 l 602 231 l 602 405 b 660 463 602 440 625 463 b 718 405 694 463 718 440 l 718 231 l 775 231 b 833 174 810 231 833 208 l 833 0 l 949 0 l 949 174 b 1007 231 949 208 972 231 l 1065 231 l 1065 405 b 1123 463 1065 440 1088 463 l 1181 463 l 1181 637 b 1238 694 1181 671 1204 694 l 1296 694 z "},"ŵ":{"ha":1319,"x_min":0,"x_max":0,"o":"m 1296 810 l 949 810 l 949 694 l 1007 694 b 1065 637 1042 694 1065 671 l 1065 521 b 1007 463 1065 486 1042 463 l 949 463 l 949 289 b 891 231 949 255 926 231 b 833 289 856 231 833 255 l 833 463 l 775 463 b 718 521 741 463 718 486 l 718 637 b 775 694 718 671 741 694 l 833 694 l 833 810 l 486 810 l 486 694 l 544 694 b 602 637 579 694 602 671 l 602 521 b 544 463 602 486 579 463 l 486 463 l 486 289 b 428 231 486 255 463 231 b 370 289 394 231 370 255 l 370 463 l 313 463 b 255 521 278 463 255 486 l 255 637 b 313 694 255 671 278 694 l 370 694 l 370 810 l 23 810 l 23 694 l 81 694 b 139 637 116 694 139 671 l 139 463 l 197 463 b 255 405 231 463 255 440 l 255 231 l 313 231 b 370 174 347 231 370 208 l 370 0 l 486 0 l 486 174 b 544 231 486 208 509 231 l 602 231 l 602 405 b 660 463 602 440 625 463 b 718 405 694 463 718 440 l 718 231 l 775 231 b 833 174 810 231 833 208 l 833 0 l 949 0 l 949 174 b 1007 231 949 208 972 231 l 1065 231 l 1065 405 b 1123 463 1065 440 1088 463 l 1181 463 l 1181 637 b 1238 694 1181 671 1204 694 l 1296 694 z "},"ẅ":{"ha":1319,"x_min":0,"x_max":0,"o":"m 1296 810 l 949 810 l 949 694 l 1007 694 b 1065 637 1042 694 1065 671 l 1065 521 b 1007 463 1065 486 1042 463 l 949 463 l 949 289 b 891 231 949 255 926 231 b 833 289 856 231 833 255 l 833 463 l 775 463 b 718 521 741 463 718 486 l 718 637 b 775 694 718 671 741 694 l 833 694 l 833 810 l 486 810 l 486 694 l 544 694 b 602 637 579 694 602 671 l 602 521 b 544 463 602 486 579 463 l 486 463 l 486 289 b 428 231 486 255 463 231 b 370 289 394 231 370 255 l 370 463 l 313 463 b 255 521 278 463 255 486 l 255 637 b 313 694 255 671 278 694 l 370 694 l 370 810 l 23 810 l 23 694 l 81 694 b 139 637 116 694 139 671 l 139 463 l 197 463 b 255 405 231 463 255 440 l 255 231 l 313 231 b 370 174 347 231 370 208 l 370 0 l 486 0 l 486 174 b 544 231 486 208 509 231 l 602 231 l 602 405 b 660 463 602 440 625 463 b 718 405 694 463 718 440 l 718 231 l 775 231 b 833 174 810 231 833 208 l 833 0 l 949 0 l 949 174 b 1007 231 949 208 972 231 l 1065 231 l 1065 405 b 1123 463 1065 440 1088 463 l 1181 463 l 1181 637 b 1238 694 1181 671 1204 694 l 1296 694 z "},"ẁ":{"ha":1319,"x_min":0,"x_max":0,"o":"m 1296 810 l 949 810 l 949 694 l 1007 694 b 1065 637 1042 694 1065 671 l 1065 521 b 1007 463 1065 486 1042 463 l 949 463 l 949 289 b 891 231 949 255 926 231 b 833 289 856 231 833 255 l 833 463 l 775 463 b 718 521 741 463 718 486 l 718 637 b 775 694 718 671 741 694 l 833 694 l 833 810 l 486 810 l 486 694 l 544 694 b 602 637 579 694 602 671 l 602 521 b 544 463 602 486 579 463 l 486 463 l 486 289 b 428 231 486 255 463 231 b 370 289 394 231 370 255 l 370 463 l 313 463 b 255 521 278 463 255 486 l 255 637 b 313 694 255 671 278 694 l 370 694 l 370 810 l 23 810 l 23 694 l 81 694 b 139 637 116 694 139 671 l 139 463 l 197 463 b 255 405 231 463 255 440 l 255 231 l 313 231 b 370 174 347 231 370 208 l 370 0 l 486 0 l 486 174 b 544 231 486 208 509 231 l 602 231 l 602 405 b 660 463 602 440 625 463 b 718 405 694 463 718 440 l 718 231 l 775 231 b 833 174 810 231 833 208 l 833 0 l 949 0 l 949 174 b 1007 231 949 208 972 231 l 1065 231 l 1065 405 b 1123 463 1065 440 1088 463 l 1181 463 l 1181 637 b 1238 694 1181 671 1204 694 l 1296 694 z "},"x":{"ha":856,"x_min":0,"x_max":0,"o":"m 602 463 l 602 521 b 660 579 602 556 625 579 l 718 579 l 718 637 b 775 694 718 671 741 694 l 833 694 l 833 810 l 486 810 l 486 694 l 544 694 b 602 637 579 694 602 671 b 544 579 602 602 579 579 l 486 579 l 486 521 b 428 463 486 486 463 463 b 370 521 394 463 370 486 l 370 579 l 313 579 b 255 637 278 579 255 602 b 313 694 255 671 278 694 l 370 694 l 370 810 l 23 810 l 23 694 l 81 694 b 139 637 116 694 139 671 l 139 579 l 197 579 b 255 521 231 579 255 556 l 255 463 l 313 463 b 370 405 347 463 370 440 b 313 347 370 370 347 347 l 255 347 l 255 289 b 197 231 255 255 231 231 l 139 231 l 139 174 b 81 116 139 139 116 116 l 23 116 l 23 0 l 370 0 l 370 116 l 313 116 b 255 174 278 116 255 139 b 313 231 255 208 278 231 l 370 231 l 370 289 b 428 347 370 324 394 347 b 486 289 463 347 486 324 l 486 231 l 544 231 b 602 174 579 231 602 208 b 544 116 602 139 579 116 l 486 116 l 486 0 l 833 0 l 833 116 l 775 116 b 718 174 741 116 718 139 l 718 231 l 660 231 b 602 289 625 231 602 255 l 602 347 l 544 347 b 486 405 509 347 486 370 b 544 463 486 440 509 463 z "},"y":{"ha":856,"x_min":0,"x_max":0,"o":"m 833 810 l 486 810 l 486 694 l 544 694 b 602 637 579 694 602 671 l 602 521 b 544 463 602 486 579 463 l 486 463 l 486 289 b 428 231 486 255 463 231 b 370 289 394 231 370 255 l 370 463 l 313 463 b 255 521 278 463 255 486 l 255 637 b 313 694 255 671 278 694 l 370 694 l 370 810 l 23 810 l 23 694 l 81 694 b 139 637 116 694 139 671 l 139 463 l 197 463 b 255 405 231 463 255 440 l 255 231 l 313 231 b 370 174 347 231 370 208 l 370 58 b 313 0 370 23 347 0 l 255 0 l 255 -174 b 197 -231 255 -208 231 -231 l 23 -231 l 23 -347 l 255 -347 l 255 -289 b 313 -231 255 -255 278 -231 l 370 -231 l 370 -58 b 428 0 370 -23 394 0 l 486 0 l 486 174 b 544 231 486 208 509 231 l 602 231 l 602 405 b 660 463 602 440 625 463 l 718 463 l 718 637 b 775 694 718 671 741 694 l 833 694 z "},"ý":{"ha":856,"x_min":0,"x_max":0,"o":"m 833 810 l 486 810 l 486 694 l 544 694 b 602 637 579 694 602 671 l 602 521 b 544 463 602 486 579 463 l 486 463 l 486 289 b 428 231 486 255 463 231 b 370 289 394 231 370 255 l 370 463 l 313 463 b 255 521 278 463 255 486 l 255 637 b 313 694 255 671 278 694 l 370 694 l 370 810 l 23 810 l 23 694 l 81 694 b 139 637 116 694 139 671 l 139 463 l 197 463 b 255 405 231 463 255 440 l 255 231 l 313 231 b 370 174 347 231 370 208 l 370 58 b 313 0 370 23 347 0 l 255 0 l 255 -174 b 197 -231 255 -208 231 -231 l 23 -231 l 23 -347 l 255 -347 l 255 -289 b 313 -231 255 -255 278 -231 l 370 -231 l 370 -58 b 428 0 370 -23 394 0 l 486 0 l 486 174 b 544 231 486 208 509 231 l 602 231 l 602 405 b 660 463 602 440 625 463 l 718 463 l 718 637 b 775 694 718 671 741 694 l 833 694 z "},"ŷ":{"ha":856,"x_min":0,"x_max":0,"o":"m 833 810 l 486 810 l 486 694 l 544 694 b 602 637 579 694 602 671 l 602 521 b 544 463 602 486 579 463 l 486 463 l 486 289 b 428 231 486 255 463 231 b 370 289 394 231 370 255 l 370 463 l 313 463 b 255 521 278 463 255 486 l 255 637 b 313 694 255 671 278 694 l 370 694 l 370 810 l 23 810 l 23 694 l 81 694 b 139 637 116 694 139 671 l 139 463 l 197 463 b 255 405 231 463 255 440 l 255 231 l 313 231 b 370 174 347 231 370 208 l 370 58 b 313 0 370 23 347 0 l 255 0 l 255 -174 b 197 -231 255 -208 231 -231 l 23 -231 l 23 -347 l 255 -347 l 255 -289 b 313 -231 255 -255 278 -231 l 370 -231 l 370 -58 b 428 0 370 -23 394 0 l 486 0 l 486 174 b 544 231 486 208 509 231 l 602 231 l 602 405 b 660 463 602 440 625 463 l 718 463 l 718 637 b 775 694 718 671 741 694 l 833 694 z "},"ÿ":{"ha":856,"x_min":0,"x_max":0,"o":"m 833 810 l 486 810 l 486 694 l 544 694 b 602 637 579 694 602 671 l 602 521 b 544 463 602 486 579 463 l 486 463 l 486 289 b 428 231 486 255 463 231 b 370 289 394 231 370 255 l 370 463 l 313 463 b 255 521 278 463 255 486 l 255 637 b 313 694 255 671 278 694 l 370 694 l 370 810 l 23 810 l 23 694 l 81 694 b 139 637 116 694 139 671 l 139 463 l 197 463 b 255 405 231 463 255 440 l 255 231 l 313 231 b 370 174 347 231 370 208 l 370 58 b 313 0 370 23 347 0 l 255 0 l 255 -174 b 197 -231 255 -208 231 -231 l 23 -231 l 23 -347 l 255 -347 l 255 -289 b 313 -231 255 -255 278 -231 l 370 -231 l 370 -58 b 428 0 370 -23 394 0 l 486 0 l 486 174 b 544 231 486 208 509 231 l 602 231 l 602 405 b 660 463 602 440 625 463 l 718 463 l 718 637 b 775 694 718 671 741 694 l 833 694 z "},"ỳ":{"ha":856,"x_min":0,"x_max":0,"o":"m 833 810 l 486 810 l 486 694 l 544 694 b 602 637 579 694 602 671 l 602 521 b 544 463 602 486 579 463 l 486 463 l 486 289 b 428 231 486 255 463 231 b 370 289 394 231 370 255 l 370 463 l 313 463 b 255 521 278 463 255 486 l 255 637 b 313 694 255 671 278 694 l 370 694 l 370 810 l 23 810 l 23 694 l 81 694 b 139 637 116 694 139 671 l 139 463 l 197 463 b 255 405 231 463 255 440 l 255 231 l 313 231 b 370 174 347 231 370 208 l 370 58 b 313 0 370 23 347 0 l 255 0 l 255 -174 b 197 -231 255 -208 231 -231 l 23 -231 l 23 -347 l 255 -347 l 255 -289 b 313 -231 255 -255 278 -231 l 370 -231 l 370 -58 b 428 0 370 -23 394 0 l 486 0 l 486 174 b 544 231 486 208 509 231 l 602 231 l 602 405 b 660 463 602 440 625 463 l 718 463 l 718 637 b 775 694 718 671 741 694 l 833 694 z "},"z":{"ha":625,"x_min":0,"x_max":0,"o":"m 602 810 l 23 810 l 23 579 l 139 579 l 139 637 b 197 694 139 671 162 694 l 428 694 b 486 637 463 694 486 671 b 428 579 486 602 463 579 l 370 579 l 370 521 b 313 463 370 486 347 463 l 255 463 l 255 405 b 197 347 255 370 231 347 l 139 347 l 139 289 b 81 231 139 255 116 231 l 23 231 l 23 0 l 602 0 l 602 231 l 486 231 l 486 174 b 428 116 486 139 463 116 l 197 116 b 139 174 162 116 139 139 b 197 231 139 208 162 231 l 255 231 l 255 289 b 313 347 255 324 278 347 l 370 347 l 370 405 b 428 463 370 440 394 463 l 486 463 l 486 521 b 544 579 486 556 509 579 l 602 579 z "},"ź":{"ha":625,"x_min":0,"x_max":0,"o":"m 602 810 l 23 810 l 23 579 l 139 579 l 139 637 b 197 694 139 671 162 694 l 428 694 b 486 637 463 694 486 671 b 428 579 486 602 463 579 l 370 579 l 370 521 b 313 463 370 486 347 463 l 255 463 l 255 405 b 197 347 255 370 231 347 l 139 347 l 139 289 b 81 231 139 255 116 231 l 23 231 l 23 0 l 602 0 l 602 231 l 486 231 l 486 174 b 428 116 486 139 463 116 l 197 116 b 139 174 162 116 139 139 b 197 231 139 208 162 231 l 255 231 l 255 289 b 313 347 255 324 278 347 l 370 347 l 370 405 b 428 463 370 440 394 463 l 486 463 l 486 521 b 544 579 486 556 509 579 l 602 579 z "},"ž":{"ha":625,"x_min":0,"x_max":0,"o":"m 602 810 l 23 810 l 23 579 l 139 579 l 139 637 b 197 694 139 671 162 694 l 428 694 b 486 637 463 694 486 671 b 428 579 486 602 463 579 l 370 579 l 370 521 b 313 463 370 486 347 463 l 255 463 l 255 405 b 197 347 255 370 231 347 l 139 347 l 139 289 b 81 231 139 255 116 231 l 23 231 l 23 0 l 602 0 l 602 231 l 486 231 l 486 174 b 428 116 486 139 463 116 l 197 116 b 139 174 162 116 139 139 b 197 231 139 208 162 231 l 255 231 l 255 289 b 313 347 255 324 278 347 l 370 347 l 370 405 b 428 463 370 440 394 463 l 486 463 l 486 521 b 544 579 486 556 509 579 l 602 579 z "},"ż":{"ha":625,"x_min":0,"x_max":0,"o":"m 602 810 l 23 810 l 23 579 l 139 579 l 139 637 b 197 694 139 671 162 694 l 428 694 b 486 637 463 694 486 671 b 428 579 486 602 463 579 l 370 579 l 370 521 b 313 463 370 486 347 463 l 255 463 l 255 405 b 197 347 255 370 231 347 l 139 347 l 139 289 b 81 231 139 255 116 231 l 23 231 l 23 0 l 602 0 l 602 231 l 486 231 l 486 174 b 428 116 486 139 463 116 l 197 116 b 139 174 162 116 139 139 b 197 231 139 208 162 231 l 255 231 l 255 289 b 313 347 255 324 278 347 l 370 347 l 370 405 b 428 463 370 440 394 463 l 486 463 l 486 521 b 544 579 486 556 509 579 l 602 579 z "},"ﬁ":{"ha":787,"x_min":0,"x_max":0,"o":"m 706 116 b 648 174 671 116 648 139 l 648 810 l 313 810 b 255 868 278 810 255 833 l 255 1100 b 313 1157 255 1134 278 1157 l 475 1157 b 532 1100 509 1157 532 1134 l 533 1100 l 533 1042 l 649 1042 l 649 1157 l 590 1157 b 532 1215 556 1157 532 1181 l 532 1273 l 255 1273 l 255 1215 b 197 1157 255 1181 231 1157 l 139 1157 l 139 868 b 81 810 139 833 116 810 l 23 810 l 23 694 l 81 694 b 139 637 116 694 139 671 l 139 174 b 81 116 139 139 116 116 l 23 116 l 23 0 l 370 0 l 370 116 l 313 116 b 255 174 278 116 255 139 l 255 637 b 313 694 255 671 278 694 l 475 694 b 532 637 509 694 532 671 l 532 174 b 475 116 532 139 509 116 l 417 116 l 417 0 l 764 0 l 764 116 z "},"ﬂ":{"ha":787,"x_min":0,"x_max":0,"o":"m 706 116 b 648 174 671 116 648 139 l 648 1273 l 255 1273 l 255 1215 b 197 1157 255 1181 231 1157 l 139 1157 l 139 868 b 81 810 139 833 116 810 l 23 810 l 23 694 l 81 694 b 139 637 116 694 139 671 l 139 174 b 81 116 139 139 116 116 l 23 116 l 23 0 l 370 0 l 370 116 l 313 116 b 255 174 278 116 255 139 l 255 637 b 313 694 255 671 278 694 l 370 694 l 370 810 l 313 810 b 255 868 278 810 255 833 l 255 1100 b 313 1157 255 1134 278 1157 l 475 1157 b 532 1100 509 1157 532 1134 l 532 174 b 475 116 532 139 509 116 l 417 116 l 417 0 l 764 0 l 764 116 z "},".":{"ha":162,"x_min":0,"x_max":0,"o":"m 23 231 l 23 0 l 139 0 l 139 231 z "},",":{"ha":278,"x_min":0,"x_max":0,"o":"m 23 231 l 23 116 l 81 116 b 139 58 116 116 139 93 l 139 -58 b 81 -116 139 -93 116 -116 l 23 -116 l 23 -231 l 139 -231 l 139 -174 b 197 -116 139 -139 162 -116 l 255 -116 l 255 231 z "},":":{"ha":162,"x_min":0,"x_max":0,"o":"m 23 810 l 23 579 l 139 579 l 139 810 z m 23 0 l 139 0 l 139 231 l 23 231 z "},";":{"ha":162,"x_min":0,"x_max":0,"o":"m 23 810 l 23 579 l 139 579 l 139 810 z m 23 231 l 23 -58 b -35 -116 23 -93 0 -116 l -93 -116 l -93 -231 l 23 -231 l 23 -174 b 81 -116 23 -139 46 -116 l 139 -116 l 139 231 z "},"!":{"ha":162,"x_min":0,"x_max":0,"o":"m 23 1157 l 23 347 l 139 347 l 139 1157 z m 23 0 l 139 0 l 139 231 l 23 231 z "},"?":{"ha":625,"x_min":0,"x_max":0,"o":"m 544 1042 b 486 1100 509 1042 486 1065 l 486 1157 l 255 1157 l 255 1100 b 197 1042 255 1065 231 1042 b 139 1100 162 1042 139 1065 l 139 1157 l 23 1157 l 23 810 l 139 810 l 139 868 b 197 926 139 903 162 926 l 255 926 l 255 984 b 313 1042 255 1019 278 1042 l 428 1042 b 486 984 463 1042 486 1019 l 486 752 b 428 694 486 718 463 694 l 370 694 l 370 637 b 313 579 370 602 347 579 l 255 579 l 255 347 l 370 347 l 370 521 b 428 579 370 556 394 579 l 486 579 l 486 637 b 544 694 486 671 509 694 l 602 694 l 602 1042 z m 255 0 l 370 0 l 370 231 l 255 231 z "},"/":{"ha":625,"x_min":0,"x_max":0,"o":"m 486 1157 l 486 984 b 428 926 486 949 463 926 l 370 926 l 370 637 b 313 579 370 602 347 579 l 255 579 l 255 405 b 197 347 255 370 231 347 l 139 347 l 139 58 b 81 0 139 23 116 0 l 23 0 l 23 -231 l 139 -231 l 139 -58 b 197 0 139 -23 162 0 l 255 0 l 255 289 b 313 347 255 324 278 347 l 370 347 l 370 521 b 428 579 370 556 394 579 l 486 579 l 486 868 b 544 926 486 903 509 926 l 602 926 l 602 1157 z "},"(":{"ha":394,"x_min":0,"x_max":0,"o":"m 139 58 l 139 752 b 197 810 139 787 162 810 l 255 810 l 255 984 b 313 1042 255 1019 278 1042 l 370 1042 l 370 1157 l 255 1157 l 255 1100 b 197 1042 255 1065 231 1042 l 139 1042 l 139 868 b 81 810 139 833 116 810 l 23 810 l 23 0 l 81 0 b 139 -58 116 0 139 -23 l 139 -231 l 197 -231 b 255 -289 231 -231 255 -255 l 255 -347 l 370 -347 l 370 -231 l 313 -231 b 255 -174 278 -231 255 -208 l 255 0 l 197 0 b 139 58 162 0 139 23 z "},")":{"ha":394,"x_min":0,"x_max":0,"o":"m 313 810 b 255 868 278 810 255 833 l 255 1042 l 197 1042 b 139 1100 162 1042 139 1065 l 139 1157 l 23 1157 l 23 1042 l 81 1042 b 139 984 116 1042 139 1019 l 139 810 l 197 810 b 255 752 231 810 255 787 l 255 58 b 197 0 255 23 231 0 l 139 0 l 139 -174 b 81 -231 139 -208 116 -231 l 23 -231 l 23 -347 l 139 -347 l 139 -289 b 197 -231 139 -255 162 -231 l 255 -231 l 255 -58 b 313 0 255 -23 278 0 l 370 0 l 370 810 z "},"{":{"ha":625,"x_min":0,"x_max":0,"o":"m 370 463 l 370 984 b 428 1042 370 1019 394 1042 l 602 1042 l 602 1157 l 255 1157 l 255 521 b 197 463 255 486 231 463 l 23 463 l 23 347 l 197 347 b 255 289 231 347 255 324 l 255 -347 l 602 -347 l 602 -231 l 428 -231 b 370 -174 394 -231 370 -208 l 370 347 l 313 347 b 255 405 278 347 255 370 b 313 463 255 440 278 463 z "},"}":{"ha":625,"x_min":0,"x_max":0,"o":"m 428 463 b 370 521 394 463 370 486 l 370 1157 l 23 1157 l 23 1042 l 197 1042 b 255 984 231 1042 255 1019 l 255 463 l 313 463 b 370 405 347 463 370 440 b 313 347 370 370 347 347 l 255 347 l 255 -174 b 197 -231 255 -208 231 -231 l 23 -231 l 23 -347 l 370 -347 l 370 289 b 428 347 370 324 394 347 l 602 347 l 602 463 z "},"[":{"ha":394,"x_min":0,"x_max":0,"o":"m 139 -174 l 139 984 b 197 1042 139 1019 162 1042 l 370 1042 l 370 1157 l 23 1157 l 23 -347 l 370 -347 l 370 -231 l 197 -231 b 139 -174 162 -231 139 -208 z "},"]":{"ha":394,"x_min":0,"x_max":0,"o":"m 370 1157 l 23 1157 l 23 1042 l 197 1042 b 255 984 231 1042 255 1019 l 255 -174 b 197 -231 255 -208 231 -231 l 23 -231 l 23 -347 l 370 -347 z "},"-":{"ha":394,"x_min":0,"x_max":0,"o":"m 370 463 l 23 463 l 23 347 l 370 347 z "},"–":{"ha":625,"x_min":0,"x_max":0,"o":"m 602 463 l 23 463 l 23 347 l 602 347 z "},"—":{"ha":1204,"x_min":0,"x_max":0,"o":"m 1181 463 l 23 463 l 23 347 l 1181 347 z "},"'":{"ha":278,"x_min":0,"x_max":0,"o":"m 23 1157 l 23 1042 l 81 1042 b 139 984 116 1042 139 1019 l 139 868 b 81 810 139 833 116 810 l 23 810 l 23 694 l 139 694 l 139 752 b 197 810 139 787 162 810 l 255 810 l 255 1157 z "},"¢":{"ha":625,"x_min":0,"x_max":0,"o":"m 602 694 l 544 694 b 486 752 509 694 486 718 l 486 810 l 139 810 l 139 752 b 81 694 139 718 116 694 l 23 694 l 23 116 l 81 116 b 139 58 116 116 139 93 l 139 0 l 486 0 l 486 58 b 544 116 486 93 509 116 l 602 116 l 602 231 l 486 231 l 486 174 b 428 116 486 139 463 116 l 197 116 b 139 174 162 116 139 139 l 139 637 b 197 694 139 671 162 694 l 428 694 b 486 637 463 694 486 671 l 486 579 l 602 579 z "},"$":{"ha":741,"x_min":0,"x_max":0,"o":"m 602 1100 b 544 1042 602 1065 579 1042 b 486 1100 509 1042 486 1065 l 486 1157 l 139 1157 l 139 1100 b 81 1042 139 1065 116 1042 l 23 1042 l 23 694 l 81 694 b 139 637 116 694 139 671 l 139 579 l 313 579 b 370 521 347 579 370 556 l 370 463 l 544 463 b 602 405 579 463 602 440 l 602 174 b 544 116 602 139 579 116 l 313 116 b 255 174 278 116 255 139 l 255 231 l 197 231 b 139 289 162 231 139 255 l 139 347 l 23 347 l 23 0 l 139 0 l 139 58 b 197 116 139 93 162 116 b 255 58 231 116 255 93 l 255 0 l 602 0 l 602 58 b 660 116 602 93 625 116 l 718 116 l 718 463 l 660 463 b 602 521 625 463 602 486 l 602 579 l 428 579 b 370 637 394 579 370 602 l 370 694 l 197 694 b 139 752 162 694 139 718 l 139 984 b 197 1042 139 1019 162 1042 l 428 1042 b 486 984 463 1042 486 1019 l 486 926 l 544 926 b 602 868 579 926 602 903 l 602 810 l 718 810 l 718 1157 l 602 1157 z "},"€":{"ha":625,"x_min":0,"x_max":0,"o":"m 544 694 b 486 752 509 694 486 718 l 486 810 l 139 810 l 139 752 b 81 694 139 718 116 694 l 23 694 l 23 116 l 81 116 b 139 58 116 116 139 93 l 139 0 l 486 0 l 486 58 b 544 116 486 93 509 116 l 602 116 l 602 231 l 486 231 l 486 174 b 428 116 486 139 463 116 l 197 116 b 139 174 162 116 139 139 l 139 405 b 197 463 139 440 162 463 l 602 463 l 602 694 z m 428 579 l 197 579 b 139 637 162 579 139 602 b 197 694 139 671 162 694 l 428 694 b 486 637 463 694 486 671 b 428 579 486 602 463 579 z "},"£":{"ha":972,"x_min":0,"x_max":0,"o":"m 833 289 b 775 231 833 255 810 231 l 718 231 l 718 174 b 660 116 718 139 694 116 l 313 116 b 255 174 278 116 255 139 l 255 984 b 313 1042 255 1019 278 1042 l 486 1042 l 486 1157 l 23 1157 l 23 1042 l 81 1042 b 139 984 116 1042 139 1019 l 139 174 b 81 116 139 139 116 116 l 23 116 l 23 0 l 833 0 l 833 174 b 891 231 833 208 856 231 l 949 231 l 949 347 l 833 347 z "},"¥":{"ha":1088,"x_min":0,"x_max":0,"o":"m 1065 1157 l 718 1157 l 718 1042 l 775 1042 b 833 984 810 1042 833 1019 b 775 926 833 949 810 926 l 718 926 l 718 752 b 660 694 718 718 694 694 l 602 694 l 602 521 b 544 463 602 486 579 463 b 486 521 509 463 486 486 l 486 694 l 428 694 b 370 752 394 694 370 718 l 370 926 l 313 926 b 255 984 278 926 255 949 b 313 1042 255 1019 278 1042 l 370 1042 l 370 1157 l 23 1157 l 23 1042 l 81 1042 b 139 984 116 1042 139 1019 l 139 926 l 197 926 b 255 868 231 926 255 903 l 255 694 l 313 694 b 370 637 347 694 370 671 l 370 463 l 428 463 b 486 405 463 463 486 440 l 486 174 b 428 116 486 139 463 116 l 255 116 l 255 0 l 833 0 l 833 116 l 660 116 b 602 174 625 116 602 139 l 602 405 b 660 463 602 440 625 463 l 718 463 l 718 637 b 775 694 718 671 741 694 l 833 694 l 833 868 b 891 926 833 903 856 926 l 949 926 l 949 984 b 1007 1042 949 1019 972 1042 l 1065 1042 z "}}}
